<?xml version="1.0" encoding="UTF-8" standalone="no"?>
<svg
   xmlns:dc="http://purl.org/dc/elements/1.1/"
   xmlns:cc="http://creativecommons.org/ns#"
   xmlns:rdf="http://www.w3.org/1999/02/22-rdf-syntax-ns#"
   xmlns:svg="http://www.w3.org/2000/svg"
   xmlns="http://www.w3.org/2000/svg"
   xmlns:sodipodi="http://sodipodi.sourceforge.net/DTD/sodipodi-0.dtd"
   xmlns:inkscape="http://www.inkscape.org/namespaces/inkscape"
   version="1.1"
   id="svg2"
   xml:space="preserve"
   width="5333.3335"
   height="5333.3335"
   viewBox="0 0 5333.3335 5333.3335"
   sodipodi:docname="3500_7_16.eps"><metadata
     id="metadata8"><rdf:RDF><cc:Work
         rdf:about=""><dc:format>image/svg+xml</dc:format><dc:type
           rdf:resource="http://purl.org/dc/dcmitype/StillImage" /></cc:Work></rdf:RDF></metadata><defs
     id="defs6" /><sodipodi:namedview
     pagecolor="#ffffff"
     bordercolor="#666666"
     borderopacity="1"
     objecttolerance="10"
     gridtolerance="10"
     guidetolerance="10"
     inkscape:pageopacity="0"
     inkscape:pageshadow="2"
     inkscape:window-width="640"
     inkscape:window-height="480"
     id="namedview4" /><g
     id="g10"
     inkscape:groupmode="layer"
     inkscape:label="ink_ext_XXXXXX"
     transform="matrix(1.3333333,0,0,-1.3333333,0,5333.3333)"><g
       id="g12"
       transform="scale(0.1)"><path
         d="M 0,0 H 40000 V 40000 H 0 Z"
         style="fill:#0bcbff;fill-opacity:1;fill-rule:nonzero;stroke:none"
         id="path14" /><path
         d="m 25501.1,12441 -7514.4,1395.8 c -1453.3,270 -2421.4,1679.9 -2151.5,3133.1 l 838.1,4511.6 c 269.9,1453.3 1679.8,2421.4 3133,2151.5 l 7514.4,-1395.9 c 1453.3,-269.9 2421.4,-1679.8 2151.5,-3133 l -838.1,-4511.7 c -269.9,-1453.2 -1679.8,-2421.3 -3133,-2151.4"
         style="fill:#ffffff;fill-opacity:1;fill-rule:nonzero;stroke:none"
         id="path16" /><path
         d="m 25501.1,12441 -7514.4,1395.8 c -1453.3,270 -2421.4,1679.9 -2151.5,3133.1 l 838.1,4511.6 c 269.9,1453.3 1679.8,2421.4 3133,2151.5 l 7514.4,-1395.9 c 1453.3,-269.9 2421.4,-1679.8 2151.5,-3133 l -838.1,-4511.7 c -269.9,-1453.2 -1679.8,-2421.3 -3133,-2151.4"
         style="fill:#ffffff;fill-opacity:1;fill-rule:nonzero;stroke:none"
         id="path18" /><path
         d="m 25501.1,12441 -7514.4,1395.8 c -1453.3,270 -2421.4,1679.9 -2151.5,3133.1 l 838.1,4511.6 c 269.9,1453.3 1679.8,2421.4 3133,2151.5 l 7514.4,-1395.9 c 1453.3,-269.9 2421.4,-1679.8 2151.5,-3133 l -838.1,-4511.7 c -269.9,-1453.2 -1679.8,-2421.3 -3133,-2151.4"
         style="fill:#ffffff;fill-opacity:1;fill-rule:nonzero;stroke:none"
         id="path20" /><path
         d="m 25501.1,12441 -7514.4,1395.8 c -1453.3,270 -2421.4,1679.9 -2151.5,3133.1 l 838.1,4511.6 c 269.9,1453.3 1679.8,2421.4 3133,2151.5 l 7514.4,-1395.9 c 1453.3,-269.9 2421.4,-1679.8 2151.5,-3133 l -838.1,-4511.7 c -269.9,-1453.2 -1679.8,-2421.3 -3133,-2151.4"
         style="fill:#ffffff;fill-opacity:1;fill-rule:nonzero;stroke:none"
         id="path22" /><path
         d="m 23430.9,18553.8 c -235.7,26.9 -470.5,60.3 -703.6,99.9 -284.5,48.4 -566.6,105.9 -845.9,172.4 -334.2,220.6 -651.9,353.4 -864.8,442.5 -84.9,35.5 -158.3,66.2 -202.2,89.7 -200.6,107.5 -366.4,227.8 -496.6,360 809.9,-481.9 1720.7,-789.1 2685.5,-895.6 248.4,-27.4 494.8,-40.8 739.1,-40.8 785.7,0 1546.6,138.7 2255.8,394.7 -1.7,-2.2 -3.5,-4.4 -5.3,-6.6 -227.8,-280.7 -594.1,-444.5 -1089,-487 -29.3,-2.5 -68.9,-3.3 -115.3,-3.3 -32.4,0 -68.1,0.4 -105.9,0.8 -45.1,0.5 -94.6,1 -147.9,1 -283,0 -674.6,-14.7 -1103.9,-127.7"
         style="fill:#d7d1da;fill-opacity:1;fill-rule:nonzero;stroke:none"
         id="path24" /><path
         d="m 19314.7,23506.1 c -503,0 -995.1,-152.1 -1421.1,-444.7 -555.5,-381.5 -928.8,-953.7 -1050.9,-1611.3 l -838.1,-4511.7 c -253.3,-1363.5 650,-2678.9 2013.5,-2932.2 l 7514.4,-1395.8 c 657.7,-122.1 1325.8,20.7 1881.4,402.1 555.5,381.5 928.7,953.8 1050.8,1611.4 l 838.1,4511.7 c 122.1,657.6 -20.7,1325.7 -402.2,1881.2 -381.5,555.6 -953.7,928.8 -1611.3,1051 l -7514.4,1395.8 c -153.3,28.5 -307.3,42.5 -460.2,42.5 m 6678.8,-11282.9 c -174.1,0 -349.2,16 -523.8,48.4 l -7514.5,1395.9 c -1550.3,287.9 -2577.3,1783.5 -2289.4,3333.9 l 838.1,4511.6 c 139,748.1 563.3,1398.9 1194.7,1832.4 631.4,433.6 1391.1,596 2139.2,456.9 l 7514.4,-1395.8 c 748.1,-139 1398.9,-563.2 1832.4,-1194.6 433.6,-631.5 595.9,-1391.2 456.9,-2139.3 l -838,-4511.6 c -139,-748.1 -563.2,-1398.9 -1194.6,-1832.5 -484.1,-332.4 -1043.6,-505.3 -1615.4,-505.3"
         style="fill:#371a45;fill-opacity:1;fill-rule:nonzero;stroke:none"
         id="path26" /><path
         d="m 19314.7,23506.1 c -503,0 -995.1,-152.1 -1421.1,-444.7 -555.5,-381.5 -928.8,-953.7 -1050.9,-1611.3 l -838.1,-4511.7 c -253.3,-1363.5 650,-2678.9 2013.5,-2932.2 l 7514.4,-1395.8 c 657.7,-122.1 1325.8,20.7 1881.4,402.1 555.5,381.5 928.7,953.8 1050.8,1611.4 l 838.1,4511.7 c 122.1,657.6 -20.7,1325.7 -402.2,1881.2 -381.5,555.6 -953.7,928.8 -1611.3,1051 l -7514.4,1395.8 c -153.3,28.5 -307.3,42.5 -460.2,42.5 m 6678.8,-11282.9 c -174.1,0 -349.2,16 -523.8,48.4 l -7514.5,1395.9 c -1550.3,287.9 -2577.3,1783.5 -2289.4,3333.9 l 838.1,4511.6 c 139,748.1 563.3,1398.9 1194.7,1832.4 631.4,433.6 1391.1,596 2139.2,456.9 l 7514.4,-1395.8 c 748.1,-139 1398.9,-563.2 1832.4,-1194.6 433.6,-631.5 595.9,-1391.2 456.9,-2139.3 l -838,-4511.6 c -139,-748.1 -563.2,-1398.9 -1194.6,-1832.5 -484.1,-332.4 -1043.6,-505.3 -1615.4,-505.3"
         style="fill:#371a45;fill-opacity:1;fill-rule:nonzero;stroke:none"
         id="path28" /><path
         d="m 19314.7,23506.1 c -503,0 -995.1,-152.1 -1421.1,-444.7 -555.5,-381.5 -928.8,-953.7 -1050.9,-1611.3 l -838.1,-4511.7 c -253.3,-1363.5 650,-2678.9 2013.5,-2932.2 l 7514.4,-1395.8 c 657.7,-122.1 1325.8,20.7 1881.4,402.1 555.5,381.5 928.7,953.8 1050.8,1611.4 l 838.1,4511.7 c 122.1,657.6 -20.7,1325.7 -402.2,1881.2 -381.5,555.6 -953.7,928.8 -1611.3,1051 l -7514.4,1395.8 c -153.3,28.5 -307.3,42.5 -460.2,42.5 m 6678.8,-11282.9 c -174.1,0 -349.2,16 -523.8,48.4 l -7514.5,1395.9 c -1550.3,287.9 -2577.3,1783.5 -2289.4,3333.9 l 838.1,4511.6 c 139,748.1 563.3,1398.9 1194.7,1832.4 631.4,433.6 1391.1,596 2139.2,456.9 l 7514.4,-1395.8 c 748.1,-139 1398.9,-563.2 1832.4,-1194.6 433.6,-631.5 595.9,-1391.2 456.9,-2139.3 l -838,-4511.6 c -139,-748.1 -563.2,-1398.9 -1194.6,-1832.5 -484.1,-332.4 -1043.6,-505.3 -1615.4,-505.3"
         style="fill:#371a45;fill-opacity:1;fill-rule:nonzero;stroke:none"
         id="path30" /><path
         d="m 19314.7,23506.1 c -503,0 -995.1,-152.1 -1421.1,-444.7 -555.5,-381.5 -928.8,-953.7 -1050.9,-1611.3 l -838.1,-4511.7 c -253.3,-1363.5 650,-2678.9 2013.5,-2932.2 l 7514.4,-1395.8 c 657.7,-122.1 1325.8,20.7 1881.4,402.1 555.5,381.5 928.7,953.8 1050.8,1611.4 l 838.1,4511.7 c 122.1,657.6 -20.7,1325.7 -402.2,1881.2 -381.5,555.6 -953.7,928.8 -1611.3,1051 l -7514.4,1395.8 c -153.3,28.5 -307.3,42.5 -460.2,42.5 m 6678.8,-11282.9 c -174.1,0 -349.2,16 -523.8,48.4 l -7514.5,1395.9 c -1550.3,287.9 -2577.3,1783.5 -2289.4,3333.9 l 838.1,4511.6 c 139,748.1 563.3,1398.9 1194.7,1832.4 631.4,433.6 1391.1,596 2139.2,456.9 l 7514.4,-1395.8 c 748.1,-139 1398.9,-563.2 1832.4,-1194.6 433.6,-631.5 595.9,-1391.2 456.9,-2139.3 l -838,-4511.6 c -139,-748.1 -563.2,-1398.9 -1194.6,-1832.5 -484.1,-332.4 -1043.6,-505.3 -1615.4,-505.3"
         style="fill:#371a45;fill-opacity:1;fill-rule:nonzero;stroke:none"
         id="path32" /><path
         d="m 18748.7,9328.9 c 1431.6,-863.3 3643.7,-697.5 4825.4,-209.4 2284.1,943.7 3130.8,4802.8 3130.8,4802.8 L 17037,15173.9 c 0,0 -78.9,-4765.3 1711.7,-5845"
         style="fill:#ffffff;fill-opacity:1;fill-rule:nonzero;stroke:none"
         id="path34" /><path
         d="m 21320,8894.3 c -883.8,0 -1786.7,172 -2463.1,573.4 l 261.9,335.3 c 14.3,-10 31.6,-15.8 50,-15.8 2.3,0 4.6,0.1 6.9,0.3 48.2,3.7 84.2,45.7 80.5,93.9 -2.8,36.4 -6,72.7 -9.5,108.9 296.7,-19.8 594.7,-29.8 893,-29.8 90.8,0 182,0.9 272.9,2.8 l 40.2,1 c 36.5,0.9 73.2,1.8 109.8,3 50.4,1.7 100.6,3.4 151.3,5.7 l 40.7,1.9 c 36.5,1.8 72.9,3.5 110.6,5.5 l 49.1,2.9 c 33.9,1.9 67.8,3.9 100.4,6.1 38.8,2.3 77.8,5.2 117,8.1 l 27.6,2.1 c 3.2,0.2 6.2,0.4 7.4,0.6 51,3.6 102.1,7.7 148.9,12.1 7.6,0.5 15,1.2 22.5,2 l 15.4,1.3 c 35,3.2 70.7,6.6 105.8,10.1 l 30.1,3 c 22.7,2.2 45.4,4.4 67.1,6.8 41.2,4.3 82.4,8.7 124.1,13.7 l 88.1,6.7 2.6,3.9 c 18.7,2.3 37.3,4.6 55.9,6.9 l 10.1,1.3 c 20.2,2.4 40.3,5.1 60.2,7.8 l 30.4,4 c 25,3.4 50.1,6.7 71.8,10 26.5,3.4 52.6,7 78.7,10.7 l 6.7,1.3 0.1,-0.2 c 22.5,3.4 45,6.7 67.7,10.4 13.3,1.5 26.6,3.5 40.5,6.1 26.9,3.9 54.5,8 84.5,12.7 15,2.4 29.6,4.7 44.5,7.5 24.7,3.7 48.9,7.6 70.6,11.6 l 81.8,13.8 c 41,7.2 82,14.5 122.4,22 l 169.5,31.2 0.7,1 c 26.6,5.2 53.1,10.5 79.6,15.9 8.8,1.4 17.7,3.3 27.1,5.7 55.9,11 111.9,22.9 168.2,35.1 37.4,8.2 74.8,16.6 112.1,24.9 l 115.5,26.8 c 33.8,8 67.6,16.1 100.7,24.2 -73.8,-194.2 -139.5,-391.8 -194,-594.6 -10.8,-40.2 8.3,-83.5 47.2,-101.9 12.1,-5.7 24.8,-8.4 37.3,-8.4 12.6,0 25,2.8 36.4,8 l 196.1,-378.3 c -587.2,-239.8 -1372.6,-381 -2173.6,-381 m 367.1,1318.9 -0.5,0.4 -1.4,11.7 v 0 l 1.9,-12.1"
         style="fill:#d7d1da;fill-opacity:1;fill-rule:nonzero;stroke:none"
         id="path36" /><path
         d="m 17211.9,14975.1 c 10,-897.1 142.5,-4601.6 1627,-5496.7 1292.4,-779.4 3429.6,-709.3 4668.5,-197.5 1892.3,781.8 2778.3,3722.8 2980.9,4493.3 l -9276.4,1200.9 m 4071.3,-6432.5 c -904.1,0 -1856.7,173.6 -2624.7,636.7 -1855.3,1118.8 -1799.4,5798.8 -1796.2,5997.5 l 3.3,195.3 10050.7,-1301.1 -40.8,-186.2 c -35.4,-161.2 -893.2,-3959.3 -3234.7,-4926.7 -572.8,-236.6 -1440.2,-415.5 -2357.6,-415.5"
         style="fill:#371a45;fill-opacity:1;fill-rule:nonzero;stroke:none"
         id="path38" /><path
         d="M 32843.8,19225.8 C 32486.3,18179.3 32001.7,17186 31405.7,16266.6 30306.8,14569.1 28829,13124 27073.5,12063.6 25558.1,11147.6 23835.7,10518.5 21970.2,10261.8 14627.3,9248.5 7853.2,14381 6840.32,21723.5 c -561.88,4078.1 771.44,7982.5 3327.18,10819.9 477.2,530.9 1358.7,186.9 1343.4,-527 -4.8,-241 -3.5,-483.2 4.4,-726.4 15.7,-465.9 55,-936.1 120,-1407.2 137.6,-997.1 381.2,-1953.2 717.8,-2858.3 60.7,-161.5 123.6,-320.9 189.5,-479.3 161.5,-387.7 339.6,-764.5 534.8,-1130.8 140.6,-265.5 289.9,-524.4 447.5,-777.6 267.6,-431.3 558.8,-844.8 871.9,-1239.9 121.8,-154.5 247.1,-306 375.9,-454.5 90.3,-104.3 182,-207.3 275.9,-308.6 344,-374.2 708.6,-728.3 1091.9,-1060.1 35.3,-30.5 70.7,-60.7 106.1,-90.8 214.8,-182 434.8,-357.5 660.5,-525.2 52.4,-39.3 104.8,-77.7 157.6,-116.1 225.3,-163.7 456.3,-319.6 691.2,-468.5 127,-80.7 255.3,-159.3 385.5,-235.3 27.5,-16.2 54.5,-32.3 82.5,-48 19.2,-11.4 38.4,-22.3 58,-33.6 41.9,-24.1 84.3,-47.6 126.2,-70.8 224.4,-125.3 452.3,-244 683.7,-355.8 69.4,-34 139.3,-66.8 209.6,-99.1 75.5,-34.9 151.5,-69.4 227.9,-103 200.4,-88.2 404.2,-172 609.4,-250.6 319.2,-123.1 644,-233.2 973.2,-331.4 337.5,-100 679.7,-187.3 1026.4,-260.6 459.7,-98.3 927.3,-172 1400.1,-220.9 535.3,-55.5 1078.4,-79.1 1626.8,-68.6 199.9,3.5 400.7,11.4 602,24.5 330.9,20.9 663.6,53.7 998,99.9 21.9,3.1 44.1,5.7 66,9.6 954.3,136.3 1871.2,369.8 2741.3,689.9 754.9,276.7 1474.8,618.6 2154.1,1017.6 612.5,359.8 1346.9,-238.3 1117.2,-911.1"
         style="fill:#ffda22;fill-opacity:1;fill-rule:nonzero;stroke:none"
         id="path40" /><path
         d="M 32843.8,19225.8 C 32486.3,18179.3 32001.7,17186 31405.7,16266.6 30306.8,14569.1 28829,13124 27073.5,12063.6 25558.1,11147.6 23835.7,10518.5 21970.2,10261.8 14627.3,9248.5 7853.2,14381 6840.32,21723.5 c -561.88,4078.1 771.44,7982.5 3327.18,10819.9 477.2,530.9 1358.7,186.9 1343.4,-527 -4.8,-241 -3.5,-483.2 4.4,-726.4 15.7,-465.9 55,-936.1 120,-1407.2 137.6,-997.1 381.2,-1953.2 717.8,-2858.3 60.7,-161.5 123.6,-320.9 189.5,-479.3 161.5,-387.7 339.6,-764.5 534.8,-1130.8 140.6,-265.5 289.9,-524.4 447.5,-777.6 267.6,-431.3 558.8,-844.8 871.9,-1239.9 121.8,-154.5 247.1,-306 375.9,-454.5 90.3,-104.3 182,-207.3 275.9,-308.6 344,-374.2 708.6,-728.3 1091.9,-1060.1 35.3,-30.5 70.7,-60.7 106.1,-90.8 214.8,-182 434.8,-357.5 660.5,-525.2 52.4,-39.3 104.8,-77.7 157.6,-116.1 225.3,-163.7 456.3,-319.6 691.2,-468.5 127,-80.7 255.3,-159.3 385.5,-235.3 27.5,-16.2 54.5,-32.3 82.5,-48 19.2,-11.4 38.4,-22.3 58,-33.6 41.9,-24.1 84.3,-47.6 126.2,-70.8 224.4,-125.3 452.3,-244 683.7,-355.8 69.4,-34 139.3,-66.8 209.6,-99.1 75.5,-34.9 151.5,-69.4 227.9,-103 200.4,-88.2 404.2,-172 609.4,-250.6 319.2,-123.1 644,-233.2 973.2,-331.4 337.5,-100 679.7,-187.3 1026.4,-260.6 459.7,-98.3 927.3,-172 1400.1,-220.9 535.3,-55.5 1078.4,-79.1 1626.8,-68.6 199.9,3.5 400.7,11.4 602,24.5 330.9,20.9 663.6,53.7 998,99.9 21.9,3.1 44.1,5.7 66,9.6 954.3,136.3 1871.2,369.8 2741.3,689.9 754.9,276.7 1474.8,618.6 2154.1,1017.6 612.5,359.8 1346.9,-238.3 1117.2,-911.1"
         style="fill:#ffda22;fill-opacity:1;fill-rule:nonzero;stroke:none"
         id="path42" /><path
         d="m 29609.9,14337.6 c 436.8,496.3 836.6,1024.1 1195.8,1579 596,919.4 1080.6,1912.7 1438.1,2959.2 166.3,487.1 -172.8,935.2 -605.2,1008.7 12,6.9 24.1,13.8 36.1,20.7 l 140.7,81.8 c 76,44.6 156.1,71.8 238.1,80.7 11.9,1.3 23.8,2.2 35.7,2.4 l 6.2,0.2 c 7.3,0.4 14.7,0.6 22.3,0.6 11.5,0 23.5,-0.5 36.1,-1.4 l 16.3,-1.6 c 50.5,-5 100.2,-16.6 147.4,-34.5 81.5,-31.1 157.5,-80.3 219.3,-141.9 30.6,-30.7 57.5,-64 80.5,-99.3 77.2,-165.6 96.1,-362.6 26.5,-566.4 -248,-725.9 -557.2,-1426.3 -922.2,-2094.1 -118.9,-214 -243.3,-424.1 -372.6,-629 -29.9,-47.2 -59.9,-94.5 -89.6,-140.5 -34,-52.1 -68.2,-104.6 -103.3,-156.9 -30.9,-46.3 -62.1,-92.3 -93.3,-138.4 l -2.1,-3 c -82.3,-119.6 -156,-223.5 -225.7,-318.4 -143.9,-197.3 -295.2,-393.1 -452.3,-584.7 -6.7,-8.2 -13.3,-16.4 -22.2,-26.7 l -48.2,-58.1 -0.4,-0.7 c -17.4,-21.1 -35,-41.9 -52.6,-62.8 l -39.7,-46.7 c -14.7,-17.6 -29.7,-35 -44.7,-52.4 l -43.3,-50 c -6.4,-7.9 -13.6,-15.7 -20.5,-23.3 l -4,-4.5 c -17.8,-20.8 -36.1,-41.7 -56.8,-65.2 -11.2,-12.7 -22.5,-25.7 -34.3,-38 l -7,-7.9 c -15.4,-18 -31.4,-35.6 -47.4,-53.2 l -47.2,-51.7 -3.9,-4.4 c -5.6,-6.5 -11.2,-12.7 -17.3,-18.6 l -13.2,-14.3 c -3.8,-4.6 -7.8,-8.8 -11.9,-13.2 -34.8,-37.7 -69.4,-75.1 -104.6,-112 l -13,-13.6 c -6.6,-7.1 -13.2,-14.1 -19.9,-21.2 -40,-28.4 -80.3,-56.7 -120.7,-84.7 m -13754.3,6621.7 c -70.3,57.2 -139.9,115.1 -209,173.6 -35.4,30.2 -70.8,60.3 -106.1,90.8 -383.3,331.8 -747.9,685.9 -1091.9,1060.1 -93.9,101.3 -185.6,204.3 -275.9,308.6 -128.8,148.5 -254.1,300 -375.9,454.5 -313.1,395.1 -604.3,808.6 -871.9,1239.9 -157.6,253.2 -306.9,512.1 -447.5,777.6 -195.2,366.3 -373.3,743 -534.8,1130.7 -65.9,158.5 -128.8,317.9 -189.5,479.4 -336.6,905.1 -580.2,1861.2 -717.8,2858.3 -65,471.1 -104.3,941.3 -120,1407.2 -7.9,243.2 -9.2,485.4 -4.4,726.5 6.9,320.6 -167.1,566.5 -404.2,692 54.2,88.9 109.7,177.4 165.9,265 20,2.1 40.2,3.2 60.5,3.2 11.8,0 23.6,-0.4 35.5,-1.1 l 28.6,-1.7 c 22.5,-2.3 46.3,-6.4 71,-12.1 143.5,-33 290.4,-124.3 380.4,-268.8 42.1,-96.8 64.9,-206.4 62.3,-326.6 -4.8,-241 -3.5,-483.2 4.4,-726.4 15.7,-465.9 55,-936.1 120,-1407.2 137.6,-997.1 381.2,-1953.2 717.8,-2858.3 60.7,-161.5 123.6,-320.9 189.5,-479.4 161.5,-387.7 339.6,-764.4 534.8,-1130.7 140.6,-265.5 289.9,-524.4 447.5,-777.6 6.9,-11.1 13.9,-22.3 20.8,-33.4 314.6,-509.2 664.6,-999.6 1049.5,-1470.2 535.1,-654 1125.2,-1252.8 1761.5,-1791.1 -51.8,-57.2 -100.6,-114.5 -145.8,-171.6 -55.1,-69.5 -106.9,-140 -155.3,-211.2"
         style="fill:#ffed91;fill-opacity:1;fill-rule:nonzero;stroke:none"
         id="path44" /><path
         d="m 23372.5,14105 c -420.1,0 -887.9,116.4 -1346.8,465.9 0,0 -318.9,-131.9 -759.6,-131.9 -297.2,-0.1 -649.7,59.9 -997.3,260.7 -862.7,498.1 -965.7,829.9 -965.7,829.9 0,0 -5128.9,723.2 -3988.7,3890.5 -44.3,-834.4 301.7,-1647.8 1022.8,-2254.6 422.4,-355.5 1059.8,-652.5 1649.8,-875.8 191.2,-115.5 410.9,-187.8 634.3,-220.6 376.8,-120.6 675.8,-198.9 795.2,-229 176.9,-193.4 928.9,-970.2 1677,-1066.1 62.3,-8 125,-11.9 188,-11.9 292.3,0 588.6,84.5 859,238.8 199,-198.4 436.4,-344.6 695,-418.6 141.1,-40.4 292.3,-57.2 446.4,-57.2 0.2,0 0.3,0 0.5,0 252.4,0.1 512.2,45 746,104.7 59.5,-129.3 134.1,-251.3 220.6,-364.5 -243.7,-87.8 -545.2,-160.3 -876.5,-160.3 m 3558.9,135.2 c 233.2,100.2 419.2,257.1 537.1,440.2 8.9,-6.2 19.2,-9.3 29.5,-9.3 14.7,0 29.3,6.3 39.6,18.4 28.1,33.2 57.7,65.8 86.1,99.7 186.9,25.4 364.7,61.2 526.1,109.9 12.2,3.7 24.4,7.5 36.5,11.3 -8.9,-27 -17.9,-53.9 -31.5,-79.2 l -44.7,-97.2 c -12.6,-33.4 -35.1,-62.2 -52.2,-93.3 -18.8,-30.3 -35.4,-61.8 -55.7,-91.1 l -64.6,-85.4 c -19.2,-24.9 -39.1,-49.3 -59.7,-73.1 -321.3,-77.8 -644.6,-126.5 -946.5,-150.9 m -2431.4,128.6 c -95.3,98.1 -180.7,205.9 -252.1,323.1 181.7,56.4 336.5,116.3 443.7,161 15.9,-24.7 32.6,-48.9 49.9,-72.5 101.1,-134.3 223.1,-249.3 356.6,-344.8 -185.6,73.2 -237.2,135.3 -237.2,135.3 0,0 -134.8,-96.8 -360.9,-202.1 m 3827.2,151.8 c 79.3,158.9 136.1,328.9 164.6,503.1 854.2,368.2 1419,1070.5 1599.5,1928 43.1,-544.2 -9.1,-1067.1 -258.2,-1422.1 -335,-477.7 -895.2,-802.5 -1505.9,-1009"
         style="fill:#d7b429;fill-opacity:1;fill-rule:nonzero;stroke:none"
         id="path46" /><path
         d="m 22592.1,18201.7 c -42.7,50.4 -86.3,98.5 -130.6,144.6 68.9,-12.8 138,-25.1 207.2,-36.9 29.6,-5 59.2,-10 88.8,-14.8 -55.1,-28.8 -110.3,-59.7 -165.4,-92.9"
         style="fill:#d7c382;fill-opacity:1;fill-rule:nonzero;stroke:none"
         id="path48" /><path
         d="m 21685.2,10225.3 v 0.1 -0.1"
         style="fill:#b7acbc;fill-opacity:1;fill-rule:nonzero;stroke:none"
         id="path50" /><path
         d="m 20129.2,10309.7 c -311.2,0 -620.7,10.8 -927.3,32.1 -35.9,230.3 -83.9,457.9 -138.8,684.9 -55.4,220 -117.9,438.7 -189.5,654.8 1.7,0.3 3.4,0.7 5.1,1.1 234.9,53 462.5,148.9 658.5,291.8 69.2,48.5 134.1,103.1 193.9,162.5 725.2,-122.3 1467.1,-185.7 2220.1,-185.7 610.5,0 1228.3,41.7 1850.1,127.4 176.2,24.3 351.1,51.9 524.6,82.7 -67.1,-96.1 -132.1,-193.5 -195.2,-292 -209,-328.5 -392.3,-671.3 -553,-1023.6 -14,-30.9 -27.8,-61.9 -41.5,-92.9 -2.3,-0.6 -4.7,-1.2 -7.1,-1.8 -6.5,-1.6 -13.1,-3.3 -19.4,-5.1 l -51.3,-13.5 c -6.1,-1.8 -12.4,-3.3 -18.9,-4.7 l -10.6,-2.5 c -22.5,-6.3 -45.5,-11.8 -69.1,-17.4 l -60.3,-15.2 c -36.7,-9 -73.6,-17.8 -110.5,-26.6 l -111.2,-25.7 c -36.5,-8.2 -73.1,-16.4 -109.8,-24.4 -56,-12.2 -111.8,-24 -167.5,-34.9 l -18,-3.9 c -50.6,-10.3 -101.7,-20.3 -152.5,-30 l -95.4,-17.8 c -40.4,-7.5 -80.5,-14.6 -119.1,-21.4 l -83.3,-14 c -21.7,-4.1 -42.9,-7.4 -64.5,-10.6 l -8.5,-1.4 c -11.9,-2.4 -23.4,-4.2 -39.2,-6.6 -26.8,-4.3 -53.9,-8.2 -80.4,-12.1 l -7.2,-1.2 c -7.1,-1.4 -13.7,-2.5 -20.4,-3.1 l -10.3,-1.4 c -22.8,-3.7 -45.3,-7 -71.4,-10.9 l -9.1,-1.5 c -21.9,-3 -44.1,-6.1 -69.3,-9.3 -23.7,-3.6 -47,-6.7 -69.8,-9.7 l -31.1,-4.2 c -18.4,-2.5 -36.9,-4.9 -56.1,-7.2 l -10.6,-1.4 c -37.5,-4.6 -74.9,-9.2 -110.7,-13.4 l -99.8,-6.7 -3.3,-5 c -17.1,-1.8 -34.1,-3.6 -51.4,-5.4 -21.2,-2.4 -42.3,-4.4 -63.4,-6.5 l -31.4,-3 c -34.1,-3.5 -68.7,-6.8 -99.1,-9.6 -7.1,-0.5 -14.1,-1.1 -21.2,-1.8 l -16.4,-1.5 c -48.7,-4.5 -97.5,-8.4 -146.2,-11.9 l -35.9,-2.7 c -37.2,-2.8 -74.3,-5.6 -112.8,-7.9 -33,-2.2 -65.7,-4.1 -98.5,-6 l -48.8,-2.8 c -35.8,-1.9 -71.4,-3.6 -107.3,-5.3 l -40.5,-1.9 c -48.8,-2.3 -97.6,-3.9 -146.6,-5.5 -35.6,-1.2 -71.2,-2.1 -106.8,-2.9 l -39.6,-1 c -92.2,-1.9 -183.6,-2.8 -275.4,-2.8 m -8089.4,2755 c -2459.63,1897.9 -4248.68,4657.7 -4894.17,7899.5 -27.15,138 -49.8,261 -69.33,376 -20.27,119.5 -39.41,243.7 -58.59,379.9 -13.48,96 -26.37,195.7 -38.19,295.9 -11.38,99 -22.07,197.6 -31.5,296.1 -8.98,95.4 -17.08,191.3 -24.16,286.7 -3.9,51.8 -7.18,103.9 -10.5,156 -2.35,37.2 -4.4,73.9 -6.44,110.7 l -1.82,32.6 c -2.48,50 -4.68,99.6 -6.53,150.4 -2.06,49 -3.86,97.3 -5.18,145.7 -1.22,48.6 -2.49,97.2 -3.13,147 -0.93,48.4 -1.56,97.2 -1.85,145.8 -0.25,48.4 -0.54,96.7 -0.15,145.2 l 0.15,24.6 c 0.24,40.2 0.43,80.2 1.31,122.8 0.15,17.6 0.49,35.3 0.84,53 l 2.78,112.1 c 1.02,47.8 2.78,95.2 4.84,143.5 8.88,233.4 24.26,468.5 45.75,698.9 l 9.96,106.2 c 5.91,59.3 12.35,118.7 19.58,179.5 l 0.73,6.6 c 3.22,28.7 6.4,57.3 10.35,87.7 24.81,204.1 54.79,409.8 89.16,611.8 4.74,28 9.67,56.4 14.74,85.6 l 4.26,23.9 c 2.43,13.8 4.83,27.7 8.44,45.8 7.96,45.9 16.75,91.4 25.88,138 34.42,179.6 74.42,365.2 119.09,552.7 10.45,45 21.44,90.1 33.11,135.8 89.5,359.9 196.24,721.7 317.38,1075.5 29,84.8 58.74,169.2 89.35,253.1 66.65,181.8 135.36,358 204.74,525.2 14.6,36.1 29.59,71.9 45.31,108.5 73.98,174.2 154.59,353.1 239.51,531.5 36.23,75.6 72.9,150.5 110.89,225.8 53.71,107.6 109.42,215.3 165.52,320 28.57,53.3 57.77,106.8 87.11,159.7 l 0.25,0.4 c 193.84,350.9 407.22,698.5 634.08,1033 77.1,113.4 157.38,227.6 238.72,339.5 46.39,64 93.7,127.9 141.41,191.5 50.73,67.8 102.34,134.5 154.44,201.3 90.62,116 185.55,233 289.99,357.6 61.47,73 126.77,148.8 199.77,231.8 33.7,38.3 68,76.6 102.3,114.9 0.9,1.1 1.8,2.1 2.7,3.1 71,-15.5 139.8,-40.6 204,-74.6 -600.17,-983.5 -1075.56,-2045.9 -1408.08,-3163.6 -637.77,-239.2 -1006.2,-1256.9 -839.55,-2431.6 53.04,-373.8 154.5,-722.8 290.42,-1029.2 -18.5,-721.8 21.16,-1454.7 122.97,-2193.3 120.72,-876.3 323.74,-1721.1 599.96,-2527.8 -162.83,-158.9 -293.24,-351.6 -393.32,-557.9 -196.38,-422 -270.28,-890.6 -262.51,-1352.2 6.3,-463.9 104.73,-923.5 266.18,-1356.6 162.79,-433.2 389.72,-841.3 672.09,-1209.1 283.61,-366.2 622.04,-693.7 1013.34,-948.8 390,-253.4 833,-443.3 1304,-496.3 58.3,-8.5 117.8,-9.8 176.5,-14.8 0.2,0 0.4,0 0.6,0 19.9,0 39.7,-0.5 59.5,-0.9 19.8,-0.5 39.6,-0.9 59.5,-0.9 19.2,0 38.5,0.4 57.8,1.7 118.3,2.5 236.3,18.4 352.1,41.8 179.1,39.9 353.3,102.2 513.7,188.5 345.8,-304.8 707.2,-591.7 1082.3,-859.4 -1.3,-1.5 -2.5,-3 -3.8,-4.5 -135.7,-162.6 -239.4,-344.5 -322.3,-532 -41.2,-94 -76.1,-190.1 -105.6,-287.8 -10.4,-34.4 -20.2,-69 -29.2,-103.9 -7.8,2.2 -15.6,4.3 -23.4,6.4 -73,19.5 -146.7,36 -221.7,48 -104.3,16.7 -210.7,26.6 -318.4,26.6 -46.8,0 -93.8,-1.8 -141.1,-5.9 -155.5,-12 -313.2,-48.8 -460.9,-115.2 -147.9,-65.3 -284.1,-161.5 -394.3,-278.8 -41.1,-43.2 -79,-88.9 -113.7,-136.3 m 16798.7,502.7 c -51.5,62.1 -107.6,120.8 -167.9,175.2 78.7,45.4 156.9,91.6 234.6,138.6 240.2,145.1 475.1,297.3 704.7,456.4 -125.6,-142.6 -254.1,-282.6 -385.7,-419.9 l -3,-2.8 c -31.3,-29.6 -63,-58.9 -94.5,-87.9 l -4.1,-3.9 c -9.4,-9.3 -19.2,-18.2 -28.8,-27.1 l -14.2,-13.1 c -23.9,-21.9 -47.7,-43.5 -74.2,-67 l -5,-4.6 c -9,-8.3 -18.2,-16.8 -30.3,-27.5 -20.5,-18.6 -41.1,-36.8 -61.7,-55.1 l -33.6,-29.6 c -12,-10.5 -24,-21.1 -36.3,-31.7"
         style="fill:#d7b429;fill-opacity:1;fill-rule:nonzero;stroke:none"
         id="path52" /><path
         d="m 29224.2,13917.7 c 131.6,137.3 260.1,277.3 385.7,419.9 40.4,28 80.7,56.3 120.7,84.7 -17,-18 -34,-35.7 -50.8,-53.2 l -6.6,-6.9 c -14,-14.5 -28.3,-29.3 -45.5,-46.5 -40.4,-42.3 -81.3,-83.8 -122.7,-125.1 -2.7,-2.6 -5.1,-5.1 -7.1,-7.2 -10.4,-9.7 -20.8,-20.1 -30.5,-30.1 -14.2,-14.5 -28.6,-28.4 -42.9,-42.4 l -5.8,-5.6 c -17.3,-17.3 -34.6,-34.6 -52.6,-51.4 l -5.8,-5.7 c -6.9,-7.1 -14.1,-14.1 -21.3,-21 l -18,-17.6 4.2,4.1 c -3.3,-2.9 -6.6,-6 -9.8,-9.2 -24.3,-23.4 -48.6,-46.8 -71.4,-68.3 l -19.8,-18.5"
         style="fill:#d7c382;fill-opacity:1;fill-rule:nonzero;stroke:none"
         id="path54" /><path
         d="m 10506.7,32358.5 c -64.2,34 -133,59.1 -204,74.6 12.9,14.3 26.4,27.7 40,39.9 l 16.5,14.9 c 5.2,4.8 10.6,8.8 18.8,15.2 l 4.5,3.5 60.6,40.8 c 69.9,41.8 148,67.6 229.5,76.1 -56.2,-87.6 -111.7,-176.1 -165.9,-265"
         style="fill:#d7c382;fill-opacity:1;fill-rule:nonzero;stroke:none"
         id="path56" /><path
         d="m 25621.8,14393.9 c -130.6,59.6 -252.4,134.3 -360.9,224.2 -89.1,73 -169.1,156.2 -236.8,246.8 96.4,-13.5 213.9,-28.8 347.3,-44 5.2,-25.4 11.8,-50.7 19.8,-75.9 43.5,-137 124,-255.5 230.6,-351.1"
         style="fill:#b7952f;fill-opacity:1;fill-rule:nonzero;stroke:none"
         id="path58" /><path
         d="m 18473.2,17010.5 c 842.3,-134.5 1472.1,88.9 1406.7,499.1 -65.5,410.1 -801.4,851.6 -1643.7,986.1 -842.4,134.5 -1472.2,-88.9 -1406.7,-499 65.4,-410.1 801.3,-851.7 1643.7,-986.2"
         style="fill:#ffda22;fill-opacity:1;fill-rule:nonzero;stroke:none"
         id="path60" /><path
         d="m 17086.4,18994 c -160,-132.9 -274.9,-304.5 -288.9,-488.5 l -6.1,-68 5,-68.3 c 1.2,-11.3 0.5,-22.5 3.1,-33.8 l 7.8,-33.7 c 5.9,-22.4 8.2,-44.9 16.4,-66.8 17.1,-43.7 28.3,-88.2 52.6,-130 11.2,-21 19.3,-42.9 32.7,-63.1 l 39.1,-60.7 c 107.5,-160.6 257.7,-298.9 422.4,-415.6 165.2,-117.4 348.2,-213 539.4,-289.2 382.8,-151.7 802.3,-226.9 1210.9,-194.9 203.4,18.2 405.6,62.6 583.7,154 177.9,89.5 329.5,230.6 401.1,424.3 l 0.5,1.4 c 10.1,27 40.1,40.9 67.2,30.8 23.5,-8.6 37,-32.5 33.6,-56.4 -8.3,-58.5 -23.2,-117 -45.2,-173.3 -23.2,-55.5 -51.2,-110.1 -86.4,-159.6 -68.6,-100.7 -159.9,-183.7 -257.8,-253.2 -199.2,-135.9 -428.5,-215 -659.7,-253.1 -231.7,-40.6 -467.4,-39.3 -698.5,-12.6 -231.5,26.5 -458.1,84.4 -675.8,168.3 -217.6,83.9 -426,195.4 -615.5,337.3 -187.4,143.4 -362.1,314.2 -482.2,530.8 l -43.5,81.8 c -14.5,27.1 -24.3,57.6 -36.4,86.3 -25.6,56.7 -39.7,119.6 -54.8,180.8 -7.2,30.8 -8.3,63.7 -12.3,95.2 l -4.7,47.7 c -1.5,15.9 0.5,32.3 0.7,48.4 1.4,32.3 2.6,64.4 4.9,96.3 l 19.1,94.9 c 28.6,125.2 92.4,240.5 173,333.7 81.5,93.3 179.8,165.4 284.5,217.3 32.1,16 71.2,2.9 87.1,-29.3 13.7,-27.5 6,-60.1 -16.6,-78.9 l -0.4,-0.3"
         style="fill:#371a45;fill-opacity:1;fill-rule:nonzero;stroke:none"
         id="path62" /><path
         d="m 17898,16509 c 262.3,-91.4 526,-136.1 790.8,-138.1 264.3,-2.3 528.2,36.2 780.5,111.6 251.7,75.8 493.6,188 700.2,344.7 207.6,155 374.2,360.4 441.1,623.8 l 0.4,1.5 c 7.1,28.3 35.8,45.3 64.1,38.1 22,-5.5 37.2,-24.4 39.4,-45.7 15.5,-152.7 -18.9,-311.5 -83,-454.7 -65.3,-143.4 -160.7,-270.8 -270.9,-380.1 -222.2,-218.2 -498.8,-368.4 -789.1,-460.3 -290.8,-92.1 -600.9,-124.7 -903.9,-87 -301.7,37 -599.8,145.1 -833.4,333.8 -28.2,22.8 -32.5,64 -9.8,92.1 17.8,22.1 47,29.5 72.3,20.7 l 1.3,-0.4"
         style="fill:#371a45;fill-opacity:1;fill-rule:nonzero;stroke:none"
         id="path64" /><path
         d="m 26205.5,15929.6 c -603.1,-171.1 -967.6,-701.4 -814.3,-1184.6 153.4,-483.2 766.5,-736.3 1369.6,-565.2 603,171 967.6,701.4 814.3,1184.5 -153.4,483.2 -766.6,736.3 -1369.6,565.3"
         style="fill:#ffda22;fill-opacity:1;fill-rule:nonzero;stroke:none"
         id="path66" /><path
         d="m 20108,13201.6 c -10.3,-125.1 -36.7,-249.5 -80.4,-370.9 -308.4,-860.6 -1352.5,-1255.7 -2332.5,-882.3 -736,280.7 -1226.7,914.8 -1294.5,1577.2 l 3707.4,-324"
         style="fill:#ffda22;fill-opacity:1;fill-rule:nonzero;stroke:none"
         id="path68" /><path
         d="m 20172.4,13196.3 c 16.3,-466.8 -238.2,-943.6 -635.2,-1221.9 -196,-142.9 -423.6,-238.8 -658.5,-291.8 -235.4,-52.1 -479.1,-60.5 -716.2,-28.7 -475.1,61.2 -922.4,283.4 -1257.9,617 -169.8,164.6 -304.2,363.3 -403.6,574.9 -97.7,212.6 -151.2,445.1 -152.1,674.5 -0.2,28.9 23.1,52.4 52,52.5 25.1,0.1 46.1,-17.4 51.3,-40.9 l 0.2,-1 c 93.9,-420.2 332.4,-783.8 647.1,-1048.7 158.7,-130.9 333.1,-241.5 520.7,-323 187.7,-81.1 386.1,-135.7 586.9,-160.2 400.5,-49.8 816.7,22.9 1158.8,231.1 41.2,27.9 86.6,51.1 123.7,84.4 38.3,31.9 80.4,60.3 114.3,97 35.3,35.3 75,67.5 104.9,107.9 31.3,39.2 67.2,75.9 92.4,119.8 60.3,81.9 106,173.9 149.9,267.8 40.6,95.3 70.7,195.8 92.5,299.9 l 0.1,0.5 c 7.4,35.1 41.8,57.7 77,50.3 29.9,-6.3 50.7,-32.2 51.7,-61.4"
         style="fill:#371a45;fill-opacity:1;fill-rule:nonzero;stroke:none"
         id="path70" /><path
         d="m 11029,25794.3 c 71.5,360.2 83.1,773.4 21.4,1208.1 -185.1,1304.5 -960,2308.4 -1730.76,2242.4 -770.82,-66 -1245.64,-1177 -1060.57,-2481.5 185.07,-1304.4 959.95,-2308.4 1730.76,-2242.4 L 11029,25794.3"
         style="fill:#ffda22;fill-opacity:1;fill-rule:nonzero;stroke:none"
         id="path72" /><path
         d="m 9129.42,29137.9 c -196.09,-116.2 -347.02,-294.4 -456.34,-494.9 -109.46,-201.3 -180.52,-424.3 -228.94,-651.7 -48.02,-228 -70.58,-462.1 -77.41,-695.6 -2.91,-116.7 -1.15,-233.7 7,-348.5 4.35,-57.3 9.6,-114.2 18.88,-167.7 l 41.06,-169.9 c 28.03,-112.9 61.23,-224 96.7,-333.8 35.19,-109.8 73.76,-218.3 117.04,-324.4 85.24,-212.8 186.7,-418 308.58,-608 59.81,-95.8 125.92,-187.1 198.6,-271.7 70.61,-86.5 149.32,-165.2 233.98,-235.4 84.16,-71 176.52,-130.8 275.57,-177.7 99.87,-44.3 206.79,-75.1 321.19,-85.3 l 1.73,-0.2 c 28.94,-2.5 50.24,-28.1 47.64,-57 -2,-23.2 -19,-41.5 -40.48,-46.5 -125.83,-29.1 -261.8,-27.3 -391.05,1.8 -129.85,28.3 -251.87,83.7 -364.76,150.5 -112.53,68 -213.92,151 -307.77,240.1 -91.84,91.2 -174.75,189.8 -250.66,292.8 -150.05,207.5 -266.86,435.1 -355.71,671 -88.72,236.1 -149.37,481.5 -179.32,729.6 -9.28,61.7 -14.04,124 -18.5,186.2 -7.87,65.7 -11.82,128.9 -14.1,191.8 -4.22,125.6 -1.38,249.7 6.25,373.5 15.43,247.3 53.52,493 115.51,733.9 62.35,240.4 152.27,477.1 286.15,692 132.26,214.2 317.81,405.4 547.54,518.7 31.99,15.8 70.77,2.7 86.59,-29.3 15.07,-30.5 3.67,-67.2 -24.97,-84.3"
         style="fill:#371a45;fill-opacity:1;fill-rule:nonzero;stroke:none"
         id="path74" /><path
         d="m 11178,21511.8 c -464.6,103.1 -924.6,68.9 -1331.79,-127.4 -737.86,-355.7 -1092.39,-1139.2 -1098.31,-2088.4 -3.89,-622.7 160.07,-1306.9 505.39,-1965.5 871.71,-1662.6 2568.91,-2532.9 3790.81,-1943.9 454.7,219.2 779.5,609.5 963.3,1098.9 310,826 177,1911.1 -370.4,2955 l -2459,2071.3"
         style="fill:#ffda22;fill-opacity:1;fill-rule:nonzero;stroke:none"
         id="path76" /><path
         d="m 9846.22,21384.4 c -192.53,-114.8 -361.8,-260.9 -497.34,-431.1 -135.45,-170.2 -240.68,-361.3 -312.5,-564.2 -73.14,-202.4 -118.18,-414.3 -139.79,-628.4 -20.78,-214 -26.49,-431.2 -8.8,-645.2 7.97,-107.2 21.43,-214 39.51,-320 16.67,-106.2 39.38,-211.4 63.94,-316 52.86,-208.5 117.62,-414.1 199.49,-613.3 162.62,-398.3 378.12,-776.2 640.66,-1115.8 130.65,-170.4 273.51,-331.2 427.71,-479.7 153.1,-149.8 318.8,-286.2 494.1,-407.5 349.9,-242.7 743.1,-425.7 1158.2,-501.4 207.3,-39.7 419.1,-41.4 627.7,-17.3 207.8,28.1 413,90.4 600.6,191.3 189.1,98.1 359.4,234.6 505.4,396.6 145.7,162.7 265,351.4 362.3,553.1 -60.9,-215.5 -155.9,-424.1 -286.2,-613 -130.3,-188.8 -299.3,-353.5 -493.7,-484.1 -195.5,-129.2 -418.3,-217.9 -649.3,-269.4 -115.8,-23.4 -233.8,-39.3 -352.1,-41.8 -39.2,-2.6 -78.2,-1.7 -117.3,-0.8 -20,0.4 -40.1,0.9 -60.1,0.9 -58.7,5 -118.2,6.3 -176.5,14.8 -471,53 -914,242.9 -1304,496.3 -391.3,255.1 -729.73,582.6 -1013.34,948.8 -282.37,367.8 -509.3,775.9 -672.09,1209.1 -161.45,433.1 -259.88,892.7 -266.18,1356.6 -7.77,461.6 66.13,930.2 262.51,1352.2 101.15,208.5 233.3,403.1 398.58,563 164.44,160.4 359.12,286.3 568.54,366.3"
         style="fill:#371a45;fill-opacity:1;fill-rule:nonzero;stroke:none"
         id="path78" /><path
         d="m 26063.7,14124.1 c -329.8,5.5 -663.9,107.7 -948.1,299.2 -140.3,97.9 -268.6,217 -374.1,357.1 -103.4,141.4 -185,302.4 -230.1,476.8 -45.5,173.7 -55.6,359.3 -22.2,537.5 29.8,178.7 96.3,351.5 192.7,504.2 96.6,153.1 224.5,282.2 365.4,389.4 141.8,106 297.5,193.1 463.5,250.3 165.8,57 337.9,91.2 511.3,105 173.6,10.3 347.3,-1.2 517.4,-33.2 169.6,-36.4 334.6,-92.2 490.3,-168.8 155.6,-77.3 297.2,-181.7 422.6,-301.8 253.3,-237.5 420.7,-574.9 438.6,-923.4 8.1,-173.6 -16.8,-347.8 -80.3,-506.8 -31.5,-79.3 -69.9,-155.2 -116.2,-225.5 -45.2,-71.3 -103.7,-131.8 -156.9,-194.6 -18.5,-21.9 -51.1,-24.6 -73,-6.1 -19.8,16.7 -23.9,45.2 -10.6,66.6 l 4.1,6.7 c 40.3,65.4 85.2,126.9 115.9,195.9 32.7,67.7 58.6,137.9 77.3,209.5 17.9,71.7 30,144.2 34.1,217.2 0.5,73.2 1.5,145.8 -11.2,217.1 -40.5,285.9 -197,546 -416.6,732.1 -436.7,378.8 -1093.9,480.6 -1629.2,283.3 -266,-99.4 -508.8,-268.1 -659.7,-499.7 -152.9,-227.5 -213.7,-512.8 -157.8,-784.3 55.2,-272 223.2,-523.9 450,-709.7 227,-188.2 512.6,-309.7 815.1,-365.3 l 0.5,-0.1 c 35.2,-6.5 58.5,-40.3 52,-75.5 -5.8,-31.6 -33.6,-53.6 -64.8,-53.1"
         style="fill:#371a45;fill-opacity:1;fill-rule:nonzero;stroke:none"
         id="path80" /><path
         d="m 28264.7,16168.1 c 171.4,-274.7 259.9,-608.5 247.1,-943.3 -11.6,-335.7 -133.6,-666.1 -326.2,-942.8 -190.5,-280.4 -458.4,-499.9 -753.4,-656.6 -296.2,-156.5 -622.9,-250.5 -954.1,-280.7 -331.3,-30.1 -666.4,0.8 -985.4,92.1 -318.8,91 -621.2,243.6 -878,453.7 -257,208.3 -471.9,473.4 -603.4,777.4 -129.1,304.1 -175.5,642.9 -118.8,960.7 5.1,28.4 32.2,47.2 60.6,42.2 25.5,-4.6 43.3,-27 43,-52 v -1 c -3.9,-303.1 70.4,-597.6 210.9,-854.7 139.8,-258.1 347.8,-473.2 582.5,-644.3 237.6,-168.4 505.8,-294.5 789.1,-363.7 282.9,-69.2 578.2,-92.6 867,-63.8 288.6,28.7 571.7,108 828.7,238 257.3,128.4 489.1,308.8 663.3,534.9 l 64.6,85.4 c 20.3,29.3 36.9,60.8 55.7,91.1 17.1,31.1 39.6,59.9 52.2,93.3 l 44.7,97.2 c 17.1,31.7 27,66 38.3,99.9 l 34.5,101.9 22.2,105.3 c 6.8,35.3 16.5,70.4 19.7,106.4 40.2,286.7 -5.8,585.6 -119.8,864.5 -13.6,33.1 2.3,71 35.4,84.6 29.6,12.1 63.2,0.6 79.6,-25.7"
         style="fill:#371a45;fill-opacity:1;fill-rule:nonzero;stroke:none"
         id="path82" /><path
         d="m 19419.3,13261.8 -1341.8,117.2 c -172.6,269.2 -369.8,525.5 -598,757.5 l -106.6,106.4 c -22.9,22.3 -47.3,43.3 -71.7,64.2 195.7,229 490.9,340.4 815.4,340.4 51.1,0 102.9,-2.8 155.1,-8.3 587.4,-61.8 1265.3,-490.9 1157.1,-1313.8 -2.3,-21.3 -5.5,-42.5 -9.5,-63.6"
         style="fill:#d7b429;fill-opacity:1;fill-rule:nonzero;stroke:none"
         id="path84" /><path
         d="m 18550.8,12500.7 c -106.6,234.3 -224.4,464.3 -356.2,687.7 -37.7,64.1 -76.7,127.7 -117.1,190.6 l 1341.8,-117.2 c -10,-52.7 -25.3,-105.1 -46.2,-156.7 -131.1,-324.4 -448.7,-541.8 -822.3,-604.4"
         style="fill:#d7b429;fill-opacity:1;fill-rule:nonzero;stroke:none"
         id="path86" /><path
         d="m 17121.9,13423.3 c 35.9,-390.9 342.7,-760.4 810.3,-918 622.7,-209.7 1295.2,35.7 1502.1,548 29.4,72.4 47.7,146.2 55.7,220.3 -146.5,274.5 -418.3,506 -775.2,626.4 -632.5,212.9 -1311.7,0 -1592.9,-476.7"
         style="fill:#ffda22;fill-opacity:1;fill-rule:nonzero;stroke:none"
         id="path88" /><path
         d="m 18635.6,14631.2 c 251.8,-69 487,-216.5 665.8,-422.2 88.1,-103.7 162.1,-221.8 215.4,-351.2 52.4,-129.5 82.3,-270.7 85,-414.5 4.4,-142.6 -21.8,-291.3 -79.4,-424.8 -54.6,-135.2 -138.2,-259.8 -241.7,-363.2 -210.3,-205.3 -491.6,-319.3 -772.7,-343.9 -141,-10.9 -282.5,-2.2 -419.6,25.7 -136.7,29.4 -268.7,76.1 -391.6,140.5 -245.6,128.2 -458.5,323 -594.9,565.7 -137.4,240.2 -196.6,532.3 -138.8,805.1 29.6,135.3 84.3,264.2 164,374.5 78.6,110.8 180.2,202.2 292.9,269.1 24.9,14.7 56.9,6.5 71.7,-18.3 12.9,-21.8 8.2,-49.3 -10.1,-65.6 l -0.3,-0.2 c -176.5,-158.4 -285.5,-372.4 -303.2,-593.2 -21,-220.1 49,-439.3 169.2,-621.7 123.8,-181.1 297.2,-328.1 496.2,-420.2 24.5,-12.3 49.9,-22.6 75.7,-32.1 25.2,-10.7 51.2,-19.3 77.4,-27 26.3,-7.5 51.8,-17.9 78.4,-23.3 l 79.7,-17.6 c 107.1,-17.8 215.3,-24.3 321.9,-14.8 212.4,21.2 416.2,104.1 566.3,243.7 74.4,70.1 134.1,153.8 176.9,246.7 46,92.5 68.8,193.2 74.2,298.7 6,104.6 -9,211.7 -41,315.6 -31,104.3 -80.2,205.2 -144,297.8 -125.3,187.9 -308.2,340.1 -519.4,450 l -1.1,0.6 c -31.8,16.5 -44.2,55.7 -27.7,87.5 14.4,27.6 45.9,40.6 74.8,32.6"
         style="fill:#371a45;fill-opacity:1;fill-rule:nonzero;stroke:none"
         id="path90" /><path
         d="m 12079.5,16022.3 c -692.7,0.1 -1475.8,410.5 -2052.6,1151.4 -874.92,1123.9 -944.47,2582.5 -155.33,3258 268.83,230.1 602.53,339.6 960.43,339.6 692.7,0 1475.8,-410.5 2052.6,-1151.4 874.9,-1123.9 944.5,-2582.5 155.3,-3258 -268.8,-230.1 -602.5,-339.6 -960.4,-339.6"
         style="fill:#d7b429;fill-opacity:1;fill-rule:nonzero;stroke:none"
         id="path92" /><path
         d="m 12172.1,18915.4 c -810.2,894.6 -1897.3,1173 -2428.01,621.8 -530.75,-551.2 -304.21,-1723.2 506.01,-2617.7 810.2,-894.6 1897.3,-1173 2428,-621.8 530.8,551.2 304.2,1723.2 -506,2617.7"
         style="fill:#ffda22;fill-opacity:1;fill-rule:nonzero;stroke:none"
         id="path94" /><path
         d="m 11667.5,16071.7 c 230,-38 464.4,-33.6 681.7,25.1 217.2,58.3 415.4,172.7 571.1,327.8 157.1,154.3 273.3,348.6 345.6,559.5 73.4,210.5 111,435.5 113,662.2 5.8,453.8 -106.2,910.3 -303.1,1324.3 -193.1,416.6 -469.8,795.2 -811,1097 -338.5,302 -753.7,524.8 -1188.7,584.8 -216.6,30 -436.6,11.5 -638.1,-60.5 -201.3,-72.3 -384,-194.7 -525.86,-359.8 -143.21,-164.2 -245.12,-366.8 -310.94,-582.6 -66.43,-216.2 -94.38,-446.6 -93.19,-678 1.61,-464.3 122.65,-930 319.8,-1362.2 l 0.15,-0.2 c 11.93,-26.2 0.39,-57.1 -25.78,-69.1 -24.47,-11.1 -53.16,-1.6 -66.55,21 -248.08,421.5 -410.55,902 -445.1,1402.7 -16.87,250.1 1.46,505.1 63.16,754 60.21,248.8 171.44,491 337.21,697.9 164.84,206.9 387.4,374.3 638.4,469 250.6,96.7 524.5,124.9 785.8,95.2 262,-28.7 513.4,-109.9 743.7,-224.4 115.4,-57.3 226.3,-122.1 332.5,-193.4 105.5,-72.2 206.4,-150.4 302.8,-233.5 383.9,-335.1 681.8,-756.8 892.6,-1214.7 104.5,-229.9 183.4,-471.7 236.6,-719.5 51.8,-248 77.3,-503.1 63.2,-758.5 -12.2,-255 -62.5,-510.7 -158.5,-751.6 -96.6,-240 -245.6,-463.9 -442.4,-637.8 -197.6,-172.3 -440,-291.3 -693.4,-338.7 -126.7,-23.3 -255,-31.4 -381.5,-24.2 -126.6,7.1 -250.8,30.1 -371.2,62 -34.5,9.2 -55.1,44.6 -45.9,79.1 8.6,32.4 40.3,52.5 72.7,47.3 l 1.2,-0.2"
         style="fill:#371a45;fill-opacity:1;fill-rule:nonzero;stroke:none"
         id="path96" /><path
         d="m 9935.92,25390.4 c -44.9,0 -90.98,5.5 -137.96,16.6 -283.56,67.1 -543.14,330.5 -725.59,692.9 -155.5,309.2 -254.7,691.5 -264.49,1086.4 -19.44,780.8 317.87,1342.9 775.06,1342.9 44.9,0 90.98,-5.4 137.96,-16.6 23.9,-5.6 47.77,-12.7 71.26,-21.4 494.14,-176.7 898.84,-939.5 918.84,-1757.9 19.4,-780.7 -317.9,-1342.9 -775.08,-1342.9"
         style="fill:#d7b429;fill-opacity:1;fill-rule:nonzero;stroke:none"
         id="path98" /><path
         d="m 10458.4,26623.4 c -281.8,629.5 -784.23,986.8 -1122.29,798 -338.04,-188.7 -383.69,-852 -101.93,-1481.5 281.76,-629.5 784.22,-986.7 1122.22,-798 338.1,188.8 383.7,852.1 102,1481.5"
         style="fill:#ffda22;fill-opacity:1;fill-rule:nonzero;stroke:none"
         id="path100" /><path
         d="m 10584,26182.1 c 25.2,268.5 8.3,538.4 -51.3,798 -54.5,260 -148.8,509.6 -279,731.2 -67.8,108.7 -143.2,211 -229.3,297 -85.6,85.7 -182.46,155.5 -281.4,190.4 -98.54,36.1 -195.95,35.4 -284.18,1.9 -88.61,-33.1 -169.73,-105.2 -235.43,-198.9 -65.89,-93.8 -114.26,-207.6 -150.66,-326.4 -36.23,-119.2 -59.27,-245.4 -69.95,-373.9 -8.22,-63.9 -6.61,-129 -9.81,-193.8 3.2,-65 1.02,-130.4 8.91,-195.4 8.81,-130.7 31.03,-260.4 57.79,-389 31.08,-127.5 70.12,-253.1 119.19,-374.7 50.32,-120.8 111.31,-236.9 183.82,-344.7 73.11,-106.9 160.81,-202.8 262.12,-277.9 101.42,-74.3 219.81,-124.3 346.76,-127.2 l 1.49,-0.1 c 28.85,-0.6 51.65,-24.6 51.05,-53.4 -0.6,-25.5 -19.4,-46.3 -43.65,-50.3 -152.3,-25.3 -311.36,15.5 -444.19,88.4 -134.65,72.6 -247.49,175.5 -345.65,287.3 -96.18,113.7 -175.23,239.3 -244.47,369.4 -68.89,130.6 -119.5,269 -164.23,409 l -28.71,106.3 c -10.08,35.5 -18.7,71.2 -25.39,107.3 l -21.92,108.2 -14.65,109.4 c -11.6,72.8 -12.92,147 -19.19,220.7 0.12,74.2 -4.2,148.3 1.83,223 5.27,149.1 29,299 70.16,446.7 40.92,147.7 101.11,294 193.39,429.5 91.16,134.5 223.9,260 396.58,325.7 171.65,67.4 369.75,56.9 530.23,-6.9 162.06,-63.7 291.36,-167.9 397.36,-282.3 106,-115.3 190.9,-242.6 260.9,-375.4 67.9,-133.6 122.3,-271.7 165.3,-412.5 37.6,-142.1 70.2,-285 84.9,-430 32.2,-288.5 18.6,-583.9 -61.9,-861.8 -10,-34.4 -46,-54.2 -80.4,-44.2 -30.4,8.8 -49.3,37.9 -46.5,68.3 l 0.1,1.1"
         style="fill:#371a45;fill-opacity:1;fill-rule:nonzero;stroke:none"
         id="path102" /><path
         d="m 8386.4,30044.8 h 0.5 -0.5 m 19064.1,-17536 -1.1,-0.7 1.1,0.7 m -2870.3,-1434.2 -0.1,-0.1 0.1,0.1 m -949.7,-297.2 -0.2,-0.1 0.2,0.1 m -13248,21729.2 -4.5,-3.5 c -8.2,-6.4 -13.6,-10.4 -18.8,-15.2 l -16.5,-14.9 c -14.6,-13.1 -29,-27.5 -42.7,-43 -34.3,-38.3 -68.6,-76.6 -102.3,-114.9 -73,-83 -138.3,-158.8 -199.77,-231.8 -104.44,-124.6 -199.37,-241.6 -289.99,-357.6 -52.1,-66.8 -103.71,-133.5 -154.44,-201.3 -47.71,-63.6 -95.02,-127.5 -141.41,-191.5 -81.34,-111.9 -161.62,-226.1 -238.72,-339.5 -226.86,-334.5 -440.24,-682.1 -634.08,-1033 l -0.25,-0.4 c -29.34,-52.9 -58.54,-106.4 -87.11,-159.7 -56.1,-104.7 -111.81,-212.4 -165.52,-320 -37.99,-75.3 -74.66,-150.2 -110.89,-225.8 -84.92,-178.4 -165.53,-357.3 -239.51,-531.5 -15.72,-36.6 -30.71,-72.4 -45.31,-108.5 -69.38,-167.2 -138.09,-343.4 -204.74,-525.2 -30.61,-83.9 -60.35,-168.3 -89.35,-253.1 -121.14,-353.8 -227.88,-715.6 -317.38,-1075.5 -11.67,-45.7 -22.66,-90.8 -33.11,-135.8 -44.67,-187.5 -84.67,-373.1 -119.09,-552.7 -9.13,-46.6 -17.92,-92.1 -25.88,-138 -3.61,-18.1 -6.01,-32 -8.44,-45.8 l -4.26,-23.9 c -5.07,-29.2 -10,-57.6 -14.74,-85.6 -34.37,-202 -64.35,-407.7 -89.16,-611.8 -3.95,-30.4 -7.13,-59 -10.35,-87.7 l -0.73,-6.6 c -7.23,-60.8 -13.67,-120.2 -19.58,-179.5 l -9.96,-106.2 c -21.49,-230.4 -36.87,-465.5 -45.75,-698.9 -2.06,-48.3 -3.82,-95.7 -4.84,-143.5 l -2.78,-112.1 c -0.35,-17.7 -0.69,-35.4 -0.84,-53 -0.88,-42.6 -1.07,-82.6 -1.31,-122.8 l -0.15,-24.6 c -0.39,-48.5 -0.1,-96.8 0.15,-145.2 0.29,-48.6 0.92,-97.4 1.85,-145.8 0.64,-49.8 1.91,-98.4 3.13,-147 1.32,-48.4 3.12,-96.7 5.18,-145.7 1.85,-50.8 4.05,-100.4 6.53,-150.4 l 1.82,-32.6 c 2.04,-36.8 4.09,-73.5 6.44,-110.7 3.32,-52.1 6.6,-104.2 10.5,-156 7.08,-95.4 15.18,-191.3 24.16,-286.7 9.43,-98.5 20.12,-197.1 31.5,-296.1 11.82,-100.2 24.71,-199.9 38.19,-295.9 19.18,-136.2 38.32,-260.4 58.59,-379.9 19.53,-115 42.18,-238 69.33,-376 C 8382.7,14751.4 13818.5,10310 20129.2,10309.7 c 91.8,0 183.2,0.9 275.4,2.8 l 39.6,1 c 35.6,0.8 71.2,1.7 106.8,2.9 49,1.6 97.8,3.2 146.6,5.5 l 40.5,1.9 c 35.9,1.7 71.5,3.4 107.3,5.3 l 48.8,2.8 c 32.8,1.9 65.5,3.8 98.5,6 38.5,2.3 75.6,5.1 112.8,7.9 l 35.9,2.7 c 48.7,3.5 97.5,7.4 146.2,11.9 l 16.4,1.5 c 7.1,0.7 14.1,1.3 21.2,1.8 30.4,2.8 65,6.1 99.1,9.6 l 31.4,3 c 21.1,2.1 42.2,4.1 63.4,6.5 17.3,1.8 34.3,3.6 51.4,5.4 l 3.3,5 99.8,6.7 c 35.8,4.2 73.2,8.8 110.7,13.4 l 10.6,1.4 c 19.2,2.3 37.7,4.7 56.1,7.2 l 31.1,4.2 c 22.8,3 46.1,6.1 69.8,9.7 25.2,3.2 47.4,6.3 69.3,9.3 l 9.1,1.5 c 26.1,3.9 48.6,7.2 71.4,10.9 l 10.3,1.4 c 6.7,0.6 13.3,1.7 20.4,3.1 l 7.2,1.2 c 26.5,3.9 53.6,7.8 80.4,12.1 15.8,2.4 27.3,4.2 39.2,6.6 l 8.5,1.4 c 21.6,3.2 42.8,6.5 64.5,10.6 l 83.3,14 c 38.6,6.8 78.7,13.9 119.1,21.4 l 95.4,17.8 c 50.8,9.7 101.9,19.7 152.5,30 l 18,3.9 c 55.7,10.9 111.5,22.7 167.5,34.9 36.7,8 73.3,16.2 109.8,24.4 l 111.2,25.7 c 36.9,8.8 73.8,17.6 110.5,26.6 l 60.3,15.2 c 23.6,5.6 46.6,11.1 69.1,17.4 l 10.6,2.5 c 6.5,1.4 12.8,2.9 18.9,4.7 l 51.3,13.5 c 6.3,1.8 12.9,3.5 19.4,5.1 19.8,5 40.6,10.6 61,16.3 l 6.4,1.7 c 10.1,2.5 20,5.1 30,8 l 7.6,2 c 0.8,0.3 0.6,0 -0.5,-0.4 l 20.5,6.2 c 9.6,2.3 19.3,4.9 28.5,7.4 13.9,3.6 25.9,7.1 37.6,10.7 l 5.8,1.7 c 18.8,5 36.9,9.9 54.9,15.4 l 15.3,4.3 c 7.6,2 15.2,4.3 22.7,6.5 l 15.7,4.5 c 27.8,7.7 53.8,15.4 79.8,23.2 l 48.9,15 c 21,6.2 42,12.5 62.9,18.9 l 31.2,9.4 c 17.4,5.4 33.1,10.4 48.6,15.5 l 28.3,8.8 c 23.2,6.8 46.2,14.1 69.3,21.5 l 57.2,19 c 34.3,10.9 66.3,21.4 97.9,32.1 19.3,6.6 39,13.3 58.6,19.7 l 36.6,12.4 c 43.6,15.2 87.5,30.5 131.1,46 h 0.1 l 87,39.9 7.7,-5.6 c 77.2,27.8 153.2,56.4 228.6,85.4 53.3,20.4 106.3,41.3 158.8,62.4 29.5,11.8 58.6,23.4 87.5,35.6 l 5.8,2.3 c 8.7,3.3 17.6,6.9 26.3,10.7 l 8.8,3.6 c 5.9,2.2 11.7,4.6 17.5,7.2 l 5.4,2.4 c 26.1,10.7 51.9,21.6 77.6,32.5 l 4.7,2 c 39.4,16.4 77.7,32.8 115.7,49.5 37.1,15.7 71.7,31.2 106.3,46.7 l 8.7,3.6 c 2.2,0.8 4.5,1.8 6.7,2.8 l 4.7,2.2 c 43.6,19.6 87.1,39.2 130.5,59.4 l 31.6,14.6 c 32.1,14.8 64.1,29.5 96.2,44.9 23.8,11 45.3,21.3 66.9,32 l 5.7,2.7 c 21.4,10.1 42.8,20.2 63.8,30.6 l 13.3,6.8 c 41.6,19.9 83.1,40.3 123.8,61.3 111.9,55.5 225.5,114.5 349.3,181.3 106.9,57.7 194.5,106.3 275.4,153.1 l 30.2,17.4 c 32.7,18.7 65.3,37.3 97.7,56.3 8.3,4.7 13.8,7.8 19.2,11.1 l 136.6,81.9 c 39.9,24.2 79.8,48.3 119.4,72.7 24.9,14.9 47,29.2 69.3,43.5 43.3,26.8 83.4,52.6 123.5,78.5 l 8.4,5.2 c 10.7,6.4 20.7,13.1 31,20 31.7,20.4 59.5,38.6 87.3,56.8 l 41.8,28 c 35.2,23 70,46.3 104.6,70.1 l 4.7,3.1 c 7.5,4.8 15.2,9.8 22.3,15.2 l 44.8,30.9 c 36.2,25 72.4,50 108.7,75.6 14.5,9.9 26.2,18 37.7,26.4 41.4,29 79.3,56.6 117.4,84.1 l 37.7,27.4 c 20.3,14.6 40.4,29 60.1,44.1 16.2,11.8 28.5,21 41.1,30.5 l 11.2,8.2 c 7.7,5.8 15.5,11.4 23.1,17.3 l 13.6,10.3 c 13.6,10.1 27,20.2 40.4,30.6 38.8,29.3 75.1,57.1 111,85.2 l 4.7,3.5 c 10.2,7.4 20.1,15 29.8,23.1 l 5.6,4.4 c 31.9,24.3 63.3,49.6 94.7,74.7 28.4,22.4 55.4,44.2 82.5,66.4 l 77.3,62.8 c 9.6,7.5 15.8,12.8 22.1,18.2 l 106.8,89 c 39.6,33.4 76.1,64.1 111.9,95.3 l 33.3,29 c 22.2,19.1 43.1,37.4 63.9,55.6 l 33.6,29.6 c 20.6,18.3 41.2,36.5 61.7,55.1 12.1,10.7 21.3,19.2 30.3,27.5 l 5,4.6 c 26.5,23.5 50.3,45.1 74.2,67 l 14.2,13.1 c 9.6,8.9 19.4,17.8 28.8,27.1 l 4.1,3.9 c 31.5,29 63.2,58.3 94.5,87.9 l 22.8,21.3 c 22.8,21.5 47.1,44.9 71.4,68.3 3.2,3.2 6.5,6.3 9.8,9.2 l -4.2,-4.1 18,17.6 c 7.2,6.9 14.4,13.9 21.3,21 l 5.8,5.7 c 18,16.8 35.3,34.1 52.6,51.4 l 5.8,5.6 c 14.3,14 28.7,27.9 42.9,42.4 9.7,10 20.1,20.4 30.5,30.1 2,2.1 4.4,4.6 7.1,7.2 41.4,41.3 82.3,82.8 122.7,125.1 17.2,17.2 31.5,32 45.5,46.5 l 6.6,6.9 c 23.4,24.3 47.1,49.1 70.7,74.4 l 13,13.6 c 35.2,36.9 69.8,74.3 104.6,112 4.1,4.4 8.1,8.6 11.9,13.2 l 13.2,14.3 c 6.1,5.9 11.7,12.1 17.3,18.6 l 3.9,4.4 47.2,51.7 c 16,17.6 32,35.2 47.4,53.2 l 7,7.9 c 11.8,12.3 23.1,25.3 34.3,38 20.7,23.5 39,44.4 56.8,65.2 l 4,4.5 c 6.9,7.6 14.1,15.4 20.5,23.3 l 43.3,50 c 15,17.4 30,34.8 44.7,52.4 l 39.7,46.7 c 17.6,20.9 35.2,41.7 52.6,62.8 l 0.4,0.7 48.2,58.1 c 8.9,10.3 15.5,18.5 22.2,26.7 157.1,191.6 308.4,387.4 452.3,584.7 69.7,94.9 143.4,198.8 225.7,318.4 l 2.1,3 c 31.2,46.1 62.4,92.1 93.3,138.4 35.1,52.3 69.3,104.8 103.3,156.9 29.7,46 59.7,93.3 89.6,140.5 285.7,452.9 547.8,931.2 778.9,1421.5 47.5,100.3 97,209 151.4,332.9 73.7,168.7 144.2,339.6 209.5,507.4 22.1,56.8 43.8,113.9 65.1,171.1 46.2,123.8 86.6,236.8 123.6,345.6 3.7,10.5 6.3,19.1 8.9,27.6 2.4,8.3 4.7,16.5 6.5,24.7 22.2,90.7 24.1,177.6 6.4,262.1 -23.4,110.2 -79.6,212.6 -162.5,295.9 -61.8,61.6 -137.8,110.8 -219.3,141.9 -47.2,17.9 -96.9,29.5 -147.4,34.5 l -16.3,1.6 c -20.9,1.5 -40.1,1.7 -58.4,0.8 l -6.2,-0.2 c -11.9,-0.2 -23.8,-1.1 -35.7,-2.4 -82,-8.9 -162.1,-36.1 -238.1,-80.7 l -140.7,-81.8 c -60.5,-34.9 -121.3,-68.7 -182.3,-102 l -113.2,-62 c -34.4,-18.7 -68.4,-36.5 -102.3,-54.3 l -43.6,-22.9 c -932.9,-487.6 -1923.5,-866 -2944.7,-1124.7 -55,-13.9 -110.4,-27.9 -165.7,-40.8 -54.5,-13.1 -109.9,-26.4 -166,-38.8 -54.4,-12.5 -109.9,-24.5 -165.4,-36.5 -337.3,-72.2 -679.9,-132.1 -1019,-178.4 -61,-8.3 -121.7,-15.9 -182.5,-23.6 -71.6,-8.9 -138.5,-16.5 -205.1,-23.7 -2.3,-0.3 -4.7,-0.6 -6.9,-0.8 -67.1,-7.4 -133.7,-13.9 -200.3,-19.9 -62.6,-5.8 -125.1,-11.1 -187.6,-16.4 -112.2,-8.5 -219.4,-15.5 -320.5,-20.9 -83.1,-4.8 -166.5,-8.8 -250.3,-11.7 -30.5,-1.1 -61.1,-2.3 -91.6,-3.1 -49.4,-1.5 -99.9,-2.8 -149.9,-3.3 -22.1,-0.5 -46.3,-1.1 -70.9,-1.4 l -44.5,-0.4 c -30.1,-0.3 -59.7,-0.7 -90.3,-0.6 -768.8,-2.5 -1544.8,61.2 -2303.4,190.4 -3240.9,550.7 -6179.2,2263.8 -8273.5,4823.8 -1286.4,1572.7 -2183.7,3368.5 -2667,5337.3 l -7,28.5 c -4.8,19.5 -9.6,39 -14.2,58.5 -10.5,43.9 -20.6,88.2 -30.8,132.6 -19.2,85.1 -38.3,170 -56,255.5 -13.2,63.5 -26.2,128.2 -38.4,193.1 -11.2,56.7 -22.1,114.3 -32.2,172.4 -2.6,12.7 -4.8,25.5 -6.8,38.3 -7.7,42.7 -15,85.7 -22.2,129.1 -4.9,28.8 -9.9,59.2 -14.5,89.3 -8,47.6 -15.5,97.6 -22.9,147.6 l -3.2,21.7 c -6.6,43.5 -12.2,84.7 -18,126 l -8.1,59.6 c -13.7,102.2 -27,212.6 -40.4,334.5 -5.3,46.1 -10.2,92.6 -14.4,139.3 -4.5,43.8 -8.7,88.9 -12.4,134.2 -23.1,258.7 -38.9,523.2 -46.6,784.4 -1.4,46.7 -2.7,92.8 -3.3,139.1 -2,72.7 -2.7,147.8 -3.1,222.7 -0.3,43.2 -0.4,86.2 0.1,129.4 -0.1,67.5 0.9,137 2.5,206.7 0.2,13.4 0.3,28.2 -0.5,43.1 -14.2,313.2 -245,504.5 -467.6,555.7 -24.7,5.7 -48.5,9.8 -71,12.1 l -28.6,1.7 c -115.9,7 -228.6,-20.2 -325.5,-78.2 l -60.6,-40.8 m 11304.1,-22293 0.5,-0.4 -1.9,12.2 1.4,-11.8 m -1546.9,-253.1 c -3068.7,0 -6074.5,1056.9 -8493.4,2991.8 -2501.69,2001.2 -4221.71,4822.4 -4843.29,7944.1 -27.78,141.4 -51.03,267.4 -71.05,385.4 -20.8,122.7 -40.47,250.1 -60.15,389.6 -13.82,98.6 -27.01,200.9 -39.21,304.2 -11.72,101.7 -22.62,202.5 -32.28,303.5 -9.23,98 -17.53,196.2 -24.75,293.7 -4.01,53 -7.42,106.5 -10.75,159.9 -2.44,38 -4.53,75.6 -6.64,113.5 l -1.85,33.4 c -2.64,52.4 -4.83,103.6 -6.79,155.2 -2.05,50 -3.95,100.1 -5.27,150.3 -1.33,50.2 -2.59,100.4 -3.23,150.6 -0.92,48.8 -1.56,99.1 -1.85,149.2 -0.34,50.1 -0.63,100.2 -0.15,149.9 l 0.1,23.9 c 0.25,42.1 0.49,84 1.37,125.8 0.09,16.5 0.48,35.7 0.83,54.9 l 2.83,114.8 c 1.08,48.3 2.93,98 5.03,148 9.08,239.1 24.9,480.6 46.93,717 l 10.1,107.5 c 6.2,62.7 12.94,124.3 20.32,186.1 l 0.53,5.3 c 3.46,30.9 6.94,61.7 10.98,92.7 25.25,208 56.06,419.3 91.27,626.4 4.78,28.3 9.81,57.4 14.89,86.5 l 4.49,25.2 c 2.93,16.6 5.86,33.3 9.18,49.7 7.57,43.8 16.75,91.7 26.22,140 35.26,184.1 76.36,374.8 122.03,566.2 10.68,46.3 22.36,93.8 34.36,141.1 91.66,368.6 201.33,740.2 325.65,1103.4 29.78,87 60.3,173.5 91.79,259.9 68.45,186.7 138.92,367.5 209.61,537.8 14.99,37.1 30.97,75.3 47.37,113.3 75.49,177.9 158.2,361.4 245.41,544.6 37.35,78.2 75.1,155.2 113.87,232.1 54.88,109.9 112.16,220.6 169.88,328.3 29.49,55 59.47,109.9 89.69,164.3 198.93,360.1 417.82,716.8 650.63,1060 79.3,116.6 161.67,233.8 245.02,348.4 47.42,65.5 95.9,130.9 144.54,195.8 51.95,69.5 105.02,138.1 158.68,206.9 93.22,119.2 190.63,239.3 297.86,367.2 63.32,75.3 130.27,153 204.98,237.9 34.37,39.1 69.32,78.2 104.02,116.9 21.5,24.2 44.5,47.3 68,68.6 6.3,6 12.8,11.8 19.2,17.3 10.1,9 20.3,17.2 30.7,25.4 5.5,4.8 11.3,9.2 17.5,13.5 5.1,3.8 10.3,7.6 15.4,11.3 l 14.5,10.6 c 7.9,5.6 16,10.7 24.1,15.6 l 12.1,7.9 c 6.3,4.1 12.5,8.2 18.8,12 l 6.7,3.9 c 156.7,93 337.6,136.2 522.2,125.5 2.5,0.1 7,-0.1 11.7,-0.5 l 29,-2.1 c 38.1,-3.7 77.6,-10.3 117.5,-19.6 421.7,-97.1 718.3,-450.3 737.7,-878.9 1.2,-21.3 1.2,-43.6 0.9,-66.4 -1.6,-68.7 -2.5,-135.5 -2.4,-202.4 -0.5,-43.2 -0.4,-84 -0.1,-125.5 0.3,-72.7 1.1,-145.3 3,-217.6 0.7,-46.6 1.9,-90.9 3.2,-135.8 7.6,-254.3 22.9,-511.8 45.5,-765.3 3.6,-44.5 7.6,-87.1 12,-129.9 4.2,-45.9 8.9,-90 13.9,-134.3 13.2,-119.9 26.1,-227.6 39.8,-329.8 1.1,-7.6 1.7,-12.3 2.2,-16.3 l 5.4,-39.1 c 5.5,-39.8 11,-79.6 17,-119.4 l 3.3,-22.2 c 7.5,-50.5 14.6,-98.3 22.6,-146.1 4.7,-30.5 9.3,-58.7 14.1,-86.5 7.1,-43 14.2,-84.3 21.7,-125.9 l 0.9,-5.4 c 1.3,-8.4 2.6,-16.7 4.4,-25 l 1.2,-6.7 c 9.9,-56.5 20.5,-112.6 31.5,-168.9 12.1,-63.8 24.6,-126.3 37.5,-188.1 17.3,-83.7 35.9,-166.4 54.6,-249.1 9.8,-42.9 19.7,-86.1 30,-129.2 4.4,-18.7 8.9,-37.1 13.5,-55.5 l 7.2,-29.2 c 470.7,-1917.8 1344.8,-3667.1 2598,-5199.2 2040.9,-2494.7 4904,-4164.1 8061.8,-4700.7 738.8,-125.8 1494.5,-187.6 2244.4,-185.4 29.2,-0.4 58.2,0.2 87,0.5 l 44.7,0.5 c 22.6,0.2 45.5,0.8 68.6,1.3 49.8,0.5 98,1.8 145.8,3.3 29.9,0.7 59.2,1.8 88.5,3 82.2,2.8 162.9,6.7 244,11.3 99.1,5.3 203.8,12.2 311.8,20.3 60.1,5.1 122,10.4 184,16.1 65.3,5.9 130.1,12.3 195.5,19.5 l 0.8,0.1 c 1.9,0.2 3.8,0.4 5.6,0.6 64.7,7 129.6,14.4 194.3,22.4 63.7,8 123.1,15.5 183,23.7 330.4,45 664.4,103.5 992.8,173.8 53.8,11.6 108,23.4 162.1,35.7 54.9,12.2 108.6,25.1 162.1,38 54.4,12.7 107.8,26.1 160.6,39.5 994.7,252 1959.8,620.6 2868,1095.4 l 43.9,23 c 32.4,17 64.9,34 97,51.5 l 112.8,61.7 c 59.1,32.2 117.5,64.8 175.5,98.2 l 140.3,81.6 c 117.2,68.7 244.1,111.3 375.3,125.6 21.3,2.3 42.9,3.9 64.4,4.4 39.6,2 80.1,0.8 123.8,-3.5 l 43.1,-5.5 c 66.4,-9.7 131.6,-26.5 194.6,-50.4 127.3,-48.6 245.4,-125.1 342.2,-221.5 131,-131.6 219.8,-294.2 257.2,-470.8 28.6,-136.4 25.9,-275.5 -8.1,-413.7 -2.6,-11.9 -6.7,-27.6 -11.1,-42.5 l -1.5,-5 c -4,-13.2 -8.1,-26.3 -12.9,-39.7 -37.4,-110 -78.9,-226.1 -126.1,-353 -21.9,-58.8 -44.3,-117.5 -67,-175.8 -67,-172.3 -139.4,-347.5 -215.1,-520.9 -55.9,-127.4 -106.7,-239.1 -155.6,-342.1 -236.9,-502.7 -505.9,-993.7 -799.4,-1458.9 -30.7,-48.4 -61.2,-96.5 -91.8,-143.9 -35.3,-54.1 -70.4,-108 -106.1,-161 -30.9,-46.5 -62.7,-93.3 -94.4,-140.2 l -2.8,-4.1 c -85.1,-123.5 -160.8,-230.3 -232.3,-327.5 -147.2,-202.1 -302.7,-403.3 -461.7,-597.2 -10.6,-13 -19.5,-23.9 -28.8,-34.5 l -47.9,-58.1 c -17.2,-20.9 -34.7,-41.5 -52.1,-62.2 -4.3,-5.2 -8.3,-9.9 -12.6,-14.5 l -25.7,-30.5 c -16.1,-19.2 -32.2,-38 -48.4,-56.8 l -39.1,-44.9 c -9.5,-11.6 -19.7,-23.1 -29.9,-34.2 -18.1,-21.2 -36.8,-42.6 -55.6,-63.9 -15.4,-17.6 -29.1,-33.1 -43.1,-47.9 -17.2,-20.1 -35,-39.7 -52.6,-58.9 l -45.1,-49.5 c -10.2,-11.9 -20.6,-23.2 -31.5,-34.2 -6,-6.9 -12.1,-13.5 -18.2,-20.1 -36.1,-39.1 -72.1,-77.9 -108.8,-116.4 -4.3,-5.1 -9.4,-10.6 -15.4,-16.3 -22.9,-24.4 -45.9,-48.4 -68.9,-72.4 l -7,-7.2 c -15.5,-16.1 -31.3,-32.4 -47.2,-48.2 -39.7,-41.7 -82.9,-85.6 -126.5,-129.1 l -3.8,-3.7 c -3.4,-3.5 -6.9,-7.1 -10.6,-10.5 -7.2,-6.7 -13.4,-13 -19.5,-19.3 -16.4,-16.7 -32.4,-32.3 -48.5,-48 l -4.3,-4.2 c -17.6,-17.6 -36.6,-36.4 -56.3,-55 -8.5,-8.6 -17.3,-17.2 -26.1,-25.7 l -12.6,-12.2 c -1,-1.1 -4.8,-4.7 -8.9,-8.4 l -1,-1 c -25.7,-24.8 -51.5,-49.6 -77.5,-74.1 l -22.8,-21.4 c -29.5,-27.8 -61.6,-57.5 -93.5,-86.9 -11.5,-11.2 -23.2,-22 -34.8,-32.7 l -13.7,-12.7 c -26.5,-24.3 -51.8,-47.2 -77.3,-69.8 l -2.5,-2.4 c -11.4,-10.5 -23.1,-21.2 -34.8,-31.4 -18.6,-17 -40.3,-36.2 -62,-55.5 l -35.4,-31.1 c -21.7,-19.1 -43.6,-38.2 -65.5,-57 l -32.1,-28 c -37.5,-32.7 -75.6,-64.8 -113.8,-96.8 -3.4,-3.1 -9.9,-8.8 -17.3,-14.7 l -91.8,-76.4 c -7.9,-6.9 -18.8,-16 -30.2,-24.8 l -74.1,-60.3 c -28.5,-23.2 -56.8,-46.1 -85.5,-68.8 -31.8,-25.4 -64.5,-51.6 -97.7,-77.1 -13.7,-11.2 -27.5,-21.8 -41.6,-32.2 -36.8,-28.7 -74,-57.2 -111.6,-85.5 -12.8,-10.1 -28,-21.5 -43.4,-33 l -10.8,-8.1 c -7.7,-6.1 -18.2,-13.7 -28.8,-21.5 l -8.4,-6.2 c -12.8,-9.7 -27.1,-20.4 -42.1,-31.2 -18.9,-14.5 -41.4,-30.8 -64.2,-47.2 l -11,-7.9 c -4.5,-3.4 -9,-6.7 -13.6,-9.9 l -12.3,-9 c -39.5,-28.6 -79.1,-57.2 -119.3,-85.4 -12,-8.8 -27.2,-19.4 -42.1,-29.5 -34.4,-24.3 -71.5,-50 -108.9,-75.8 l -18.8,-13 c -7.2,-5.3 -14.6,-10.5 -22.2,-15.3 -10.9,-7.9 -22.2,-15.4 -33.4,-22.7 -35.1,-24.1 -70.4,-47.7 -106,-71.1 -2.3,-1.6 -4.6,-3.2 -6.9,-4.8 -4.5,-3.2 -8.5,-5.8 -11.8,-7.9 l -26.1,-17.2 c -28.9,-18.8 -57.5,-37.6 -86.8,-56.4 -11.9,-8.1 -26.6,-17.7 -42.2,-27.1 -43.6,-28.1 -84.8,-54.6 -126.5,-80.4 -22.8,-14.7 -48.4,-31.1 -74.5,-46.6 -27.7,-17.1 -56.7,-34.8 -86.1,-52.7 l -0.4,-0.5 -168.6,-100.9 c -6.9,-4.4 -17.1,-10.2 -27.4,-16 -30.7,-18 -64.1,-37.1 -97.7,-56.4 l -29.5,-16.9 c -83.6,-48.3 -174,-98.6 -283.9,-157.9 -127.4,-68.7 -244.4,-129.5 -357.8,-185.7 -39.5,-20.3 -81.7,-41.2 -124.2,-61.5 -6.8,-3.8 -13.4,-7.2 -20.2,-10.2 -21.2,-10.4 -42.8,-20.7 -64.3,-30.9 -25.4,-12.4 -49.4,-23.9 -73.7,-35.1 -31.4,-15.1 -64.9,-30.5 -98.4,-46 l -30.9,-14.2 c -43.9,-20.4 -88.1,-40.4 -132.4,-60.3 -8.6,-4.1 -17.6,-7.9 -26.4,-11.4 -35.3,-15.8 -70.7,-31.6 -106.8,-47 -37.9,-16.6 -78,-33.7 -118.5,-50.7 l -4.1,-1.7 c -26.1,-11.1 -52.3,-22.1 -78.8,-33 -10.1,-4.5 -20.1,-8.7 -30.4,-12.6 -11.6,-5 -23.6,-9.9 -35.4,-14.4 -30.1,-12.7 -60.2,-24.7 -90.5,-36.8 -54,-21.7 -108.8,-43.3 -163.7,-64.3 -80.7,-31.1 -162.5,-61.8 -244.6,-91.2 l -162.1,-59.4 -1.2,0.9 c -18.8,-6.5 -37.7,-13.1 -56.6,-19.7 l -93.1,-32.5 -1.2,0.7 c -1.2,-0.4 -2.3,-0.8 -3.5,-1.2 -34.1,-11.5 -68,-22.6 -101.8,-33.4 l -56.6,-18.8 c -26.7,-8.5 -50.9,-16.2 -75,-23.3 -9.1,-3.2 -18.2,-6.1 -27.7,-8.6 -15.4,-5.1 -31.1,-10 -46.7,-14.9 l -35.6,-10.8 c -20.6,-6.3 -41.4,-12.6 -62.1,-18.7 -4.9,-1.7 -10.4,-3.5 -16.1,-5.1 l -34.2,-10.3 c -29.7,-8.8 -58,-17.3 -86.6,-25.1 l -11.5,-3.4 c -9.3,-2.7 -18.7,-5.5 -28.2,-8 -3.4,-1 -7,-2 -10.7,-3 -19.1,-5.7 -38.4,-11.1 -58.2,-16.4 -15.3,-4.7 -31,-9.2 -46.4,-13.2 -10,-2.7 -19.9,-5.3 -29.6,-7.8 -7.8,-2.5 -15.7,-4.6 -23.7,-6.6 -12.8,-3.7 -25.5,-7 -38.3,-10.2 -22.5,-6.3 -45.2,-12.4 -68.3,-18.3 l -58.4,-15.2 c -12.4,-3.6 -25,-6.8 -38,-9.6 -24.8,-6.8 -50,-12.9 -75.8,-19.1 l -59.5,-14.9 c -36.8,-9.1 -74.5,-18.1 -112.2,-27 l -115.5,-26.8 c -37.3,-8.3 -74.7,-16.7 -112.1,-24.9 -56.3,-12.2 -112.3,-24.1 -168.2,-35.1 -9.4,-2.4 -18.3,-4.3 -27.1,-5.7 -26.5,-5.4 -53,-10.7 -79.6,-15.9 l -0.7,-1 -169.5,-31.2 c -40.4,-7.5 -81.4,-14.8 -122.4,-22 l -81.8,-13.8 c -21.7,-4 -45.9,-7.9 -70.6,-11.6 -14.9,-2.8 -29.5,-5.1 -44.5,-7.5 -30,-4.7 -57.6,-8.8 -84.5,-12.7 -13.9,-2.6 -27.2,-4.6 -40.5,-6.1 -22.7,-3.7 -45.2,-7 -67.7,-10.4 l -0.1,0.2 -6.7,-1.3 c -26.1,-3.7 -52.2,-7.3 -78.7,-10.7 -21.7,-3.3 -46.8,-6.6 -71.8,-10 l -30.4,-4 c -19.9,-2.7 -40,-5.4 -60.2,-7.8 l -10.1,-1.3 c -18.6,-2.3 -37.2,-4.6 -55.9,-6.9 l -2.6,-3.9 -88.1,-6.7 c -41.7,-5 -82.9,-9.4 -124.1,-13.7 -21.7,-2.4 -44.4,-4.6 -67.1,-6.8 l -30.1,-3 c -35.1,-3.5 -70.8,-6.9 -105.8,-10.1 l -15.4,-1.3 c -7.5,-0.8 -14.9,-1.5 -22.5,-2 -46.8,-4.4 -97.9,-8.5 -148.9,-12.1 -1.2,-0.2 -4.2,-0.4 -7.4,-0.6 l -27.6,-2.1 c -39.2,-2.9 -78.2,-5.8 -117,-8.1 -32.6,-2.2 -66.5,-4.2 -100.4,-6.1 l -49.1,-2.9 c -37.7,-2 -74.1,-3.7 -110.6,-5.5 l -40.7,-1.9 c -50.7,-2.3 -100.9,-4 -151.3,-5.7 -36.6,-1.2 -73.3,-2.1 -109.8,-3 l -40.2,-1 c -90.9,-1.9 -182.1,-2.8 -272.9,-2.8"
         style="fill:#371a45;fill-opacity:1;fill-rule:nonzero;stroke:none"
         id="path104" /><path
         d="m 28357.4,21135.5 c 0,0 1201.5,-1599.7 1506.5,-2731.9 445.9,-1654.7 -435,-2935.9 -1764.5,-3337.3 -1179.7,-356.1 -3326.5,13.5 -3326.5,13.5 0,0 -1132.5,-546.2 -1889.3,-329.6 -1142.2,326.9 -1651.1,2128.2 -579.9,3030.6 873.2,735.6 1856.3,730.4 2367.2,725.2 103.7,-1.1 188,-2.1 247.9,3 1699.7,145.9 1511.3,1600.2 1511.3,1600.2 l 1927.3,1026.3"
         style="fill:#ffffff;fill-opacity:1;fill-rule:nonzero;stroke:none"
         id="path106" /><path
         d="m 23285.5,14873.4 c -124,0 -244,13.2 -353.9,44.7 -182.4,52.2 -351.9,151.1 -499,285.4 141.1,117.1 269.9,255.2 380.9,411.6 0.6,0.9 1.2,1.8 1.9,2.7 54.4,-8.2 108.5,-11.9 162.3,-11.9 281.5,0 554.6,102.5 826.6,205.1 271.9,102.6 542.7,205.2 819.1,205.2 78.7,0 157.7,-8.3 237.5,-27.3 537.3,-127.8 1342.7,-337.1 2178.2,-337.1 374.2,0 754.4,41.9 1119.3,152 929.7,281 1513.8,1069.4 1628.5,2083.9 165.4,-1409.3 -737.3,-2352.1 -1738,-2654.2 -364.3,-110 -830.2,-147.2 -1294.7,-147.2 -971.9,0 -1937.5,163.2 -1951.7,165.6 l -55.1,9.4 -50.3,-24.2 c -9,-4.3 -764.9,-363.7 -1411.6,-363.7"
         style="fill:#d7d1da;fill-opacity:1;fill-rule:nonzero;stroke:none"
         id="path108" /><path
         d="m 23282.4,14525.1 c -154.3,0 -305.7,16.8 -446.9,57.2 -606.2,173.5 -1095.8,743.7 -1247.4,1452.5 -155.6,727.7 69.9,1430.3 603.1,1879.6 928.4,782.1 1983.6,771.4 2491.5,766.1 92,-1 171.5,-1.8 221.2,2.5 494.9,42.5 861.2,206.3 1089,487 323.2,398.3 264.6,912.2 264,917.3 l 346.4,44.3 c 3.5,-26.8 80.1,-661.2 -336,-1177.7 -289.7,-359.6 -738.4,-567.8 -1333.5,-618.9 -66.3,-5.7 -149.4,-4.9 -254.7,-3.8 -500.8,5.2 -1433.5,14.7 -2262.9,-683.9 -432.8,-364.7 -614.7,-940.2 -486.5,-1539.5 124.9,-584.3 518.2,-1051.2 1001.9,-1189.7 683.2,-195.6 1754.8,313.9 1765.5,319 l 50.3,24.2 55.1,-9.4 c 21.1,-3.6 2120.2,-358.4 3246.4,-18.4 1108.3,334.6 2096.3,1455.1 1646.4,3124.7 -292.7,1086.2 -1465.7,2656.7 -1477.5,2672.5 l 279.3,209.7 c 49.8,-66.4 1225.2,-1639.9 1535.4,-2791.4 437.5,-1623.4 -336.7,-3083.2 -1882.7,-3549.9 -1113.7,-336.1 -3001.2,-56.9 -3352.4,-0.4 -192.3,-86.7 -877.1,-373.5 -1515,-373.6"
         style="fill:#371a45;fill-opacity:1;fill-rule:nonzero;stroke:none"
         id="path110" /><path
         d="m 18611.4,22976.1 c 0,0 -1735.9,-994.6 -2463.6,-1914 -1063.6,-1343.7 -760.8,-2868.8 301.8,-3763 942.9,-793.4 3061,-1302.3 3061,-1302.3 0,0 824.4,-949.5 1605.1,-1049.6 1178.4,-151.1 2357.9,1302.3 1730.5,2554.7 -615.1,1228 -1800.2,1534.1 -2114.3,1702.5 -1503.6,805.8 -755.7,2067.2 -755.7,2067.2 l -1364.8,1704.5"
         style="fill:#ffffff;fill-opacity:1;fill-rule:nonzero;stroke:none"
         id="path112" /><path
         d="m 21283.5,15111.2 c -48.8,0 -97.4,3 -145.5,9.2 -704.9,90.4 -1487.8,981.9 -1495.6,990.9 l -36.8,42.2 -54.2,13 c -20.8,5 -2089.2,508.8 -2989.3,1266.3 -624.3,525.2 -1039.3,1385.3 -854.6,2321.9 35.4,-819.4 471.9,-1548.2 1160.8,-2022.5 1014.6,-699 2281.1,-505.5 2815.3,-902.7 518.1,-385.3 777.6,-1246.4 1960.1,-1246.4 36.5,0 73.8,0.8 112.2,2.5 349,15.3 676,267.7 952.5,547.7 -47.7,-108.4 -107.6,-214.4 -179.8,-316.1 -312.3,-440.3 -788.1,-706 -1245.1,-706"
         style="fill:#d7d1da;fill-opacity:1;fill-rule:nonzero;stroke:none"
         id="path114" /><path
         d="m 21281.5,14762.1 c -63,0 -125.7,3.9 -188,11.9 -748.1,95.9 -1500.1,872.7 -1677,1066.1 -344.9,86.8 -2189.2,576.4 -3079.3,1325.4 -1235.7,1039.8 -1369.8,2686.7 -326.3,4005 740.1,935.1 2441.7,1915.9 2513.7,1957.1 l 173.7,-303 c -17.1,-9.8 -1715.4,-988.8 -2413.6,-1870.9 -1073.1,-1355.8 -608.5,-2775.5 277.4,-3520.9 900.1,-757.5 2968.5,-1261.3 2989.3,-1266.3 l 54.2,-13 36.8,-42.2 c 7.8,-9 790.7,-900.5 1495.6,-990.9 499,-63.9 1044.9,209.5 1390.6,696.8 354.6,499.9 415,1100.4 161.5,1606.5 -485.7,969.6 -1346.1,1329.3 -1808.3,1522.6 -97.1,40.6 -173.7,72.7 -232.4,104.1 -526.5,282.2 -856.3,650.8 -980.3,1095.6 -178.1,639 143.1,1191.4 156.9,1214.6 l 300.3,-178.1 c -2.2,-3.9 -259.2,-452.8 -119.7,-946.4 98.3,-347.9 370,-643.2 807.8,-877.8 43.9,-23.5 117.3,-54.2 202.2,-89.7 468,-195.8 1442.1,-603.1 1985.8,-1688.5 312.3,-623.5 241.6,-1358 -188.9,-1965 -377.7,-532.3 -962.7,-853 -1532,-853"
         style="fill:#371a45;fill-opacity:1;fill-rule:nonzero;stroke:none"
         id="path116" /><path
         d="m 20085.2,19457.7 c -915,1042.7 -2160.8,1090 -2821.9,1025.2 -847.5,-82.9 -1430.4,-396.3 -1518.6,-548.5 l -302.1,175.2 c 188.1,324.6 972.9,641.3 1786.6,720.9 727.9,71.2 2100.8,17.5 3118.5,-1142.4 l -262.5,-230.4"
         style="fill:#371a45;fill-opacity:1;fill-rule:nonzero;stroke:none"
         id="path118" /><path
         d="m 19681.9,17234.9 c -1.5,23.1 -0.8,47.1 1.7,71 -2.3,-24.2 -2.9,-47.7 -1.7,-71"
         style="fill:#b9afbe;fill-opacity:1;fill-rule:nonzero;stroke:none"
         id="path120" /><path
         d="m 29961,23182.8 c -73.3,2.8 -130.3,64.5 -127.5,137.7 l 149,3819.8 c 2.8,73.2 64.5,130.3 137.8,127.4 768.3,-29.9 1366.9,-677.1 1336.9,-1445.4 l -50.8,-1302.6 c -29.9,-768.3 -677.1,-1366.9 -1445.4,-1336.9"
         style="fill:#ffffff;fill-opacity:1;fill-rule:nonzero;stroke:none"
         id="path122" /><path
         d="m 29962.2,23214.1 c 749.4,-29.6 1383.6,557 1412.9,1306.8 l 50.8,1302.6 c 14.1,363.2 -114,710.2 -360.8,977.1 -246.9,266.8 -582.8,421.6 -946,435.8 -27,1.2 -52.9,-8.5 -72.8,-26.9 -19.9,-18.4 -31.4,-43.4 -32.5,-70.4 l -148.9,-3819.8 c -2.2,-55.8 41.5,-103 97.3,-105.2 m 53.7,-63.8 c -18.7,0 -37.4,0.4 -56.2,1.1 -90.3,3.5 -161,79.9 -157.5,170.4 l 149,3819.7 c 1.7,43.8 20.3,84.3 52.5,114.1 32.2,29.7 74,45.2 117.8,43.5 380,-14.9 731.5,-176.7 989.7,-455.9 258.2,-279.2 392.2,-642.2 377.4,-1022.2 l -50.8,-1302.5 c -29.9,-765.6 -662.3,-1368.2 -1421.9,-1368.2"
         style="fill:#371a45;fill-opacity:1;fill-rule:nonzero;stroke:none"
         id="path124" /><path
         d="m 30102.6,23359.4 c 69.4,222.6 125.9,449.8 169,680.3 15.9,72.9 30.6,146.3 44.1,220.1 375.4,48.6 706.3,247.8 926.8,537.2 l -10.6,-270.5 c -24.4,-625.4 -518.8,-1123.7 -1129.3,-1167.1"
         style="fill:#d7d1da;fill-opacity:1;fill-rule:nonzero;stroke:none"
         id="path126" /><path
         d="m 30009.7,23356.3 c 2,0 4,0 6.1,0 649.8,0 1190.6,515.4 1216.1,1170.2 l 50.8,1302.6 c 12.7,324.9 -102,635.4 -322.8,874.2 -211.3,228.5 -495.7,365.1 -804.6,387.6 l -145.6,-3734.6 m 6.3,-349.3 c -20.6,0 -41.1,0.4 -61.8,1.2 -169.3,6.7 -301.7,149.8 -295.2,319.1 l 149,3819.8 c 3.2,82 38.1,157.9 98.4,213.6 60.4,55.8 139.6,84.5 220.7,81.5 418.2,-16.3 805,-194.5 1089.2,-501.8 284.2,-307.2 431.7,-706.8 415.4,-1125 l -50.8,-1302.5 C 31548,23670.3 30852,23007 30016,23007"
         style="fill:#371a45;fill-opacity:1;fill-rule:nonzero;stroke:none"
         id="path128" /><path
         d="m 17512.2,27759.4 c 73.2,-2.9 130.3,-64.5 127.4,-137.8 l -148.9,-3819.7 c -2.9,-73.3 -64.6,-130.3 -137.8,-127.5 -768.3,30 -1366.9,677.2 -1337,1445.5 l 50.8,1302.5 c 30,768.4 677.2,1367 1445.5,1337"
         style="fill:#ffffff;fill-opacity:1;fill-rule:nonzero;stroke:none"
         id="path130" /><path
         d="m 17457.3,27729.1 c -726.2,0 -1330.7,-576 -1359.2,-1307.9 l -50.8,-1302.5 c -14.2,-363.3 114,-710.3 360.8,-977.1 246.8,-266.9 582.8,-421.6 946,-435.8 56.3,-2.1 103.1,41.5 105.2,97.3 l 149,3819.7 c 1.1,27.1 -8.5,52.9 -26.9,72.8 -18.3,19.9 -43.4,31.4 -70.4,32.4 -18,0.7 -35.9,1.1 -53.7,1.1 m -99.1,-4086.1 c -2.2,0 -4.4,0 -6.5,0.1 -380,14.8 -731.5,176.7 -989.7,455.9 -258.2,279.1 -392.2,642.1 -377.4,1022.1 l 50.8,1302.6 c 30.6,784.4 694.7,1397.4 1478,1367 43.8,-1.7 84.3,-20.3 114.1,-52.5 29.8,-32.2 45.2,-74 43.5,-117.8 l -148.9,-3819.8 c -3.5,-88.2 -76.4,-157.6 -163.9,-157.6"
         style="fill:#371a45;fill-opacity:1;fill-rule:nonzero;stroke:none"
         id="path132" /><path
         d="m 17242.1,23859.1 c -279.4,37.7 -534.9,170.1 -728.8,379.8 -220.9,238.7 -335.5,549.2 -322.8,874.2 l 10.2,262.1 c 205.8,-283 516.4,-486.6 877.2,-551.9 31,-326.1 86,-648.2 164.2,-964.2"
         style="fill:#d7d1da;fill-opacity:1;fill-rule:nonzero;stroke:none"
         id="path134" /><path
         d="m 17505.4,27584.9 v 0 0 m -48,0.9 c -649.8,0 -1190.6,-515.3 -1216.2,-1170.2 l -50.7,-1302.5 c -12.7,-325 101.9,-635.5 322.8,-874.2 211.3,-228.5 495.7,-365.2 804.5,-387.6 l 145.7,3734.5 c -2,0 -4.2,0 -6.1,0 m -99.2,-4086.1 c -4,0 -8,0.1 -12.1,0.2 -418.2,16.4 -805.1,194.5 -1089.2,501.8 -284.3,307.2 -431.8,706.8 -415.5,1125 l 50.8,1302.6 c 33.7,863.3 763.2,1538.3 1626.8,1504.6 82,-3.2 157.9,-38.2 213.7,-98.4 55.7,-60.3 84.7,-138.7 81.4,-220.7 l -148.9,-3819.7 c -6.5,-165.4 -143,-295.4 -307,-295.4"
         style="fill:#371a45;fill-opacity:1;fill-rule:nonzero;stroke:none"
         id="path136" /><path
         d="m 30212.1,24756.2 c -394.8,-3575.9 -3613.7,-6154.7 -7189.6,-5759.9 -3575.9,394.8 -6154.7,3613.7 -5759.9,7189.6 394.8,3575.9 3613.8,6154.7 7189.7,5759.9 3575.9,-394.8 6154.7,-3613.7 5759.8,-7189.6"
         style="fill:#ffffff;fill-opacity:1;fill-rule:nonzero;stroke:none"
         id="path138" /><path
         d="m 23732.5,31954.1 c -3258.6,0 -6072.9,-2459.1 -6438.7,-5771.6 -190,-1721.2 301.5,-3413.3 1384.2,-4764.7 1082.7,-1351.4 2626.8,-2200.3 4348,-2390.3 240.4,-26.6 479.6,-39.5 716.2,-39.5 3258.6,-0.2 6073,2459.1 6438.7,5771.6 392.4,3553 -2179.1,6762.7 -5732.1,7155 -240.5,26.6 -479.7,39.5 -716.3,39.5 m 9.8,-13028.9 c -239.1,0 -480.2,13.1 -723.3,39.9 -1737.8,191.9 -3296.9,1049 -4390,2413.5 -1093.1,1364.5 -1589.4,3073 -1397.6,4810.8 396.2,3587.3 3636.5,6183.5 7224.3,5787.6 3587.4,-396.1 6183.7,-3636.9 5787.6,-7224.3 -369.3,-3344.3 -3211.1,-5827.5 -6501,-5827.5"
         style="fill:#371a45;fill-opacity:1;fill-rule:nonzero;stroke:none"
         id="path140" /><path
         d="m 23742.1,19131.2 v 0 c -231.3,0 -465.3,12.7 -700.4,38.7 -1424.9,157.3 -2725.7,776.4 -3733.7,1764.4 968.3,-633 2329.2,-1224.2 3834.2,-1353.7 266.1,-22.9 527,-33.6 782.3,-33.6 1261.9,0 2381.2,261.1 3246.3,597.8 -997.4,-644.2 -2179.8,-1013.6 -3428.7,-1013.6"
         style="fill:#d7d1da;fill-opacity:1;fill-rule:nonzero;stroke:none"
         id="path142" /><path
         d="m 23732.6,31810.9 c -3186.6,0 -5938.7,-2404.8 -6296.4,-5644.1 -185.8,-1683.1 294.9,-3337.9 1353.6,-4659.4 1058.8,-1321.6 2568.7,-2151.7 4251.9,-2337.5 235.1,-26 469.1,-38.7 700.4,-38.7 3186.6,-0.1 5938.8,2404.8 6296.4,5644.1 383.7,3474.5 -2130.9,6613.3 -5605.4,6996.9 -235.2,26 -469.1,38.7 -700.5,38.7 m 9.8,-13029 c -244.3,0 -490.7,13.4 -739.1,40.8 -1775.8,196.1 -3369,1072 -4486.1,2466.3 -1117,1394.4 -1624.2,3140.3 -1428.2,4916.1 404.8,3665.9 3715.6,6319.3 7382.5,5914.3 3665.8,-404.8 6319,-3716.5 5914.2,-7382.4 -377.3,-3417.5 -3281.4,-5955.1 -6643.3,-5955.1"
         style="fill:#371a45;fill-opacity:1;fill-rule:nonzero;stroke:none"
         id="path144" /><path
         d="m 30173.1,24592.2 c -120.8,-1269 -644.8,-2408 -1442,-3315.7 -597.7,-680.5 -2890.6,-1752.9 -5573.9,-1521.9 -2488,214.2 -4623.7,1754.8 -5082.3,2535.8 -611.7,1041.8 -911.6,2259.1 -790.8,3528.1 319.5,3358.1 3337.1,4475.7 6896.4,4137 3559.4,-338.6 6312.1,-2005.3 5992.6,-5363.3"
         style="fill:#371a45;fill-opacity:1;fill-rule:nonzero;stroke:none"
         id="path146" /><path
         d="m 30173.1,24592.2 h 0.5 -0.5 M 23031.6,29836 c -2125,0 -5246.6,-596.4 -5573.7,-4034.1 -113.3,-1191.2 152.1,-2374.9 767.6,-3423.1 436.9,-744.1 2520.9,-2241.4 4946.7,-2450.2 2688.7,-231.8 4895.2,856.9 5427.7,1463.1 802.1,913.4 1286,2025.8 1399.3,3217 393,4130.4 -3949.8,4993.6 -5835.2,5173 -316.2,30.1 -704.2,54.3 -1132.4,54.3 m 892.9,-10289 c -255.3,0 -516.2,10.7 -782.3,33.6 -2579.8,222.1 -4735.8,1800.3 -5217.9,2621.4 -652.9,1111.9 -934.4,2368.2 -814.1,3633 156.9,1649.2 939.3,2857.9 2325.4,3592.6 1208.5,640.5 2855,883.2 4761.5,701.8 1906.5,-181.4 3477.7,-730.3 4543.7,-1587.2 1222.7,-982.8 1763,-2317.4 1606.1,-3966.6 v 0 C 30226.6,23310.8 29713.2,22130.1 28862.3,21161.3 28327.2,20552 26400.1,19547 23924.5,19547"
         style="fill:#371a45;fill-opacity:1;fill-rule:nonzero;stroke:none"
         id="path148" /><path
         d="m 27977.6,24114.8 c -56.2,0.1 -112.4,7.5 -167.7,23.1 -444.1,124.9 -664.4,722.9 -492.1,1335.8 150.9,536.7 552.8,906.7 948.5,906.7 56.3,0 112.5,-7.5 167.7,-23 358.9,-101 571.7,-510.9 549.1,-988 -75.4,-276.1 -166.5,-545.6 -272.2,-807.6 -193.8,-276.8 -464.9,-447 -733.3,-447"
         style="fill:#c3bac7;fill-opacity:1;fill-rule:nonzero;stroke:none"
         id="path150" /><path
         d="m 26834.5,22553.3 c -54.2,0 -108.3,10.7 -159.8,33.3 -229.7,100.5 -320.9,399.1 -203.7,666.8 91,207.7 280.7,335.8 468.4,335.8 54.2,0 108.3,-10.7 159.8,-33.3 229.7,-100.6 320.9,-399.1 203.7,-666.8 -90.9,-207.7 -280.6,-335.8 -468.4,-335.8"
         style="fill:#c3bac7;fill-opacity:1;fill-rule:nonzero;stroke:none"
         id="path152" /><path
         d="m 23914.8,19896.7 c -242.6,0 -490.5,10.1 -742.6,31.9 -758.8,65.3 -1484.2,256.7 -2136.2,511.7 74.2,-1.5 148.1,-2.2 221.7,-2.2 2986,-0.1 5436.4,1189.5 6123.5,1971.8 557.9,635.3 1010.4,1359.8 1329.7,2151.9 92.1,131.5 166.6,286.9 215.2,459.7 33.1,117.6 51.7,234.6 57,347.9 110.2,402.9 187.2,819.9 228,1248.6 31.1,324.6 39,636.9 26,936.9 559.8,-725.9 882.3,-1683.2 762.1,-2946.2 -113.3,-1191.2 -597.2,-2303.6 -1399.3,-3217 -482.6,-549.4 -2339.9,-1495 -4685.1,-1495"
         style="fill:#2a1a3b;fill-opacity:1;fill-rule:nonzero;stroke:none"
         id="path154" /><path
         d="m 23904.8,19722.4 c -245.2,0 -494.5,10.2 -747.7,32 -947.5,81.3 -1843.5,355.2 -2615.7,706.7 166.1,-10.7 331.2,-17.6 494.6,-20.8 652,-255 1377.4,-446.4 2136.2,-511.7 252.1,-21.8 500,-31.9 742.6,-31.9 2345.2,0 4202.5,945.6 4685.1,1495 802.1,913.4 1286,2025.8 1399.3,3217 120.2,1263 -202.3,2220.3 -762.1,2946.2 -4.3,97.8 -10.7,194.2 -19.4,289.3 716.3,-826.7 1083.4,-1903.1 955.3,-3251.9 -120.7,-1269.2 -645,-2408 -1441.8,-3315.8 -541.4,-616.3 -2473.6,-1554 -4826.4,-1554.1"
         style="fill:#2a1a3b;fill-opacity:1;fill-rule:nonzero;stroke:none"
         id="path156" /><path
         d="m 28710.9,24561.8 c 105.7,262 196.8,531.5 272.2,807.6 -5.3,-113.3 -23.9,-230.3 -57,-347.9 -48.6,-172.8 -123.1,-328.2 -215.2,-459.7"
         style="fill:#858290;fill-opacity:1;fill-rule:nonzero;stroke:none"
         id="path158" /><path
         d="m 18040.6,28637.3 1.4,-1.5 -1.4,1.5 M 29899,27415.1 c -44.3,0 -88.5,16.8 -122.4,50 l -16.8,15.9 -12.8,22 c -945.2,1633.2 -2969.9,2711 -5555,2957 -2599.3,247.3 -4791.7,-458 -6014.6,-1934.8 l -15.5,-16.4 c -70.1,-66.2 -180.7,-63 -246.8,7.1 -62.8,66.5 -63.3,169.3 -3.3,236.2 1298.6,1564.7 3599.5,2313.7 6313.3,2055.6 2694.5,-256.4 4814.8,-1393.9 5819.3,-3121.3 46.5,-69.6 37.3,-164.6 -25.7,-223.8 -33.8,-31.8 -76.8,-47.5 -119.7,-47.5"
         style="fill:#371a45;fill-opacity:1;fill-rule:nonzero;stroke:none"
         id="path160" /><path
         d="m 18541.3,23683.1 c 0,0 -724.9,3411.7 1186.1,4561.9 1159.7,698.1 2561.7,880.6 3467.6,880.6 586.9,0 965.5,-76.5 935.7,-139 0,0 -2909.1,-417.9 -4235.6,-2560.1 -1023,-1651.9 -1353.8,-2743.4 -1353.8,-2743.4"
         style="fill:#c3bac7;fill-opacity:1;fill-rule:nonzero;stroke:none"
         id="path162" /><path
         d="m 26808,6854.7 c -1586.1,422.6 -1232,3499.2 -3233.8,2265 l -302.1,582.8 -13.1,24.9 c 0,0 21.4,61.1 63.8,169.4 l 0.4,1.3 0.4,1.3 c 318.7,817.7 1814.5,4271.6 4268.5,4085.6 1587.9,-120.1 1531.6,-1869.9 1531.6,-1869.9 0,0 887.1,198.2 1390.5,-355.4 159.8,-175.1 280.7,-424.8 323.1,-780.2 C 31087,8888.7 28546.1,6391.4 26808,6854.7"
         style="fill:#ffffff;fill-opacity:1;fill-rule:nonzero;stroke:none"
         id="path164" /><path
         d="m 26835,7047.5 -19.5,6.5 c -28.1,9.5 -56.8,17.7 -84.6,27.9 -53.3,26.1 -109.3,46.5 -159.1,80.5 -52.6,28.1 -99.6,67.2 -148.4,103.1 -23.5,19.5 -45.6,41.3 -68.7,61.6 -23.4,19.9 -45,42.5 -66.1,65.9 -87.5,89.3 -164,194.5 -237.1,303.1 -145.1,219.6 -267.1,464.1 -393.4,713.7 -128.1,249.1 -255.4,508.3 -448.5,750.9 -98.4,119.4 -218,235.3 -369.9,316.7 -136.8,74.8 -297,111.1 -450.2,111.1 -15.9,0 -31.6,-0.4 -47.2,-1.1 l -122.7,-14.2 c -20.8,-1.8 -40.4,-5.9 -59.5,-11.1 l -58.1,-14.3 c -79.3,-16.3 -149.1,-47 -222.1,-73.1 -71.1,-28.6 -136.9,-63.8 -205.5,-95.6 l -180.6,-104.3 -196.3,378.8 c 18.2,8.2 33.6,22.8 42.8,42.2 l 1.3,2.8 c 118,250.2 240.2,498.9 367.6,744.6 376.8,454.7 1004.7,1028.9 1773,1028.9 127.7,0 259.1,-15.8 394.2,-50.7 658.3,-170.3 762.2,-618.7 828.6,-954 104.3,-526.1 -314.8,-878 -325.3,-1340.3 -1,-47.5 11.6,-68.7 35,-68.7 174.1,0 949.3,1165.8 1260.8,1485.9 783.8,805.1 1521.7,1292.5 2301.3,1292.5 39,0 78.1,-1.3 117.3,-3.7 148.2,-72.4 272.9,-178.5 360.9,-315.6 -64.3,31.1 -133.9,52.2 -206.6,61.5 -27.6,3.5 -55.7,5.3 -84.1,5.3 -19.8,0 -39.8,-0.9 -59.9,-2.7 -59.4,-5.3 -119.2,-14.2 -179,-26.3 -0.4,-0.1 -0.7,-0.2 -1.1,-0.3 -0.4,0 -0.7,-0.1 -1.1,-0.2 -875.6,-179.1 -1775.8,-1063 -2395.4,-1934.2 -237.8,-334.3 -434.2,-666.7 -572.2,-956.7 -48.3,-101.5 -89.5,-197.8 -122.7,-287.3 v 0 c -156.6,-421.4 -194.5,-734.2 -158,-965.5 24.5,-155 82.3,-273.4 160.1,-363.6"
         style="fill:#d7d1da;fill-opacity:1;fill-rule:nonzero;stroke:none"
         id="path166" /><path
         d="m 23176.6,9755.9 c 101.4,377.4 241.5,736.5 401.1,1089.8 160.7,352.3 344,695.1 553,1023.6 210,327.7 441.1,643.8 700.5,939 258.8,295.3 549.1,568.6 878.3,796.5 328.3,227.5 698.2,409.8 1097.6,503.2 l 151.1,27.6 c 50.5,8.4 100.5,20.5 151.9,22.6 l 153.3,12.3 c 25.6,1.5 51.1,4.9 76.7,4.9 l 76.9,-1.5 c 203.6,1.8 413.4,-21.3 617.6,-80.7 204.3,-58 400.6,-159.7 570.1,-294.4 168.5,-136.2 308.2,-305.9 411,-490.5 105.4,-184 176,-381.7 225.1,-581.4 24,-100.1 42.3,-201.1 55,-302.9 6.3,-50.9 11.4,-101.9 14.7,-153.5 3.4,-52.9 5.6,-100.2 4.7,-161.4 l -233.1,193.1 c 46.2,9.7 80.4,14.7 119.8,20.3 38.1,4.9 76.1,9.1 114,12.1 76,5.9 152,8.8 228.5,7 152.8,-3.6 307.5,-21.7 460.1,-63.6 152.5,-40.4 303,-106.2 438.4,-199.7 135.7,-92.5 254.2,-213.9 342.6,-351.4 89.6,-137 151.3,-287.1 192.1,-438.1 39.7,-151.3 58.4,-303.4 67.3,-453.1 16.7,-300.9 -18,-600.4 -88.6,-887.1 -142.8,-574.6 -419.9,-1098.9 -765.3,-1563 -347.6,-463.5 -767.5,-872.2 -1252.2,-1196.5 -242.7,-161.4 -502.5,-301 -780.2,-405.5 -277.3,-103 -573.7,-176.1 -881.7,-176.6 -76.9,1.1 -153.7,0.2 -230.8,11.4 -38.5,4.7 -77.1,7.4 -115.4,14.1 l -114.4,24.4 -57.2,12.4 -57.1,18.6 c -37.9,12.9 -76.2,24.7 -113.6,38.9 -72.3,34.2 -147.1,64.5 -213.4,109 -70,39.1 -131.1,89 -193.8,136.8 -29.9,25.2 -57.7,52.3 -86.6,78.4 -29.5,25.8 -55.9,53.7 -81.5,82.2 -106.8,111.2 -194.4,233.4 -276,356.4 -161,247.6 -286.2,504.8 -410.3,753.4 -124.2,247.3 -246.7,491.9 -401.5,687.4 -77.8,95.9 -163.9,176.2 -257.9,227.5 -93.8,52 -196.5,74.3 -308.1,71.4 -226,-15 -469,-120.2 -693.6,-258.4 l -4.4,-2.7 c -82.1,-50.6 -189.7,-25 -240.3,57.2 -50.6,82.1 -25,189.7 57.2,240.3 1.2,0.7 3,1.8 4.2,2.5 l 192,110.9 c 68.6,31.8 134.4,67 205.5,95.6 73,26.1 142.8,56.8 222.1,73.1 l 58.1,14.3 c 19.1,5.2 38.7,9.3 59.5,11.1 l 122.7,14.2 c 167.1,8.2 346.5,-27.5 497.4,-110 151.9,-81.4 271.5,-197.3 369.9,-316.7 193.1,-242.6 320.4,-501.8 448.5,-750.9 126.3,-249.6 248.3,-494.1 393.4,-713.7 73.1,-108.6 149.6,-213.8 237.1,-303.1 21.1,-23.4 42.7,-46 66.1,-65.9 23.1,-20.3 45.2,-42.1 68.7,-61.6 48.8,-35.9 95.8,-75 148.4,-103.1 49.8,-34 105.8,-54.4 159.1,-80.5 27.8,-10.2 56.5,-18.4 84.6,-27.9 l 42.3,-14.1 45.2,-9.1 90.3,-18.9 c 30.3,-5.2 61.6,-6.7 92.2,-10.4 61.3,-9.2 124.2,-7.3 186.8,-8.1 251.1,1.5 506,62 750.1,153.5 244.5,92.2 479.5,218 701,365.6 442.8,296.4 834.1,677.1 1155,1106.1 319.5,429.3 572.1,912.8 698.1,1423.4 62.5,254.8 91.8,515.8 77.2,772.2 -7.8,128.6 -23.6,254.4 -54.9,373.2 -32.2,118.2 -78.7,228.8 -141.1,325.9 -123.7,195.3 -321.3,328.1 -555.4,391.3 -116.3,32.8 -240.7,48.4 -366.6,52 -62.9,1.8 -126.4,-0.3 -189.5,-4.9 -31.6,-2.3 -63,-5.7 -94.1,-9.5 -29.7,-3.9 -64.5,-9.4 -86.5,-13.9 l -237.9,-48.5 4.7,241.6 c 0.7,34.3 -0.7,82.5 -3.5,124.8 -2.5,43.7 -6.7,87.8 -11.9,131.6 -10.6,87.8 -25.9,175.1 -46,260.7 -41.2,170.9 -100,336.6 -184.1,484.6 -41,74.7 -88.5,144.6 -141.9,208.7 -52,65.6 -112.5,122.6 -175.7,175.6 -129.1,102.9 -277.3,182.3 -440.3,229.4 -162.6,48 -335.9,69.2 -514,68.2 l -66.4,2 c -22.1,0.1 -44,-3 -66.1,-4.2 l -132.2,-9.9 c -44.3,-1.1 -87.5,-12 -131.2,-19 l -130.8,-22.9 c -346,-79.2 -674.5,-237.5 -973.9,-442.7 -300.1,-205.4 -572.1,-457.7 -817.7,-735.3 -246.3,-277.3 -468.5,-578.5 -672.6,-892.4 -407.8,-627.8 -760.5,-1299.4 -1082.5,-1982 l -1.3,-2.8 c -20.6,-43.7 -72.8,-62.4 -116.5,-41.8 -38.9,18.4 -58,61.7 -47.2,101.9"
         style="fill:#371a45;fill-opacity:1;fill-rule:nonzero;stroke:none"
         id="path168" /><path
         d="m 27297.4,6886.9 c 256.3,88.3 494.6,154.1 736.9,244.6 239.5,93.6 468.1,220.4 684,366.5 430.7,294.5 814.4,664.1 1129.8,1082.4 158.5,208.5 300.1,429.6 420,660.8 119.7,231.1 220.5,471.5 288.5,719.6 68.7,247.5 110,501.4 109.6,754.2 -1.3,253.2 -34.3,504.7 -136.6,716.4 l -0.3,0.7 c -42,86.9 -5.6,191.3 81.2,233.2 85,41.1 186.9,6.9 230.6,-75.8 72.5,-137.7 121.4,-284 152.3,-430.7 14.7,-73.4 26.9,-147.3 32.1,-220.1 l 10,-109.6 c 3.5,-36.5 2.2,-73 3.6,-109.6 5.8,-292.6 -33.1,-583.2 -107.8,-861.5 -150.4,-557.6 -428.7,-1065.3 -771.1,-1515.3 -172.4,-224.8 -363.4,-434.5 -569.7,-628.3 -206.3,-193.8 -428.9,-370.8 -667.9,-525.1 -238.9,-154.2 -493,-288.3 -763.8,-387.5 -136.1,-47.6 -274.6,-92.7 -420.2,-108.1 -143.8,-20.5 -293.6,-15 -436.8,18.7 -48.4,11.4 -78.5,59.9 -67.1,108.4 7.3,31.1 29.8,54.6 57.9,64.5 l 4.8,1.6"
         style="fill:#371a45;fill-opacity:1;fill-rule:nonzero;stroke:none"
         id="path170" /><path
         d="m 27426.4,6806.9 c -89.9,-7.9 -181.1,0.9 -266.5,30.1 -386.7,132.6 -707.8,514.6 -327,1539.6 392.4,1056.1 1889.6,3080.8 3271.5,3205 362.5,32.6 688,-234.5 732.1,-595.7 0.3,-2.1 0.5,-4.2 0.8,-6.4 221.3,-1853 -1749.7,-4025.7 -3410.9,-4172.6"
         style="fill:#b7b7b7;fill-opacity:1;fill-rule:nonzero;stroke:none"
         id="path172" /><path
         d="m 27527.8,9620.6 c 619.6,871.2 1519.8,1755.1 2395.4,1934.2 -875.5,-179.2 -1775.7,-1063.1 -2395.4,-1934.2 m 2927.3,1896.8 c -64.3,31.1 -134,52.3 -206.7,61.6 72.7,-9.3 142.3,-30.4 206.6,-61.5 0.1,-0.1 0.1,-0.1 0.1,-0.1"
         style="fill:#e7e3e9;fill-opacity:1;fill-rule:nonzero;stroke:none"
         id="path174" /><path
         d="m 30513.3,11485.7 c -18.9,11.5 -38.3,22 -58.2,31.7 0,0 0,0 -0.1,0.1 20,-9.7 39.4,-20.3 58.3,-31.8 v 0"
         style="fill:#87768f;fill-opacity:1;fill-rule:nonzero;stroke:none"
         id="path176" /><path
         d="m 29924.3,11555 c 0.4,0.1 0.7,0.2 1.1,0.3 -0.4,-0.1 -0.7,-0.2 -1.1,-0.3"
         style="fill:#e7e3e9;fill-opacity:1;fill-rule:nonzero;stroke:none"
         id="path178" /><path
         d="m 30843.5,10921.2 c 0,0.1 0,0 0,0.1 0,-0.1 0,0 0,-0.1 m -0.3,3 c 0,0.1 0,0.1 0,0.2 0,-0.1 0,-0.1 0,-0.2 m -0.3,3.2 v 0 0 m -0.6,6.1 v 0.1 -0.1 m -0.3,2.9 c 0,0.3 0,0.5 0,0.7 0,-0.2 0,-0.4 0,-0.7 m -0.3,2.9 c 0,0.4 0,0.7 -0.1,1 0.1,-0.3 0.1,-0.6 0.1,-1 m -0.3,2.9 c 0,0.4 0,0.8 -0.1,1.3 0.1,-0.5 0.1,-0.9 0.1,-1.3 m -0.3,2.8 c 0,0.5 0,0.9 -0.1,1.4 0.1,-0.5 0.1,-0.9 0.1,-1.4 m -0.3,2.9 c 0,0.5 -0.1,1 -0.1,1.4 0,-0.4 0.1,-0.9 0.1,-1.4 m -0.3,2.8 c 0,0.6 -0.1,1 -0.1,1.5 0,-0.5 0.1,-1 0.1,-1.5 m -0.2,2.6 c -0.2,1.1 -0.3,2.4 -0.4,3.6 0.1,-1.2 0.2,-2.4 0.4,-3.6 m -0.5,4.6 c -0.1,0.5 -0.1,1 -0.2,1.6 0,-0.5 0.1,-1.1 0.2,-1.6 m -0.3,2.8 c -0.1,0.4 -0.2,1.2 -0.2,1.7 0,-0.6 0.1,-1.1 0.2,-1.7 m -0.4,2.9 c 0,0.6 -0.1,1.1 -0.2,1.6 0.1,-0.5 0.2,-1 0.2,-1.6 m -0.3,2.9 c 0,0.4 -0.1,1.1 -0.2,1.6 0.1,-0.6 0.2,-1.1 0.2,-1.6 m -0.3,3 c -0.1,0.6 -0.1,0.8 -0.2,1.4 0.1,-0.5 0.1,-0.9 0.2,-1.4 m -0.4,2.9 c 0,0.5 -0.1,0.9 -0.1,1.4 0,-0.5 0.1,-0.9 0.1,-1.4 m -0.3,3.1 c -0.1,0.4 -0.1,0.7 -0.2,1.2 0.1,-0.4 0.1,-0.8 0.2,-1.2 m -64.2,223.9 c -57.9,119.2 -149.1,218.4 -260.3,286.3 v 0 c 111.2,-67.8 202.5,-167 260.3,-286.3"
         style="fill:#87768f;fill-opacity:1;fill-rule:nonzero;stroke:none"
         id="path180" /><path
         d="m 27254.2,9207.9 c 83.3,135.2 174.9,273.8 273.6,412.7 619.7,871.1 1519.9,1755 2395.4,1934.2 0.4,0.1 0.7,0.1 1.1,0.2 0.4,0.1 0.7,0.2 1.1,0.3 59.8,12.1 119.5,21 178.9,26.3 20.1,1.8 40.2,2.7 60.1,2.7 28.4,0 56.4,-1.8 84,-5.3 72.7,-9.3 142.4,-30.5 206.7,-61.6 19.9,-9.7 39.3,-20.2 58.2,-31.7 111.2,-67.9 202.4,-167.1 260.3,-286.3 31.8,-65.7 53.5,-137.4 62.8,-213.3 0.4,-2.2 0.4,-4.4 0.9,-6.6 0.1,-0.9 0.2,-1.9 0.3,-2.8 0.1,-0.5 0.1,-0.8 0.2,-1.2 0,-0.6 0.1,-1.1 0.2,-1.7 0,-0.5 0.1,-0.9 0.1,-1.4 0.1,-0.5 0.1,-1 0.2,-1.5 0.1,-0.6 0.1,-0.8 0.2,-1.4 0,-0.5 0.1,-1 0.1,-1.4 0.1,-0.5 0.2,-1.2 0.2,-1.6 0.1,-0.5 0.1,-0.8 0.1,-1.3 0.1,-0.5 0.2,-1 0.2,-1.6 0.1,-0.4 0.1,-0.8 0.2,-1.2 0,-0.5 0.1,-1.3 0.2,-1.7 0,-0.4 0,-0.8 0.1,-1.2 0.1,-0.6 0.1,-1.1 0.2,-1.6 0,-0.4 0,-0.7 0.1,-1 0.1,-1.2 0.2,-2.5 0.4,-3.6 0,-0.4 0,-0.7 0.1,-1.1 0,-0.5 0.1,-0.9 0.1,-1.5 0.1,-0.4 0.1,-0.9 0.2,-1.4 0,-0.4 0.1,-0.9 0.1,-1.4 0.1,-0.5 0.2,-1 0.2,-1.5 0.1,-0.5 0.1,-0.9 0.1,-1.4 0.1,-0.5 0.2,-1 0.2,-1.5 0.1,-0.5 0.1,-0.9 0.1,-1.3 0.1,-0.6 0.2,-1.3 0.2,-1.9 0.1,-0.3 0.1,-0.6 0.1,-1 0.1,-0.7 0.2,-1.4 0.3,-2.2 0,-0.2 0,-0.4 0,-0.7 0.1,-0.9 0.2,-1.9 0.3,-2.8 v -0.1 c 0.2,-2 0.4,-4.1 0.6,-6.1 v 0 c 0.1,-1 0.2,-2 0.3,-3 0,-0.1 0,-0.1 0,-0.2 0.1,-0.9 0.2,-1.9 0.3,-2.9 0,-0.1 0,0 0,-0.1 47.7,-505 -64.6,-1032 -286.5,-1533.5 92.5,340.1 125.7,683.3 83.4,1016.4 -0.5,2.2 -0.5,4.4 -0.9,6.6 -44.1,340.9 -354.9,598.2 -712.9,598.2 -21.1,0 -42.4,-0.9 -63.8,-2.7 -930.8,-78.6 -1910,-922.5 -2608.6,-1798.3"
         style="fill:#d4d4d4;fill-opacity:1;fill-rule:nonzero;stroke:none"
         id="path182" /><path
         d="m 26835.1,7047.5 h -0.1 c -77.8,90.2 -135.6,208.6 -160.1,363.6 24.5,-155 82.3,-273.4 160.2,-363.6"
         style="fill:#b7acbc;fill-opacity:1;fill-rule:nonzero;stroke:none"
         id="path184" /><path
         d="m 26951.5,6941.9 c -42.1,30 -81.3,64.9 -116.5,105.6 h 0.1 c 35.1,-40.7 74.3,-75.6 116.4,-105.6"
         style="fill:#371a45;fill-opacity:1;fill-rule:nonzero;stroke:none"
         id="path186" /><path
         d="m 26832.9,8376.6 c 33.2,89.5 74.4,185.8 122.7,287.3 -48.3,-101.5 -89.5,-197.9 -122.7,-287.3"
         style="fill:#b7acbc;fill-opacity:1;fill-rule:nonzero;stroke:none"
         id="path188" /><path
         d="m 27363.4,6804.2 c -69,0 -137.9,10.6 -203.5,33 -73.3,25.1 -144.2,59.1 -208.4,104.7 -42.1,30 -81.3,64.9 -116.4,105.6 -77.9,90.2 -135.7,208.6 -160.2,363.6 -36.4,231.3 1.5,544.1 158,965.5 v 0 c 33.2,89.4 74.4,185.8 122.7,287.3 48.8,102.5 104.9,210.3 167.6,321.7 65.1,-33.6 565.7,-855.9 1538.5,-868.9 9.8,-0.1 19.7,-0.1 29.4,-0.1 751.1,-0.1 1107.2,388.9 1625.8,807.1 -665.4,-1120.3 -1839.8,-2023.6 -2890.7,-2116.6 -20.9,-2 -41.9,-2.9 -62.8,-2.9"
         style="fill:#9d98a0;fill-opacity:1;fill-rule:nonzero;stroke:none"
         id="path190" /><path
         d="m 30163.8,11409.7 c -14.6,0 -29.1,-0.7 -43.8,-2 -1267.2,-113.9 -2742.4,-2066.6 -3123.3,-3091.9 -171.1,-460.3 -205.2,-822.4 -98.8,-1047.2 59.8,-126.2 164.1,-213.4 318.7,-266.3 59.4,-20.4 124.7,-27.5 194.5,-21.4 777.7,68.7 1682.5,631 2361.3,1467.2 660.1,813.1 985,1728.2 891.5,2510.7 l 172.6,27.1 -173.3,-21.2 c -31,253.5 -250.4,445 -499.4,445 z M 27363.1,6629.5 c -90.5,0 -177.6,14.1 -259.8,42.4 -244.9,83.9 -420.2,234.4 -521,447.2 -149.8,316.3 -120.6,759.8 86.9,1318.3 403.9,1087 1934.3,3184.6 3419.6,3318.2 452.2,40.6 865.7,-295.1 921,-748.5 l 1,-7.6 c 104.5,-875.1 -248,-1885.5 -967.2,-2771.5 -736.3,-907 -1733.2,-1518.2 -2601.8,-1595 -26.4,-2.4 -52.7,-3.5 -78.7,-3.5"
         style="fill:#371a45;fill-opacity:1;fill-rule:nonzero;stroke:none"
         id="path192" /><path
         d="m 24919.7,9027.5 c -68.8,0 -134.1,40.9 -161.7,108.6 -257.4,630.9 -331.7,2896.3 1021,4502 62.1,73.7 172.3,83.2 246.1,21 73.8,-62.1 83.2,-172.3 21,-246.1 -1239.1,-1470.9 -1191.9,-3588.3 -964.8,-4144.9 36.5,-89.3 -6.4,-191.2 -95.7,-227.7 -21.6,-8.8 -43.9,-12.9 -65.9,-12.9"
         style="fill:#371a45;fill-opacity:1;fill-rule:nonzero;stroke:none"
         id="path194" /><path
         d="m 26279.4,9097 c 86.5,359.1 218.4,696.1 378.5,1025.2 158.9,328.8 354.6,642 585.3,931.3 231.2,288.2 500.4,552.6 810.8,765.3 153.9,107.9 319.8,199.1 490.3,279.9 l 130,56 c 44,17.2 88.8,32.2 133.2,48.4 87.8,34.7 180.6,54.9 271,80.8 92.6,26.6 189.2,-26.8 215.8,-119.4 25.9,-90 -24,-183.9 -111.9,-213.5 l -13.3,-4.4 c -159.4,-53.3 -318.6,-106.7 -468.5,-182.8 -151.1,-72.5 -298.6,-153.9 -436.2,-251.5 -138.5,-95.8 -273.3,-198.8 -398,-314.4 -126.4,-113.7 -246.5,-235.5 -358.9,-365.3 -113.3,-128.9 -218.8,-265.4 -320,-405.7 -100.2,-141.1 -193.5,-287.7 -283,-437.2 -89,-149.8 -170.6,-304.3 -247.3,-461.6 -77.4,-156.1 -148.4,-319.3 -209.8,-478.7 l -1.6,-4.2 c -17.4,-45 -67.9,-67.4 -112.9,-50.1 -41.4,15.9 -63.7,60 -53.5,101.9"
         style="fill:#371a45;fill-opacity:1;fill-rule:nonzero;stroke:none"
         id="path196" /><path
         d="m 19169.9,9868.4 -414.7,-530.9 -6.6,-8.7 C 17007.1,10909.7 16791,7820.4 15154.2,7696 c -1771.6,-134.5 -3782.1,2712 -3226.3,4718.2 2.1,9.1 4.8,18.3 7.8,27.9 4.8,16.2 9.6,32.3 14.4,48 113.1,360.6 290.4,589.8 492.1,730.9 594.2,416.5 1401,71.1 1401,71.1 0,0 265.8,1730.2 1848.9,1556.9 2414.3,-264.1 3260.4,-3841.5 3439,-4764.5 27.1,-137.5 38.8,-216.1 38.8,-216.1"
         style="fill:#ffffff;fill-opacity:1;fill-rule:nonzero;stroke:none"
         id="path198" /><path
         d="m 29742.1,16137.2 -344.5,2.9 c 6.1,736.4 -221,1331 -674.9,1767.3 -971.6,933.8 -2677.8,863.3 -2694.8,862.5 l -16.9,344.1 c 75.6,3.7 1869,79.8 2949.2,-957 525.8,-504.6 788.9,-1184.2 781.9,-2019.8"
         style="fill:#371a45;fill-opacity:1;fill-rule:nonzero;stroke:none"
         id="path200" /><path
         d="m 28390.4,7463.7 c -1009,0 -1695.8,505 -1733.3,533.1 -66.3,49.8 -79.6,143.8 -29.8,210.1 49.8,66.2 143.7,79.5 209.8,29.9 10.9,-8.1 1103.5,-805 2504.3,-305 78.1,27.8 163.9,-12.8 191.7,-90.9 27.9,-78 -12.9,-163.8 -90.8,-191.7 -376.2,-134.2 -730.5,-185.5 -1051.9,-185.5"
         style="fill:#371a45;fill-opacity:1;fill-rule:nonzero;stroke:none"
         id="path202" /><path
         d="m 29002.7,8734.8 c -952.5,0 -1759.3,299.9 -1810.1,319.2 -77.4,29.4 -116.3,115.9 -87,193.4 29.3,77.4 115.8,116.5 193.4,87.1 17.7,-6.8 1793.1,-664.9 3102.9,1.3 73.8,37.5 164.1,8.2 201.7,-65.6 37.5,-73.9 8.1,-164.2 -65.7,-201.8 -492.7,-250.6 -1034.2,-333.6 -1535.2,-333.6"
         style="fill:#371a45;fill-opacity:1;fill-rule:nonzero;stroke:none"
         id="path204" /><path
         d="m 29669.4,9940.8 c -780,0 -1582,197.6 -1636.4,211.3 -80.3,20.1 -129.1,101.6 -108.9,181.9 20,80.4 101.3,129.1 181.9,109.1 564.1,-141.4 2136,-405.9 2628.9,61.2 60.1,57 155.1,54.4 212.1,-5.6 56.9,-60.2 54.4,-155.1 -5.8,-212.1 -278.7,-264.2 -770.7,-345.8 -1271.8,-345.8"
         style="fill:#371a45;fill-opacity:1;fill-rule:nonzero;stroke:none"
         id="path206" /><path
         d="m 15364.5,7911.9 c 171.4,171.2 273.5,469.8 210.9,975.1 -11.9,96.3 -29.9,200.2 -54.4,312.1 -46.8,213.1 -129.7,468.1 -242.8,743.1 v 0 c -42.2,102.7 -88.6,208.1 -138.9,315.2 -510.1,1085.7 -1421.1,2339.3 -2412.9,2570.6 -50.5,11.8 -101,17.4 -150.9,17.4 -111,0 -218.6,-27.9 -314.3,-78.2 42.1,70.3 90.4,135.2 145,192.7 116.9,125 266.9,209.7 433.9,254 820.8,-99.7 1489.3,-729.7 2143,-1714.8 250.1,-377.1 806.8,-1694.4 970,-1694.4 19.7,0 33.7,19.2 40.7,61.5 75.5,456.7 -271.1,879.8 -71.2,1377.5 127.1,317.4 312.2,738.7 990.6,784.1 36.8,2.4 73.1,3.6 108.9,3.6 900.4,0 1499.5,-761.3 1824.2,-1338.2 85,-277.4 163.4,-557.2 237.2,-837.8 l 0.8,-3 c 5.4,-20.5 17.9,-37.8 34.5,-49.4 l -262.7,-336.3 -159.1,134.8 c -61.7,43.6 -120.2,89.9 -185,130.7 -67.1,38.6 -130.2,81.2 -205.1,111.4 l -54.4,24.4 c -17.8,8.5 -36.3,16.1 -56.4,21.5 l -117.8,35.8 c -71.3,16.6 -146.4,25.4 -221.9,25.4 -96.3,0 -193.2,-14.2 -284.1,-44.3 -162.8,-52.4 -300.6,-144 -418.4,-243.2 -232.7,-202.8 -404.5,-434.3 -575.5,-656.1 -169.2,-222.7 -333.5,-441.5 -516.6,-632.1 -91.9,-94.1 -186.7,-184.2 -289.7,-257 -25.2,-19.4 -50.7,-38 -77.6,-53.4 -26.6,-16.1 -52.6,-33.6 -79.6,-48.8 -55.1,-26.8 -109,-57.2 -166.6,-75.7 -27.3,-12.1 -55.4,-20.7 -83.8,-28.2"
         style="fill:#d7d1da;fill-opacity:1;fill-rule:nonzero;stroke:none"
         id="path208" /><path
         d="m 19083.5,9855.4 c -191.9,730 -415.8,1454.7 -701.6,2146.5 -143.9,345.5 -308.5,681.6 -500.7,998.4 -191.4,317 -413.3,613.6 -670.9,868.9 l -97.2,94.9 c -32.8,31.1 -68.4,58.7 -102.4,88.2 -34.7,28.4 -67.7,59.6 -103.8,85.9 l -108.7,78.6 -54,39.7 c -18.4,12.7 -37.8,23.4 -56.6,35.2 l -113.8,69.6 c -36.9,25.2 -78.6,40.7 -117.7,61.4 l -119,58.5 -123.7,46.8 c -41.4,14.9 -81.7,33.7 -124.9,43 l -127.5,34.3 c -21.4,5.4 -42.3,12.5 -64,16.5 l -65.3,10.4 c -174.3,34.2 -347.7,45.8 -515.9,29.2 -168.4,-15.4 -327.7,-66.2 -474,-141.7 -72.1,-39.7 -142.6,-83.6 -206.3,-137.8 -64.8,-52.6 -125.1,-111.9 -180,-177.3 -111.5,-129 -201.7,-280.7 -275.6,-440.8 -36.2,-80.5 -68.9,-163.3 -97.1,-247.6 -13.9,-42.1 -26.9,-84.7 -38.3,-127.3 -11.3,-41.3 -22.2,-88.1 -28.8,-123.1 v -0.1 l -37.8,-217.6 -203.5,83.6 c -21.8,8.9 -55,20.8 -83.8,30.3 -30.2,9.6 -60.7,18.9 -91.6,27.1 -61.7,16.4 -124.3,30.4 -187.1,40.5 -125.5,20.1 -252.1,28 -374.3,17.3 -245.2,-18.6 -469.9,-114.3 -631.4,-287 -81.4,-85.6 -148.6,-187.8 -202.7,-299.8 -53.3,-112.8 -92.3,-234.9 -123.7,-361 -61.9,-251.8 -81.1,-515.8 -66.2,-779.4 30.6,-528.6 191.3,-1052.5 427.7,-1535.1 238,-482.6 554.1,-930.2 936.9,-1304.5 191.6,-186.5 400.7,-354.2 625.7,-490.5 224.8,-135.3 466.1,-243 715.6,-290.2 62.3,-10.7 124.5,-24 187.2,-26 31.2,-1.9 62.5,-6.1 93.7,-6.4 l 93.3,2.3 46.7,0.9 44.8,6.2 c 29.8,4.4 59.9,7.4 89.6,12.4 58,16.3 117.6,26.5 173.5,51.3 57.6,18.5 111.5,48.9 166.6,75.7 27,15.2 53,32.7 79.6,48.8 26.9,15.4 52.4,34 77.6,53.4 103,72.8 197.8,162.9 289.7,257 183.1,190.6 347.4,409.4 516.6,632.1 171,221.8 342.8,453.3 575.5,656.1 117.8,99.2 255.6,190.8 418.4,243.2 162.2,53.7 343.8,56.7 506,18.9 l 117.8,-35.8 c 20.1,-5.4 38.6,-13 56.4,-21.5 l 54.4,-24.4 c 74.9,-30.2 138,-72.8 205.1,-111.4 64.8,-40.8 123.3,-87.1 185,-130.7 l 169.1,-143.3 c 73.6,-62.4 82.7,-172.6 20.3,-246.3 -62.3,-73.6 -172.6,-82.7 -246.2,-20.3 -1.6,1.3 -3.1,2.7 -4.6,4 l -4.3,4 c -194.4,178.1 -412.9,327.6 -633.2,385.7 -109.8,24.2 -216,22 -319.2,-11.5 -103.2,-33 -203.6,-96.5 -298.5,-176.6 -189.7,-164 -355.9,-381.9 -524.1,-601.7 -168.4,-221.2 -339.2,-450.2 -542.7,-662.6 -102.7,-105.2 -211,-208.4 -335.7,-297.1 -30.2,-23.1 -61.2,-45.4 -94.7,-65 -32.9,-20.2 -65.1,-41.4 -98.8,-60.4 -69.9,-35 -138.5,-72.3 -213.8,-97.4 -72.6,-31.1 -150.9,-46.7 -227.4,-66.7 -39,-6.9 -78.4,-11.3 -117.6,-16.8 l -58.8,-7.6 -57.9,-1.6 -115.9,-2.5 c -38.5,0.4 -76.6,5 -114.9,7.5 -77.1,3.3 -151.8,18.4 -226.8,31.5 -299.8,57.5 -575.9,182.2 -828,333.8 -252.2,152.9 -480.8,336.9 -688.7,539.3 -415.1,406.1 -751.4,883.4 -1006.9,1400.8 -253.1,517.7 -428.3,1081.7 -462.8,1669.2 -16.5,293 4.3,591.7 75.6,882.1 36,144.4 81.8,289 148,428.9 67,139.1 154,273.4 265,390.1 110.2,117.3 246.4,213.5 394.3,278.8 147.7,66.4 305.4,103.2 460.9,115.2 155.9,13.4 309.9,3.2 459.5,-20.7 75,-12 148.7,-28.5 221.7,-48 36.6,-9.7 72.8,-20.7 109.1,-32.3 37.4,-12.5 70,-23.6 112.8,-41.2 l -241.3,-134 v 0.2 c 9.4,59.1 19.5,105.6 31.7,156.7 12,50 25.5,99.2 40.3,148.1 29.5,97.7 64.4,193.8 105.6,287.8 82.9,187.5 186.6,369.4 322.3,532 133.3,163.5 300.5,306.3 490.6,411 190.9,103.2 403.4,167.2 615.4,187.7 212.2,21.6 423.3,6.4 623.8,-32.2 l 76,-12.4 c 25.3,-4.7 49.9,-12.6 74.8,-18.8 l 149.1,-39.9 c 50.4,-11.3 97.5,-32.3 145.8,-49.7 l 144.1,-54.7 c 46.5,-21.5 92.2,-44.7 138.3,-67.1 45.3,-23.8 93.6,-42.7 136.1,-70.9 l 130.8,-79.6 c 21.6,-13.5 43.9,-26.1 64.9,-40.5 l 61.5,-44.8 122.4,-90.6 c 40.5,-30.6 77,-65.4 115.7,-97.9 37.7,-33.5 77.2,-65.3 113.2,-100.3 l 106.6,-106.4 c 281.5,-286.2 515.9,-609.4 715.1,-948.1 199.8,-338.8 367.6,-692.7 512.9,-1053.8 146.1,-361 261.1,-732.5 355.6,-1107.9 91.2,-376.8 163.1,-755.6 193.1,-1145.3 3.7,-48.2 -32.3,-90.2 -80.5,-93.9 -42.9,-3.4 -80.9,24.8 -91.4,64.9 l -0.8,3"
         style="fill:#371a45;fill-opacity:1;fill-rule:nonzero;stroke:none"
         id="path210" /><path
         d="m 17616.1,9564.1 c -17.2,0 -34.6,2.5 -51.9,7.9 -92.1,28.6 -143.6,126.5 -114.9,218.6 842.9,2711.3 -1115.2,4713.4 -1135.1,4733.3 -68.1,68.2 -68.2,178.8 0,246.9 68.1,68.2 178.5,68.4 246.8,0.3 21.9,-21.9 542.7,-546.8 956.4,-1435.6 382.8,-822.6 739.6,-2123.2 265.4,-3648.6 -23.2,-74.8 -92.2,-122.8 -166.7,-122.8"
         style="fill:#371a45;fill-opacity:1;fill-rule:nonzero;stroke:none"
         id="path212" /><path
         d="m 15911.3,9787.3 c -29.9,168.1 -69.4,341.7 -116,509.6 -46.7,168.6 -97.7,335.9 -157.4,499.7 -59.8,163.7 -125.8,324.6 -197,482.4 -72.6,157.2 -152.9,310.2 -240.7,457.8 -177.4,293.8 -381.4,569.5 -622.5,805.5 -236.9,240.5 -513.3,435.1 -810.1,592.5 l -8.9,4.7 c -85.2,45.1 -117.6,150.8 -72.5,235.9 44.5,83.9 147.9,116.5 232.3,74.4 84.2,-42.2 171.5,-79.2 251.6,-129.4 40.6,-24 81.9,-47 122,-72 l 117.2,-79.4 c 152.7,-110.6 299.1,-230.7 430.5,-365 131.1,-134.4 254.2,-276.5 361.1,-429.3 108.5,-151.5 207.7,-309.1 292.3,-473.4 171.6,-327.4 309.3,-669.5 404.8,-1021.9 97.7,-352.4 165.8,-707.7 187.2,-1076.1 2.8,-48.2 -33.9,-89.5 -82,-92.3 -44.7,-2.6 -83.5,28.9 -91.1,71.9 l -0.8,4.4"
         style="fill:#371a45;fill-opacity:1;fill-rule:nonzero;stroke:none"
         id="path214" /><path
         d="m 14715,7727.3 c 87.9,-20.4 179.5,-24.4 268.1,-7.2 401.4,77.5 772.5,411.1 537.8,1479.1 -241.8,1100.4 -1443,3313.5 -2794.3,3628.6 -354.4,82.7 -713.9,-136.6 -807.8,-488.2 -0.5,-2 -1.1,-4.1 -1.6,-6.2 -476.8,-1804.3 1173.2,-4229.8 2797.8,-4606.1"
         style="fill:#b7b7b7;fill-opacity:1;fill-rule:nonzero;stroke:none"
         id="path216" /><path
         d="m 15139.3,10257.4 c -510.2,1085.7 -1421,2339.2 -2412.7,2570.4 -50.5,11.8 -101.2,17.5 -151.1,17.5 -111.1,0 -218.7,-27.9 -314.5,-78.3 0.1,0 0.1,0.1 0.2,0.2 95.7,50.3 203.3,78.2 314.3,78.2 49.9,0 100.4,-5.6 150.9,-17.4 991.8,-231.3 1902.8,-1484.9 2412.9,-2570.6"
         style="fill:#e7e3e9;fill-opacity:1;fill-rule:nonzero;stroke:none"
         id="path218" /><path
         d="m 12076.7,10401.1 c -239.6,646.5 -320.4,1324.6 -159.8,1932.3 0.9,2.2 1.4,4.4 1.8,6.1 50.7,190.3 179.2,341.7 342.5,427.7 -0.1,-0.1 -0.1,-0.2 -0.2,-0.2 -163.1,-86 -291.4,-237.3 -342.2,-427.4 -0.5,-2 -1.1,-4.1 -1.6,-6.2 -160.5,-607.3 -80.1,-1284.9 159.3,-1931.2 0.1,-0.4 0.2,-0.8 0.2,-1.1"
         style="fill:#87768f;fill-opacity:1;fill-rule:nonzero;stroke:none"
         id="path220" /><path
         d="m 15256.5,9919.1 c -547.1,1006.4 -1408,2060.4 -2334.1,2273.7 -53,12.3 -106.1,18.1 -158.4,18.1 -307.6,0 -588.9,-202.8 -670.2,-503.1 -0.9,-2.2 -1.3,-4 -1.8,-6.1 -110.3,-411 -106.5,-855 -15.5,-1299.5 -239.4,646.3 -319.8,1323.9 -159.3,1931.2 0.5,2.1 1.1,4.2 1.6,6.2 50.8,190.1 179.1,341.4 342.2,427.4 95.8,50.4 203.4,78.3 314.5,78.3 49.9,0 100.6,-5.7 151.1,-17.5 991.7,-231.2 1902.5,-1484.7 2412.7,-2570.4 50.3,-107.2 96.6,-212.5 138.9,-315.2 -7.1,-7.8 -14.4,-15.5 -21.7,-23.1"
         style="fill:#d4d4d4;fill-opacity:1;fill-rule:nonzero;stroke:none"
         id="path222" /><path
         d="m 14869,7709.3 c -0.1,0 -0.1,0 -0.1,0 38.2,0 76.5,3.5 114.2,10.8 59.1,11.4 117.6,28.4 173.6,52.4 -56,-24.1 -114.5,-41.1 -173.6,-52.5 -37.7,-7.3 -75.9,-10.7 -114.1,-10.7"
         style="fill:#371a45;fill-opacity:1;fill-rule:nonzero;stroke:none"
         id="path224" /><path
         d="m 15575.4,8887 c -12,96.4 -29.9,200.2 -54.5,312.2 -46.8,213.2 -129.7,468.2 -242.7,743 v 0 c 113.1,-275 196,-530 242.8,-743.1 24.5,-111.9 42.5,-215.8 54.4,-312.1"
         style="fill:#b7acbc;fill-opacity:1;fill-rule:nonzero;stroke:none"
         id="path226" /><path
         d="m 14868.9,7709.3 c -51.7,0 -103.4,6.3 -153.9,18.1 -929.5,215.2 -1867.7,1101.9 -2410.8,2158.9 345,-317.9 969.5,-584.3 1409.6,-587.5 4.5,-0.1 9,-0.1 13.5,-0.1 554.6,0 1170.9,247.2 1529.2,620.4 40.8,-74.9 79.8,-149.6 116.9,-223.6 v 0 0 c -28.8,79.9 -60.6,162.4 -95.2,246.7 v 0 c 113,-274.8 195.9,-529.8 242.7,-743 24.6,-112 42.5,-215.8 54.5,-312.2 85.1,-687.5 -134.7,-992.2 -418.7,-1114.5 -56,-24 -114.5,-41 -173.6,-52.4 -37.7,-7.3 -76,-10.8 -114.2,-10.8"
         style="fill:#9d98a0;fill-opacity:1;fill-rule:nonzero;stroke:none"
         id="path228" /><path
         d="m 15373.4,9695.5 c -37.1,74 -76.1,148.7 -116.9,223.6 7.3,7.6 14.6,15.3 21.7,23.1 34.6,-84.3 66.4,-166.8 95.2,-246.7"
         style="fill:#b5afb7;fill-opacity:1;fill-rule:nonzero;stroke:none"
         id="path230" /><path
         d="m 14754.4,7897.4 c 68.1,-15.8 133.9,-17.8 195.6,-5.9 160.4,31 275.7,102.8 352.5,219.5 136.6,207.8 153.2,571.1 47.8,1050.8 -234.7,1068.2 -1424.2,3207 -2663.4,3496 -261,60.8 -529.6,-102.1 -599.4,-363.2 l -170.3,38.8 168.8,-44.6 c -201.3,-761.9 -6.8,-1713.3 533.8,-2610.1 556,-922.5 1373.9,-1605.1 2134.6,-1781.3 z m 114,-362.8 c -63.4,0 -127.9,7.5 -192.8,22.5 v 0 c -849.5,196.8 -1751.8,940.7 -2355,1941.3 -589,977.3 -797.6,2026.9 -572.3,2879.6 l 2.5,9.1 c 117.1,438.9 573.1,714 1015.4,610.8 1452.4,-338.7 2676.4,-2628.6 2925.2,-3761.2 127.9,-581.9 95.2,-1025.2 -97.1,-1317.6 -129.4,-196.7 -323.9,-321.4 -578.1,-370.5 -48.4,-9.4 -97.8,-14 -147.8,-14"
         style="fill:#371a45;fill-opacity:1;fill-rule:nonzero;stroke:none"
         id="path232" /><path
         d="m 14280.4,8483.3 c -435.6,0 -944.4,92 -1474.4,378.2 -72.9,39.4 -100.1,130.4 -60.7,203.3 39.4,72.9 130.4,100 203.3,60.7 1308.7,-706.8 2509.6,-85.1 2521.5,-78.7 73,38.9 163.9,11.3 202.9,-61.8 38.9,-72.9 11.6,-163.6 -61.3,-202.7 -34.7,-18.6 -571.4,-299 -1331.3,-299"
         style="fill:#371a45;fill-opacity:1;fill-rule:nonzero;stroke:none"
         id="path234" /><path
         d="m 14184.6,9810.6 c -674.5,0 -1548.9,119.2 -2246.1,620 -67.3,48.4 -82.7,142.1 -34.3,209.4 48.3,67.2 142.1,82.7 209.3,34.3 1195.7,-859 3048.1,-476.4 3066.7,-472.5 81,17.3 160.7,-34.4 178,-115.3 17.3,-81.1 -34.3,-160.8 -115.4,-178.1 -37.7,-8 -472.7,-97.8 -1058.2,-97.8"
         style="fill:#371a45;fill-opacity:1;fill-rule:nonzero;stroke:none"
         id="path236" /><path
         d="m 13905.6,11094 c -712.2,0 -1784.4,90.9 -2180.8,601.9 -50.8,65.4 -38.9,159.7 26.5,210.5 65.5,50.7 159.8,38.9 210.5,-26.6 416.6,-537.2 2010.4,-514 2589.1,-459.7 82.9,7.6 155.6,-52.9 163.3,-135.4 7.8,-82.4 -52.8,-155.6 -135.3,-163.3 -31.3,-2.9 -303.9,-27.4 -673.3,-27.4"
         style="fill:#371a45;fill-opacity:1;fill-rule:nonzero;stroke:none"
         id="path238" /></g></g></svg>
