<?xml version="1.0" encoding="UTF-8" standalone="no"?>
<svg
   xmlns:dc="http://purl.org/dc/elements/1.1/"
   xmlns:cc="http://creativecommons.org/ns#"
   xmlns:rdf="http://www.w3.org/1999/02/22-rdf-syntax-ns#"
   xmlns:svg="http://www.w3.org/2000/svg"
   xmlns="http://www.w3.org/2000/svg"
   xmlns:sodipodi="http://sodipodi.sourceforge.net/DTD/sodipodi-0.dtd"
   xmlns:inkscape="http://www.inkscape.org/namespaces/inkscape"
   version="1.1"
   id="svg2"
   xml:space="preserve"
   width="5333.3335"
   height="5333.3335"
   viewBox="0 0 5333.3335 5333.3335"
   sodipodi:docname="4500_5_10.eps"><metadata
     id="metadata8"><rdf:RDF><cc:Work
         rdf:about=""><dc:format>image/svg+xml</dc:format><dc:type
           rdf:resource="http://purl.org/dc/dcmitype/StillImage" /></cc:Work></rdf:RDF></metadata><defs
     id="defs6" /><sodipodi:namedview
     pagecolor="#ffffff"
     bordercolor="#666666"
     borderopacity="1"
     objecttolerance="10"
     gridtolerance="10"
     guidetolerance="10"
     inkscape:pageopacity="0"
     inkscape:pageshadow="2"
     inkscape:window-width="640"
     inkscape:window-height="480"
     id="namedview4" /><g
     id="g10"
     inkscape:groupmode="layer"
     inkscape:label="ink_ext_XXXXXX"
     transform="matrix(1.3333333,0,0,-1.3333333,0,5333.3333)"><g
       id="g12"
       transform="scale(0.1)"><path
         d="M 0,0 H 40000 V 40000 H 0 Z"
         style="fill:#fff59e;fill-opacity:1;fill-rule:nonzero;stroke:none"
         id="path14" /><path
         d="M 7610.01,7936.7 V 31962.5 L 10407.7,29964.2 V 9935 L 7610.01,7936.7"
         style="fill:#ffcb80;fill-opacity:1;fill-rule:nonzero;stroke:none"
         id="path16" /><path
         d="M 10407.7,9934.9 H 29592.5 V 30065 H 10407.7 Z"
         style="fill:#ffcb80;fill-opacity:1;fill-rule:nonzero;stroke:none"
         id="path18" /><path
         d="M 12580.2,12214.5 H 27420 V 27785.4 H 12580.2 Z"
         style="fill:#220f2d;fill-opacity:1;fill-rule:nonzero;stroke:none"
         id="path20" /><path
         d="M 26799,25217.3 V 14782.6 c 0,-1058.4 -858.1,-1916.5 -1916.6,-1916.5 h -9764.6 c -1058.5,0 -1916.6,858.1 -1916.6,1916.5 v 10434.7 c 0,1058.4 858.1,1916.5 1916.6,1916.5 h 9764.6 c 1058.5,0 1916.6,-858.1 1916.6,-1916.5"
         style="fill:#220f2d;fill-opacity:1;fill-rule:nonzero;stroke:none"
         id="path22" /><path
         d="m 28729.9,21486.7 c -0.4,7.8 -0.8,15.6 -1.3,23.3 -1.6,21.9 -3.5,43.7 -5.8,65.3 -1,8.6 -2.2,17.1 -3.2,25.6 -1.8,14.3 -3.6,28.6 -5.7,42.7 -1.4,10 -3.1,19.9 -4.7,29.8 -2.1,12.9 -4.4,25.7 -6.8,38.5 -1.8,9.6 -3.6,19.3 -5.6,28.8 -3.2,15.5 -6.7,30.8 -10.4,46.1 -2.5,10.5 -5.1,21 -7.8,31.4 -4,15.8 -8.3,31.4 -12.8,46.8 -2.6,9 -5.4,17.9 -8.2,26.8 -3.8,12 -7.7,24 -11.7,35.9 -3.1,8.9 -6.2,17.8 -9.4,26.6 -4.6,12.6 -9.4,25.1 -14.3,37.4 -2.9,7.4 -5.7,14.9 -8.7,22.3 -7.6,18.4 -15.7,36.5 -24,54.3 -3.4,7.2 -7,14.3 -10.5,21.4 -5.7,11.7 -11.5,23.3 -17.5,34.8 -4.1,7.7 -8.3,15.3 -12.5,22.9 -6.1,11.2 -12.4,22.1 -18.9,32.9 -4.1,6.9 -8.1,13.8 -12.3,20.6 -10.2,16.5 -20.7,32.8 -31.7,48.6 -3,4.4 -6.2,8.6 -9.3,12.9 -8.7,12.1 -17.5,24.1 -26.5,35.8 -4.7,6.2 -9.6,12.2 -14.5,18.2 -4.6,5.8 -9.2,11.7 -13.9,17.3 1.2,7.6 2.3,15.1 3.5,22.6 0.9,6 1.7,12 2.7,18 5.7,37.7 11.1,75.5 16,113.3 1.4,10.5 2.6,21 3.9,31.6 4.2,34 8,68 11.5,102 1.1,11.1 2.2,22.2 3.3,33.3 3.3,35.1 6.2,70.1 8.8,105.2 0.6,9.2 1.4,18.4 2,27.6 2.9,42.2 5.2,84.4 7,126.7 0.1,1.7 0.2,3.4 0.3,5 3.7,91.3 4.8,182.7 3.4,274 -0.1,6.7 -0.3,13.4 -0.5,20 -0.7,37.9 -1.8,75.8 -3.5,113.6 -0.4,9.5 -0.8,19 -1.3,28.4 -1.7,36 -3.8,72 -6.4,108.1 -0.6,9.1 -1.2,18.3 -1.9,27.4 -3,38.9 -6.4,77.8 -10.3,116.6 -0.4,4 -0.6,8.1 -1,12.1 l -0.1,-0.3 c -105.9,1035.7 -541.5,2049.2 -1313.5,2875.5 -363.2,388.2 -774.2,707.6 -1215.8,955.4 -51.4,29.4 -103.8,57.5 -156.7,84.4 -141,73.1 -284.7,139.1 -430.7,198.1 -337.7,136.1 -687.6,234.5 -1042.4,295.3 -354.6,61.1 -715,84.4 -1073.6,69.7 -114,-4.6 -227.9,-12.9 -341.7,-25.3 -170.5,-18.7 -340.1,-45.5 -508.8,-81.8 -840.3,-178.3 -1643.9,-573.1 -2320.4,-1188.6 -373.1,-339.2 -681.3,-721.9 -924.7,-1133 l -1.1,-1.2 c 0,0 -8.8,-15 -24.1,-42.2 -113.7,-196.5 -212.6,-399.3 -296.7,-606.9 -154,-363 -308.2,-825.7 -322,-1246.4 l -0.1,-1.6 c -3,-25.1 -5.6,-50.2 -8.3,-75.4 -2.3,-22.4 -4.8,-44.8 -6.9,-67.2 -3.6,-39.7 -6.6,-79.5 -9.2,-119.3 -1.6,-22.6 -2.9,-45.3 -4.1,-68 -2,-38.1 -3.7,-76.1 -4.9,-114.2 -0.6,-20.8 -0.8,-41.6 -1.1,-62.4 -0.6,-31.7 -0.9,-63.4 -0.8,-95.1 0.1,-21.1 0.2,-42.2 0.6,-63.4 0.5,-33.2 1.4,-66.4 2.6,-99.6 0.7,-18.7 1.2,-37.3 2.1,-56 2.3,-49.8 5.2,-99.6 9.1,-149.4 0.1,-1.5 0.2,-3 0.3,-4.5 18.9,-242.1 56.4,-483.1 111.5,-721.2 0.3,-2.3 0.5,-3.9 0.5,-3.9 l 1.5,-5.2 c 40,-171.5 89.2,-341.5 148,-509.2 l 1.3,-4.5 0.8,-1.3 c 24.6,-69.7 51,-139 78.8,-207.9 127,-314.3 287.3,-619 482.3,-908.7 55.1,-81.6 112.9,-161.9 173.2,-240.9 48.3,-63.4 97.9,-126.1 149.7,-187.7 25.2,-30 51.1,-59.7 77.2,-89.4 7.2,-8.1 14.3,-16.1 21.5,-24.2 25.7,-28.8 51.6,-57.5 77.8,-86.1 184.7,-197.5 381.4,-376.7 588.7,-537.9 54,-42.2 109,-82.8 164.5,-122.5 79.7,-57.1 160.6,-112 242.9,-163.9 -534.1,-660.1 -727,-2023.1 -882.4,-3363.6 -2280.5,45.7 -4753,-260.4 -4753,-260.4 0,0 -1025.9,1947.1 -2171.1,994.9 -1137.9,-946.1 88.2,-4192.2 1183.7,-4251.1 173.9,-9.3 2924.9,-8 5273.8,-5.2 490.8,-181.5 1118.1,-322.2 1379.5,-319.6 196.1,2.1 553.1,72.9 851,322.8 680.6,1.2 1120.2,2 1120.2,2 l -437.4,2373.5 c 127.9,1177.7 185.2,2391.6 185.2,2391.6 l 612.6,667.4 c 0,0 -20.6,316.8 -141.3,688.9 91.1,-8.8 182.5,-15.1 274,-19 971,-42.1 1952.2,192.4 2812.2,709.5 210,126.2 412.7,269.5 606.4,429.5 4.1,-1.4 8.1,-3.1 12.2,-4.4 228.2,-74 473,-61.2 711,21.8 4.7,0.1 9.5,0.1 14.2,0.4 333.2,2.5 695.3,185.2 976.4,531 390.9,480.9 504.7,1128.5 316.1,1595.4"
         style="fill:#220f2d;fill-opacity:1;fill-rule:nonzero;stroke:none"
         id="path24" /><path
         d="m 12579.9,27871.2 v -15657 L 10407.7,9934.9 v 6363.5 c 1495.9,923.7 2241.3,3476.7 1721.3,7425.4 -219,1663.9 -987.9,3071.1 -1721.3,4078.2 v 2263 l 2172.2,-2193.8"
         style="fill:#dd985f;fill-opacity:1;fill-rule:nonzero;stroke:none"
         id="path26" /><path
         d="M 27398.5,27839.1 H 12654.6 l -2279.3,2172.2 h 3473.3 c 0,0 2121.9,-1674.7 6151.5,-1674.7 4551.7,0 6151.5,1674.7 6151.5,1674.7 h 3440.7 l -2193.8,-2172.2"
         style="fill:#dd985f;fill-opacity:1;fill-rule:nonzero;stroke:none"
         id="path28" /><path
         d="M 12580,12194.2 10407.7,9935 h 19184.6 l -1977.3,2074.8 -15035,184.4"
         style="fill:#dd985f;fill-opacity:1;fill-rule:nonzero;stroke:none"
         id="path30" /><path
         d="m 27265.4,12160.9 2259.2,-2172.3 v 19952.7 l -2074.8,-1977.4 -184.4,-15803"
         style="fill:#dd985f;fill-opacity:1;fill-rule:nonzero;stroke:none"
         id="path32" /><path
         d="M 10567.5,10094.9 H 29432.4 V 29905 H 10567.5 V 10094.9 M 29752.2,9775.2 H 10247.8 V 30224.8 H 29752.2 V 9775.2"
         style="fill:#371a45;fill-opacity:1;fill-rule:nonzero;stroke:none"
         id="path34" /><path
         d="M 12739.8,12374.2 H 27260.2 V 27625.7 H 12739.8 V 12374.2 m 14840.1,-319.7 H 12420.1 V 27945.4 H 27579.9 V 12054.5"
         style="fill:#371a45;fill-opacity:1;fill-rule:nonzero;stroke:none"
         id="path36" /><path
         d="m 23705.4,11785.2 c 0,0 -8317.9,-16.5 -8624.5,0 -1095.5,58.8 -2321.6,3304.9 -1183.8,4251 1145.3,952.3 2171.2,-994.9 2171.2,-994.9 0,0 4588.6,568.1 7029.5,40.9 l 607.6,-3297"
         style="fill:#ffffff;fill-opacity:1;fill-rule:nonzero;stroke:none"
         id="path38" /><path
         d="m 17484.9,11617.8 c -1296.2,0 -2306.8,1.9 -2412.4,7.6 -124.9,6.8 -252,45.8 -377.8,115.8 -884.9,488.4 -1721.7,2581.3 -1299.7,3813.7 5.4,15.9 11.1,31.7 17,47.4 v 0.4 l 11.2,28.8 c 22.7,57.3 49,113.2 78.1,166.1 77.4,142.1 176.3,263.9 293.6,361.5 302.9,251.9 627.6,345.5 964.7,278.6 698.6,-138.9 1228.2,-942.1 1395.3,-1224.9 719.2,83.8 4714.4,514.4 6976.7,25.7 86.4,-18.6 141.2,-103.7 122.6,-190 -18.6,-86.3 -103.9,-141.5 -190,-122.5 -2386.6,515.3 -6930.7,-37.5 -6976.4,-43.2 l -109.6,-13.6 -51.5,97.8 c -5.3,10.1 -547.1,1021.9 -1229.9,1157.2 -241.4,47.9 -469.3,-21.2 -697.4,-210.9 -86.2,-71.6 -159.4,-162.2 -217.7,-269.2 -19.7,-36 -37.6,-73.2 -53.5,-111.4 l -8.1,-20.3 c -8.1,-20 -15.5,-40 -22.5,-60.7 -365.5,-1067.4 397.1,-3014.1 1152.1,-3430.8 83.6,-46.6 164.2,-72.2 240,-76.3 238.9,-12.7 5739.9,-5.5 8615.4,0.2 h 0.3 c 88.2,0 159.7,-71.3 159.9,-159.5 0.2,-88.3 -71.2,-160 -159.6,-160.2 -223.1,-0.4 -3742.9,-7.3 -6220.8,-7.3"
         style="fill:#371a45;fill-opacity:1;fill-rule:nonzero;stroke:none"
         id="path40" /><path
         d="m 16213.7,15107.6 c 76.9,-242.8 145.2,-480.2 178.3,-734.7 5.4,-44 -26,-84 -70,-89.3 -38.9,-4.7 -74.6,19.3 -86.1,55.2 -38.4,108.9 -88.8,217 -142.2,323.5 -53.2,105 -111.5,212.5 -171.1,313 -45.5,76.3 -20.6,175.1 55.6,220.6 86.8,53.4 205.2,8.7 235.5,-88.3"
         style="fill:#371a45;fill-opacity:1;fill-rule:nonzero;stroke:none"
         id="path42" /><path
         d="m 14772.4,11880.9 c -837.7,462.4 -1616.2,2483.1 -1226.1,3622.2 12,21.6 20.4,44.8 25.5,69.1 v 0.4 c 10.8,53.6 35.2,103.5 69.6,147.9 232.6,299.8 938,358.1 1302.1,-330.9 430.4,-815.7 1291.7,-3444.3 -171.1,-3508.7"
         style="fill:#c0bfc1;fill-opacity:1;fill-rule:nonzero;stroke:none"
         id="path44" /><path
         d="m 13543.1,13972.8 c -21.8,95.7 -40.3,191.6 -55.3,287 14.9,-94.9 33.4,-190.3 55.1,-285.5 0,-0.6 0.1,-1 0.2,-1.5"
         style="fill:#c3bac7;fill-opacity:1;fill-rule:nonzero;stroke:none"
         id="path46" /><path
         d="m 15440.5,14035.6 c -132.8,527.8 -328.7,1025.1 -479.1,1319.4 150.5,-294.4 346.4,-791.7 479.1,-1319.4"
         style="fill:#ffffff;fill-opacity:1;fill-rule:nonzero;stroke:none"
         id="path48" /><path
         d="m 13487.6,14260.8 c -0.1,0.3 -0.1,0.7 -0.2,1 0.1,-0.3 0.1,-0.6 0.2,-1"
         style="fill:#c3bac7;fill-opacity:1;fill-rule:nonzero;stroke:none"
         id="path50" /><path
         d="m 14961.2,15355.5 c -0.3,0.6 -0.7,1.3 -1,2 0.3,-0.7 0.7,-1.4 1,-2 m -1.3,2.5 c -0.3,0.6 -0.6,1.2 -0.9,1.8 0.3,-0.6 0.6,-1.2 0.9,-1.8 m -1.3,2.6 c -0.3,0.6 -0.6,1.1 -0.9,1.7 0.3,-0.5 0.6,-1.1 0.9,-1.7 m -1.3,2.5 c -0.3,0.5 -0.5,1 -0.7,1.4 0.2,-0.5 0.4,-0.9 0.7,-1.4 m -1.3,2.5 c -0.2,0.4 -0.4,0.8 -0.6,1.2 0.2,-0.4 0.4,-0.8 0.6,-1.2 m -1.3,2.6 c -0.2,0.2 -0.2,0.4 -0.4,0.6 0.1,-0.2 0.3,-0.4 0.4,-0.6 m -1.3,2.4 c -0.1,0.2 -0.2,0.5 -0.3,0.7 0.1,-0.3 0.2,-0.5 0.3,-0.7 m -1.3,2.5 c 0,0.1 -0.1,0.3 -0.2,0.5 0.1,-0.2 0.2,-0.4 0.2,-0.5 m -1.2,2.4 c -0.1,0.1 -0.2,0.3 -0.2,0.4 0,-0.1 0.1,-0.3 0.2,-0.4 m -1.3,2.4 c 0,0.1 -0.1,0.2 -0.1,0.3 0,-0.1 0.1,-0.2 0.1,-0.3 m -1.2,2.3 c 0,0.1 -0.1,0.3 -0.2,0.4 0.1,-0.1 0.2,-0.3 0.2,-0.4 m -1.3,2.5 v 0 0 m -1.2,2.3 c 0,0 0,0 0,0.1 0,-0.1 0,-0.1 0,-0.1"
         style="fill:#ffffff;fill-opacity:1;fill-rule:nonzero;stroke:none"
         id="path52" /><path
         d="m 13544.4,15497.6 c 0.1,0.3 0.2,0.7 0.4,1 -0.2,-0.3 -0.3,-0.7 -0.4,-1 m 0.9,2.7 c 0.3,0.9 0.6,1.8 1,2.8 -0.3,-0.9 -0.7,-1.9 -1,-2.8"
         style="fill:#c3bac7;fill-opacity:1;fill-rule:nonzero;stroke:none"
         id="path54" /><path
         d="m 15555,13455.6 c -134.7,617.1 -371.7,1220.2 -541.2,1541.9 -208,393.8 -527.6,543.5 -806.7,543.5 -209.3,0 -395.7,-84.1 -495.4,-212.6 -34.3,-44.3 -58.7,-94.3 -69.5,-147.8 v -0.4 c -5.2,-24.4 -13.6,-47.6 -25.6,-69.2 -111.8,-325.7 -127.4,-723.6 -73.7,-1136.7 -21.7,95.2 -40.2,190.6 -55.1,285.5 -0.1,0.3 -0.2,0.7 -0.2,1 -0.1,0.4 -0.1,0.7 -0.2,1 -70.2,447.8 -62.1,883.6 57,1235.8 0.1,0.3 0.2,0.7 0.4,1 0.1,0.6 0.3,1.1 0.5,1.7 0.3,0.9 0.7,1.9 1,2.8 v 0 c 12,21.6 20.4,44.8 25.5,69.1 v 0.4 c 10.8,53.6 35.2,103.5 69.6,147.9 99.6,128.4 286.1,212.6 495.3,212.6 279.1,0 598.7,-149.7 806.8,-543.5 0.8,-1.5 1.6,-3 2.4,-4.5 0,-0.1 0,-0.1 0,-0.1 0.4,-0.8 0.8,-1.5 1.2,-2.3 v 0 c 0.4,-0.7 0.8,-1.4 1.1,-2.1 0.1,-0.1 0.2,-0.3 0.2,-0.4 0.4,-0.7 0.7,-1.3 1.1,-2 0,-0.1 0.1,-0.2 0.1,-0.3 0.4,-0.7 0.7,-1.3 1.1,-2 0,-0.1 0.1,-0.3 0.2,-0.4 0.3,-0.6 0.7,-1.3 1,-1.9 0.1,-0.2 0.2,-0.4 0.2,-0.5 0.4,-0.6 0.7,-1.2 1,-1.8 0.1,-0.2 0.2,-0.5 0.3,-0.7 0.3,-0.6 0.6,-1.2 0.9,-1.8 0.2,-0.2 0.2,-0.4 0.4,-0.6 0.2,-0.5 0.4,-0.9 0.7,-1.4 0.2,-0.4 0.4,-0.8 0.6,-1.2 0.2,-0.3 0.4,-0.7 0.6,-1.1 0.2,-0.4 0.4,-0.9 0.7,-1.4 0.1,-0.2 0.3,-0.5 0.4,-0.8 0.3,-0.6 0.6,-1.1 0.9,-1.7 0.1,-0.3 0.2,-0.5 0.4,-0.8 0.3,-0.6 0.6,-1.2 0.9,-1.8 0.1,-0.2 0.2,-0.3 0.3,-0.5 0.3,-0.7 0.7,-1.4 1,-2 0.1,-0.2 0.2,-0.3 0.2,-0.5 150.4,-294.3 346.3,-791.6 479.1,-1319.4 48.3,-192.1 88.2,-388.2 114.5,-580"
         style="fill:#ececec;fill-opacity:1;fill-rule:nonzero;stroke:none"
         id="path56" /><path
         d="m 13693.7,15439.9 c -350,-1050.9 377.8,-2937.4 1117.1,-3396.2 224.7,20.2 383.2,115.7 483.9,291.2 374.4,653 -114,2262.5 -492.6,2980.1 -194,367.2 -466,443.2 -610.9,455.8 -173.1,15.2 -343,-44.6 -423.5,-148.3 -18.9,-24.4 -31.6,-49.8 -37.8,-75.5 l -1.7,-8 c -7.4,-34.9 -19,-68.2 -34.5,-99.1 z m 1040.8,-3720.7 -39.3,21.8 c -885.4,488.7 -1722.2,2581.5 -1300.2,3813.9 l 4.6,13.5 6.9,12.4 c 3.6,6.4 6.3,13.4 8.3,21.6 l 0.3,1.8 c 15.4,76.3 49,148.4 99.8,214.1 149.1,192.1 418.8,296 704.1,271.1 356.7,-31.1 672.4,-259 865.9,-625.1 303.6,-575.5 983,-2423.7 487.1,-3288.5 -161.5,-281.7 -435.6,-438.9 -792.6,-454.6 l -44.9,-2"
         style="fill:#371a45;fill-opacity:1;fill-rule:nonzero;stroke:none"
         id="path58" /><path
         d="m 13446.4,14787.1 c -63,0 -122.8,37.5 -148.1,99.5 -33.4,81.7 5.7,174.9 87.4,208.3 32.7,13.4 810.5,326.6 1679.8,235.8 87.9,-9.2 151.6,-87.8 142.4,-175.6 -9.1,-87.8 -87.7,-151.4 -175.6,-142.3 -787.5,82.3 -1518.3,-210.9 -1525.6,-213.8 -19.8,-8.1 -40.2,-11.9 -60.3,-11.9"
         style="fill:#371a45;fill-opacity:1;fill-rule:nonzero;stroke:none"
         id="path60" /><path
         d="m 19007.1,15275.7 c 0,0 601.8,-1725.5 -4.7,-3497.8"
         style="fill:#ffffff;fill-opacity:1;fill-rule:nonzero;stroke:none"
         id="path62" /><path
         d="m 19002.3,11652.8 c -13.4,0 -27,2.2 -40.4,6.8 -65.4,22.3 -100.2,93.4 -77.8,158.7 584.7,1708.6 10.8,3399.5 5,3416.3 -22.7,65.2 11.8,136.5 77,159.2 64.8,22.6 136.3,-11.7 159.1,-76.9 25.1,-72.1 608.9,-1787 -4.6,-3579.5 -17.8,-51.9 -66.3,-84.6 -118.3,-84.6"
         style="fill:#371a45;fill-opacity:1;fill-rule:nonzero;stroke:none"
         id="path64" /><path
         d="m 29592.3,9775.2 c -42.2,0 -84.3,16.6 -115.7,49.6 l -2172.3,2279.3 c -60.9,63.9 -58.5,165.1 5.4,226 63.9,60.8 165.2,58.5 226,-5.4 L 29708,10045.4 c 61,-63.9 58.5,-165.2 -5.4,-226.1 -31,-29.4 -70.7,-44.1 -110.3,-44.1"
         style="fill:#371a45;fill-opacity:1;fill-rule:nonzero;stroke:none"
         id="path66" /><path
         d="m 24065.9,17217.7 -612.7,-667.5 c 0,0 -179.4,-3800.8 -611.9,-4476.3 -314.1,-490.4 -849.7,-611 -1107.1,-613.5 -443.2,-4.7 -1938.3,402.9 -2036.3,723 -151,492.4 752.6,603.1 752.6,603.1 388.9,1494.4 357.3,4265.3 1052.7,5571 214.7,403.7 499.2,667.1 886.5,710.2 956.4,106.3 1371.3,-628.7 1548.3,-1203.4 108.7,-353.7 127.9,-646.6 127.9,-646.6"
         style="fill:#ffffff;fill-opacity:1;fill-rule:nonzero;stroke:none"
         id="path68" /><path
         d="m 23938,17864.3 c -253.4,-91.9 -533.9,-143.1 -829.7,-143.1 -652.3,0 -1233,249 -1605.1,636.3 214.7,403.7 499.2,667.1 886.5,710.2 956.4,106.3 1371.3,-628.7 1548.3,-1203.4"
         style="fill:#dddddd;fill-opacity:1;fill-rule:nonzero;stroke:none"
         id="path70" /><path
         d="m 21730.3,11300.5 c -377.1,-0.1 -2044.7,377.3 -2185.3,835.9 -44.6,145.4 -26.7,286.1 51.7,406.9 158.9,244.8 533.3,346.7 724,383.9 132.9,555.8 214.4,1273.6 300.4,2031.1 230.4,2028.5 468.6,4126.1 1750.8,4268.4 432.2,47.9 804.4,-56.3 1106.7,-309.6 666,-558.4 743.8,-1643.3 746.7,-1689.2 5.8,-88 -61,-164.1 -149.1,-169.8 -88.3,-6.5 -164.2,61 -169.9,149.1 -1.2,17.4 -75,997.8 -633.9,1465.5 -232.7,194.7 -523.8,273.8 -865.2,236.2 -1028.6,-114.1 -1262.3,-2171.5 -1468.4,-3986.7 -92.6,-815.5 -180.1,-1585.7 -333.7,-2176 l -27.4,-105.2 -107.8,-13.2 c -184,-23 -511.2,-113.6 -605.1,-258.8 -18,-27.7 -35.7,-68.5 -14.2,-138.9 96.1,-206.1 1417.8,-609.9 1874.3,-609.9 2.6,0 5.1,0 7.6,0 234.9,2.4 704.4,118.8 974.1,539.9 336,524.6 537.5,3352.4 586.9,4397.7 4.2,88.2 81,156.5 167.2,152.1 88.2,-4.1 156.3,-79 152.1,-167.2 -18.5,-393.4 -194.1,-3863.6 -637,-4555 -320.9,-501.2 -868.5,-683.4 -1240,-687.2 -1.8,0 -3.6,0 -5.5,0"
         style="fill:#371a45;fill-opacity:1;fill-rule:nonzero;stroke:none"
         id="path72" /><path
         d="M 31191.2,7137.3 H 8809.02 l 1598.68,2797.6 h 19184.8 l 1598.7,-2797.6"
         style="fill:#ffcb80;fill-opacity:1;fill-rule:nonzero;stroke:none"
         id="path74" /><path
         d="M 31191.2,7137.3 H 8809.02 l 1598.68,2797.6 h 196.2 c -267,-670.2 -544.3,-1505.9 -390.9,-1773.3 371.3,-647.5 5087.8,-519.2 9592.9,-512.4 58.7,0.4 117.5,0.4 175.8,0 58.8,0.4 117.5,0.4 176.3,0 4504.6,-6.8 9221.1,-135.1 9592.4,512.4 153.4,267.4 -123.9,1102.7 -390.9,1773.3 h 233 l 1598.7,-2797.6"
         style="fill:#f9b480;fill-opacity:1;fill-rule:nonzero;stroke:none"
         id="path76" /><path
         d="m 20197.9,7649.6 v -0.4 c -58.7,0.4 -117.5,0.4 -176.2,0 58.7,0.4 117.5,0.4 176.2,0.4"
         style="fill:#f9b480;fill-opacity:1;fill-rule:nonzero;stroke:none"
         id="path78" /><path
         d="m 20021.7,7649.2 c -58.4,0.4 -117.1,0.4 -175.9,0 v 0.4 c 58.8,0 117.1,0 175.9,-0.4"
         style="fill:#f9b480;fill-opacity:1;fill-rule:nonzero;stroke:none"
         id="path80" /><path
         d="M 9084.52,7297.2 H 30915.5 l -1416,2478 H 10500.4 L 9084.52,7297.2 M 31191,6977.5 H 8809.04 c -56.98,0 -109.67,30.3 -138.28,79.6 -28.62,49.3 -28.81,110.1 -0.54,159.6 l 1598.58,2797.7 c 28.5,49.8 81.5,80.5 138.9,80.5 h 19184.6 c 57.4,0 110.3,-30.7 138.8,-80.5 l 1598.7,-2797.7 c 28.3,-49.5 28.1,-110.3 -0.5,-159.6 -28.7,-49.3 -81.3,-79.6 -138.3,-79.6"
         style="fill:#371a45;fill-opacity:1;fill-rule:nonzero;stroke:none"
         id="path82" /><path
         d="m 28834.9,18313.2 c 775.2,-878.9 935.8,-4330.3 317.4,-6239.4 -618.5,-1909.1 -4101.5,-1338 -6062.8,-864.5 -1961.4,473.6 -1027.1,4936.6 -752.7,6127.2 428.4,1859.1 5349.4,2279 6498.1,976.7"
         style="fill:#ffffff;fill-opacity:1;fill-rule:nonzero;stroke:none"
         id="path84" /><path
         d="m 23089.4,11209.3 c 1961.3,-473.5 5444.2,-1044.3 6063.1,864.6 80.7,250.1 148.5,526.3 202.9,820 -634.4,-315.5 -1314.9,223.9 -1297.6,767.1 55.5,1746.1 -174.7,2987.5 -477.9,3853.6 -350.9,1002.3 -1364.4,1625.6 -2415.7,1475.6 -1369.4,-195.3 -2620.9,-757 -2827.2,-1653.9 -274.7,-1190.3 -1208.9,-5653.4 752.4,-6127"
         style="fill:#dddddd;fill-opacity:1;fill-rule:nonzero;stroke:none"
         id="path86" /><path
         d="m 26251.7,18910.5 c -580.3,0 -1195.8,-70.4 -1781.3,-218.8 -1118.5,-283.4 -1839.4,-790.5 -1977.9,-1391.1 -296.1,-1285.1 -1125.4,-5511 634.5,-5935.8 1949.2,-470.7 5304.3,-998 5873.2,758.3 599.6,1850.8 439.6,5262.5 -285.2,6084.3 -398.6,451.8 -1367.6,703.1 -2463.3,703.1 z m 146.8,-8327.9 c -1062.1,0 -2261.2,209.3 -3346.5,471.3 -917.1,221.5 -1366.9,1214.9 -1337.1,2952.9 20.6,1199 264.8,2492 466.1,3365.6 168.7,732.1 953.9,1310.8 2210.8,1629.3 1591.7,403.3 3788.7,295.1 4562.9,-582.8 811,-919.3 1000.4,-4385.4 349.7,-6394.3 -349.9,-1079.9 -1509.3,-1441.9 -2905.9,-1442"
         style="fill:#371a45;fill-opacity:1;fill-rule:nonzero;stroke:none"
         id="path88" /><path
         d="m 27960.1,15076.2 948.9,167.3 c 214.5,37.8 414.1,-120.6 424.7,-338.1 36.6,-748.4 14.3,-2279.2 -762.9,-2432 -941.8,-185.3 -1041.3,877.5 -908.3,2281.6 15.3,161.7 137.6,293 297.6,321.2"
         style="fill:#ffffff;fill-opacity:1;fill-rule:nonzero;stroke:none"
         id="path90" /><path
         d="m 27664.7,14756.8 c -136.3,-1403.7 -39.2,-2467 903,-2283.6 387,74.8 587.7,492.2 687.1,984.4 -101.5,-125.7 -227.7,-213.2 -385.2,-243.6 -843.5,-163.8 -1010,671.3 -936.9,1856 -145.4,-37 -253.8,-161.9 -268,-313.2"
         style="fill:#dddddd;fill-opacity:1;fill-rule:nonzero;stroke:none"
         id="path92" /><path
         d="m 27990.3,14919.8 c -89.5,-15.5 -158,-89 -166.7,-178.5 -39.9,-410.9 -161.1,-1661.3 232.9,-2019.4 112.9,-102.7 270,-132.8 480.6,-91.9 462.2,89.8 701.1,936.9 639.2,2266 -2.7,58.4 -29.4,110.7 -75.1,147.4 -46.1,37 -103.8,51.7 -161.6,41.5 z m 377.6,-2627.1 c -209,0 -385.5,64.4 -526.5,192.6 -359.3,326.6 -459.9,1010.5 -336.1,2286.8 22.5,232.3 199.4,422.6 430.1,462.8 h 0.1 l 949.2,165.1 c 147.7,25.6 299.5,-13.4 416.5,-107.2 116.7,-93.5 187.6,-232.7 194.6,-382 41.7,-895.8 -19.5,-2424 -897.7,-2594.6 -80.6,-15.7 -157.4,-23.5 -230.2,-23.5"
         style="fill:#371a45;fill-opacity:1;fill-rule:nonzero;stroke:none"
         id="path94" /><path
         d="m 29012.1,17847.1 c -450.7,-12.6 -907.4,-41.5 -1352.6,-113.3 -98.3,-16.1 -131.6,127.4 -35.9,155.8 335.8,96.2 676,163.9 1019.2,222.7 114.5,19.3 227.7,37.4 344.8,53.6 87.6,12.1 168.4,-49.1 180.6,-136.7 13.7,-94.4 -60.9,-181.2 -156.1,-182.1"
         style="fill:#371a45;fill-opacity:1;fill-rule:nonzero;stroke:none"
         id="path96" /><path
         d="M 10407.7,29964.2 V 9934.9 L 7610.01,7936.6 v 1033.5 c 739.38,1036.3 2248.15,2124.2 2248.15,10627.8 0,8503.6 -1607.78,10805.3 -2248.15,11703.2 v 661.5 l 2797.69,-1998.4"
         style="fill:#f9b480;fill-opacity:1;fill-rule:nonzero;stroke:none"
         id="path98" /><path
         d="M 7769.88,31651.9 V 8247.4 l 2477.92,1769.9 v 19864.6 z m -159.87,-23875 c -25,0 -50.09,5.8 -73.14,17.7 -53.27,27.4 -86.72,82.3 -86.72,142.1 v 24025.8 c 0,59.9 33.45,114.8 86.72,142.2 53.17,27.3 117.29,22.7 166.06,-12.1 l 2797.67,-1998.3 c 42,-30.1 66.9,-78.5 66.9,-130.1 V 9935.1 c 0,-51.6 -24.9,-100.1 -66.9,-130.1 L 7702.93,7806.7 c -27.63,-19.8 -60.2,-29.8 -92.92,-29.8"
         style="fill:#371a45;fill-opacity:1;fill-rule:nonzero;stroke:none"
         id="path100" /><path
         d="m 25910.8,11028.8 c -620.7,-280.2 -1347.3,-280.2 -2124.3,-280.2 -2260.9,0 -3955.5,1695.4 -3654.5,3500.7 38.7,233 104.7,439.7 190.2,629.1 293.4,651.9 814.9,1103.9 1243,1728.6 247.4,361.3 463.2,780.5 585.5,1330.1 95.1,424.8 133.9,927.2 87.9,1541.1 -293.3,3909.5 4269.3,1673.8 4626.6,921.6 75.5,-159.1 229,-600.3 391.6,-1212.2 608.3,-2284.1 1348.1,-6944.2 -1346,-8158.8"
         style="fill:#ffffff;fill-opacity:1;fill-rule:nonzero;stroke:none"
         id="path102" /><path
         d="m 27256.8,19187.6 c -591.1,-1015.1 -1810,-1711.4 -3218.1,-1711.4 -692.6,0 -1339.3,168.7 -1888,460.9 95.1,424.8 133.9,927.2 87.9,1541.1 -293.3,3909.5 4269.3,1673.8 4626.6,921.6 75.5,-159.1 229,-600.3 391.6,-1212.2"
         style="fill:#dddddd;fill-opacity:1;fill-rule:nonzero;stroke:none"
         id="path104" /><path
         d="m 25205.4,16656.9 c 408.9,1927.8 705.4,-2750.5 705.4,-2750.5 -345.3,-116.3 -858.9,-116.7 -1437.2,-50.7 -123.5,13.9 -249.8,30.7 -377.7,50.3 -1714.2,261.4 -3773.7,972.4 -3773.7,972.4 293.4,651.9 1243,1728.6 1243,1728.6 0,0 1357.8,74.8 2130.2,-167.1 -682.2,-1042.7 1288,-829.3 1510,217"
         style="fill:#dddddd;fill-opacity:1;fill-rule:nonzero;stroke:none"
         id="path106" /><path
         d="m 23877.1,21595.2 c -177,0 -348,-18.9 -508.3,-61.4 -754.1,-200 -1092.5,-888.5 -1005.7,-2046.4 147.9,-1973.6 -571.8,-2843.6 -1206.8,-3611.3 -403.5,-487.8 -784.6,-948.5 -901.1,-1647.2 -122.1,-733 98,-1476 619.8,-2092 670,-790.9 1758.4,-1263.1 2911.4,-1263.1 759.5,0 1476.7,0 2072.9,268.8 691.4,311.7 1196,889.2 1499.8,1716.4 935.7,2548.3 -285.7,6811 -606.8,7487 -167,351.5 -1659.7,1249.2 -2875.2,1249.2 m -90.7,-10971.4 c -1243.8,0 -2374.5,492.6 -3102.2,1351.5 -570.1,673.1 -810,1488 -675.6,2294.7 127.6,765.1 529.5,1251.1 955.1,1765.5 634.5,766.9 1290.5,1560 1150.1,3433.2 -121,1613.5 580.9,2145 1190.9,2306.7 1359.8,360.6 3416.9,-782.3 3673.4,-1322.1 197.5,-415.8 1650,-4863.4 615.7,-7680.4 C 27266,11880.2 26717,11255 25962,10914.7 c -645.2,-290.9 -1388.5,-290.9 -2175.6,-290.9"
         style="fill:#371a45;fill-opacity:1;fill-rule:nonzero;stroke:none"
         id="path108" /><path
         d="m 23013.2,16803.2 -576.3,-1571.9 -553.2,-1507.9 c 0,0 -881.2,516.7 -1389.2,838.5 -172.7,109.5 105.1,851.7 309.7,1298.5 32.4,70.3 62.8,133.5 89.1,185.4 195.5,383.3 717.5,1239.8 915.7,1172.3 l 1204.2,-414.9"
         style="fill:#ffffff;fill-opacity:1;fill-rule:nonzero;stroke:none"
         id="path110" /><path
         d="m 22436.9,15231.3 -553.2,-1507.9 c 0,0 -881.2,516.7 -1389.2,838.5 -172.7,109.5 105.1,851.7 309.7,1298.5 l 559.6,-38.8 c 0,0 -411.3,-769.7 23.5,-831.7 277,-39.2 494.4,351.3 494.4,351.3 l 555.2,-109.9"
         style="fill:#dddddd;fill-opacity:1;fill-rule:nonzero;stroke:none"
         id="path112" /><path
         d="m 20570.4,14661.8 c 385.4,-243.8 985.9,-600.2 1247.5,-754.6 l 1034.1,2819.3 -1069.2,368.4 c -132.6,-49.7 -518.7,-596.9 -778.1,-1105.7 -267.1,-524.1 -486.6,-1197.2 -434.3,-1327.4 z m 1313.2,-1063.3 c -22,0 -43.8,5.8 -63.2,17.1 -8.8,5.2 -889,521.5 -1392.8,840.8 v 0 c -150.3,95.2 -150.4,331.5 -0.7,790.1 99.9,306.2 250.4,650.7 355.1,856.2 102.1,200.3 285.8,516.4 466.1,770.7 267.2,377.1 446.8,515.7 601.3,463 l 1204.6,-415.1 c 31.7,-10.9 57.8,-34.2 72.2,-64.5 14.4,-30.3 16,-65.2 4.4,-96.7 l -1129.7,-3079.7 c -12.7,-34.7 -40.2,-62 -75.1,-74.6 -13.7,-4.9 -28,-7.3 -42.2,-7.3"
         style="fill:#371a45;fill-opacity:1;fill-rule:nonzero;stroke:none"
         id="path114" /><path
         d="m 19383.5,22479.7 c 64.8,-825.7 338.7,-1640.2 824.7,-2361.8 99.2,-147.1 206.6,-290.1 323,-428.5 56.5,-67.5 115.7,-133.9 176.6,-199.7 184.5,-197.5 381.2,-376.7 588.4,-537.8 178.2,-139.3 364.4,-264.9 556.1,-377.1 231.5,-135.6 471.9,-251.1 718.4,-347 90,-34.7 180.6,-67 271.9,-96.8 1671.6,-541.8 3576.7,-202.7 4955.2,1051.4 2031.1,1847 2149.4,4979.3 265.1,6996 -363.2,388.2 -774.2,707.7 -1215.9,955.4 -51.3,29.4 -103.7,57.5 -156.6,84.5 -141,73 -284.7,139.1 -430.7,198 -337.7,136.1 -687.6,234.6 -1042.4,295.3 -354.6,61.1 -715.1,84.4 -1073.6,69.7 -114,-4.6 -227.9,-12.9 -341.7,-25.3 -170.5,-18.7 -340.1,-45.5 -508.8,-81.8 -840.3,-178.2 -1643.9,-573.1 -2320.4,-1188.5 -1168.4,-1062.5 -1703.6,-2550 -1589.3,-4006"
         style="fill:#ffffff;fill-opacity:1;fill-rule:nonzero;stroke:none"
         id="path116" /><path
         d="m 24351.5,27769.5 c -69.2,0 -138.2,-1.4 -207.2,-4.3 -115.1,-4.6 -229.7,-13.1 -340.5,-25.2 -173.2,-19 -343.8,-46.4 -507.2,-81.5 -862.3,-182.9 -1662.1,-592.6 -2313,-1184.7 -1125.5,-1023.5 -1702.9,-2478.8 -1584,-3992.8 65.8,-839.3 350.1,-1653.3 821.9,-2354.1 100.2,-148.5 208.5,-292.2 322.1,-427.1 52.4,-62.7 110,-127.9 176,-199.2 181,-193.8 378.4,-374.2 586.5,-536 173.9,-136 360.4,-262.4 554.3,-375.9 227,-132.9 467.9,-249.3 716.1,-346 89.4,-34.4 180.6,-66.8 271.1,-96.3 1722.6,-558.4 3615.2,-156.9 4939.4,1047.9 975.2,886.8 1541.6,2097.5 1595,3409.1 53.8,1322.2 -418.9,2587.9 -1330.9,3564.1 -356.1,380.5 -763.8,700.9 -1211.9,952.2 -49.1,28.2 -100,55.7 -156.1,84.2 -139.8,72.5 -284.3,138.9 -429.4,197.5 -333.3,134.3 -682.9,233.4 -1039.1,294.3 -284.7,49.1 -574.2,73.8 -863.1,73.8 m 62.2,-9902.9 c -527.5,0 -1059.4,81.7 -1576.1,249.2 -91,29.7 -182.8,62.3 -272.7,96.9 -249.9,97.3 -492.3,214.5 -720.8,348.3 -195.1,114.1 -382.8,241.4 -557.8,378.2 -209.4,162.9 -408,344.4 -590.3,539.5 -66.5,71.8 -124.4,137.3 -177.1,200.4 -114.3,135.8 -223.3,280.4 -324,429.8 -475,705.4 -761.2,1524.7 -827.5,2369.5 -119.6,1524.1 461.6,2989 1594.6,4019.2 655,596 1460,1008.3 2327.9,1192.4 164.4,35.3 336.1,62.9 510.3,82 111.6,12.1 226.9,20.7 342.8,25.4 359.6,14.7 722.1,-8.8 1077.1,-69.9 358.4,-61.4 710.2,-161.1 1045.6,-296.3 146.1,-59 291.4,-125.8 432.1,-198.7 56.5,-28.7 107.9,-56.5 157.2,-84.8 450.9,-252.8 861.3,-575.3 1219.6,-958.3 918,-982.5 1393.7,-2256.5 1339.6,-3587.3 -53.8,-1320.3 -624,-2539 -1605.5,-3431.6 -935.6,-851.1 -2152.9,-1303.9 -3395,-1303.9"
         style="fill:#371a45;fill-opacity:1;fill-rule:nonzero;stroke:none"
         id="path118" /><path
         d="m 27797.9,19182.5 c -1378.5,-1254.3 -3283.9,-1593.4 -4955.4,-1051.3 -91.3,29.7 -181.9,61.9 -271.7,96.6 -246.6,95.8 -486.9,211.5 -718.4,346.9 -191.7,112.4 -378,237.9 -556.1,377.1 -207.4,161.1 -404,340.3 -588.7,537.8 -60.6,66 -119.8,132.3 -176.5,199.7 -116.4,138.5 -223.6,281.7 -322.9,428.7 -485.9,721.6 -760.1,1535.9 -824.7,2361.9 -35.7,453.5 -8.3,910.5 81.7,1356.6 80,-786.7 350.9,-1559.5 814.4,-2248 99,-147.3 206.5,-290.2 322.9,-428.7 56.3,-67.4 115.6,-133.7 176.5,-199.7 184.7,-197.5 381.3,-376.7 588.3,-537.8 178.5,-139.2 364.5,-264.7 556.1,-377 231.6,-135.4 472.2,-251.1 718.5,-347 90.1,-34.7 180.7,-66.9 272,-96.6 1671.5,-542.1 3576.6,-203 4955.4,1051.4 804.5,731.5 1308.5,1664.7 1507.2,2650.1 152.6,-1492.5 -379.7,-3030.6 -1578.6,-4120.7"
         style="fill:#dddddd;fill-opacity:1;fill-rule:nonzero;stroke:none"
         id="path120" /><path
         d="m 24351.5,27661.6 c -67.7,0 -135.2,-1.3 -202.8,-4.1 -112.7,-4.6 -224.8,-12.9 -333.3,-24.7 -169.4,-18.6 -336.3,-45.4 -496.2,-79.8 -843.9,-178.9 -1626.3,-579.7 -2263,-1159 -1100.8,-1000.9 -1665.4,-2424 -1549.2,-3904.6 64.4,-820.8 342.5,-1616.9 804,-2302.3 97.9,-145.2 203.9,-285.9 315.1,-417.9 51.4,-61.5 107.8,-125.3 172.6,-195.4 176.9,-189.2 370,-365.7 573.6,-524.1 170.3,-133.2 352.8,-256.9 542.6,-367.9 222.1,-130.1 457.8,-244 700.7,-338.6 87.3,-33.6 176.7,-65.4 265.4,-94.3 1685.6,-546.5 3537.7,-153.6 4833.5,1025.2 953.6,867.2 1507.5,2051.2 1559.7,3333.7 52.7,1293.1 -409.7,2531.1 -1301.9,3486.1 -348.4,372.3 -747.4,685.9 -1185.9,931.8 -48.4,27.7 -97.8,54.4 -152.3,82.1 -137.5,71.3 -278.8,136.2 -420.8,193.5 -326.1,131.5 -668.3,228.5 -1016.9,288.2 -278.7,48 -562.1,72.1 -844.9,72.1 m 62.1,-9902.8 c -538.6,0 -1081.7,83.3 -1609.3,254.4 -92.9,30.3 -186.5,63.6 -278.2,98.9 -255.5,99.5 -503.2,219.1 -736.4,355.8 -199.3,116.5 -391,246.6 -569.8,386.4 -213.7,166.2 -416.5,351.5 -602.7,550.7 -68,73.6 -127.1,140.5 -181,204.9 -116.5,138.5 -227.8,286.2 -330.7,438.7 -485.4,720.8 -777.8,1558.1 -845.5,2421.4 -122.3,1557.5 471.6,3054.6 1629.5,4107.4 669.1,608.8 1491.5,1030 2378,1218 167.8,36.1 343.2,64.3 521,83.8 114,12.4 231.8,21.1 350.1,25.9 367.4,15.2 737.3,-8.9 1099.8,-71.4 365.9,-62.6 725.1,-164.4 1067.6,-302.5 149.3,-60.2 297.8,-128.5 441.4,-202.9 57.4,-29.2 110.4,-57.8 161.3,-87 459.6,-257.8 878.7,-587.1 1244.6,-978.2 937.9,-1003.8 1423.9,-2305.5 1368.6,-3665.4 -55,-1349.3 -637.6,-2594.8 -1640.6,-3507 -955.7,-869.3 -2199.1,-1331.9 -3467.7,-1331.9"
         style="fill:#371a45;fill-opacity:1;fill-rule:nonzero;stroke:none"
         id="path122" /><path
         d="m 24351.5,27625.7 c -67.2,0 -134.3,-1.4 -201.3,-4.1 -112,-4.5 -223.2,-12.8 -330.9,-24.6 -168.2,-18.4 -333.9,-45 -492.5,-79.1 -837.7,-177.7 -1614.4,-575.5 -2246.4,-1150.5 -1092.5,-993.3 -1652.9,-2405.8 -1537.5,-3875.2 63.9,-814.6 339.8,-1604.7 797.9,-2285 97.2,-144.2 202.5,-283.8 312.8,-414.9 51.1,-61.1 107.1,-124.5 171.5,-194.1 175.4,-187.7 367.1,-362.9 569.2,-520.2 169.2,-132.2 350.3,-255 538.7,-365.2 220.5,-129.1 454.5,-242.2 695.7,-336.1 86.5,-33.3 175.4,-64.9 263.5,-93.7 498.8,-161.7 1012.5,-240.5 1521.7,-240.5 1198.8,-0.1 2373.6,436.9 3276.4,1258.2 946.5,860.7 1496.2,2035.7 1548,3308.6 52.3,1283.4 -406.7,2512.2 -1292.2,3460 -345.9,369.7 -742,680.9 -1177.3,925.1 -48.1,27.5 -97.1,53.9 -151,81.4 -136.7,70.8 -277,135.3 -417.9,192.2 -323.8,130.5 -663.4,226.8 -1009.6,286 -276.7,47.7 -558,71.7 -838.8,71.7 m 62.1,-9902.8 c -542.4,-0.1 -1089.1,83.9 -1620.3,256.1 -93.7,30.6 -187.8,64 -280.1,99.6 -257.4,100.2 -506.8,220.7 -741.7,358.3 -200.6,117.3 -393.7,248.2 -573.8,389 -215,167.4 -419.3,354 -606.7,554.6 -68.6,74.1 -128.1,141.4 -182.4,206.3 -117.2,139.4 -229.4,288.1 -333,441.8 -488.8,725.9 -783.3,1569.1 -851.5,2438.6 -123.1,1568.7 475,3076.5 1641.1,4136.8 674,613.1 1502.1,1037.3 2394.9,1226.6 168.8,36.3 345.4,64.7 524.5,84.3 114.9,12.5 233.5,21.3 352.6,26.1 369.7,15.2 742.4,-9 1107.3,-71.9 368.3,-63 730.1,-165.5 1074.9,-304.6 150.4,-60.6 299.9,-129.4 444.5,-204.3 57.7,-29.4 111.3,-58.3 162.7,-87.8 462.5,-259.4 884.5,-590.9 1253,-984.7 944.5,-1010.9 1433.9,-2321.9 1378.2,-3691.4 -55.3,-1359.1 -642.1,-2613.5 -1652.4,-3532.1 -962.3,-875.5 -2214.5,-1341.3 -3491.8,-1341.3"
         style="fill:#371a45;fill-opacity:1;fill-rule:nonzero;stroke:none"
         id="path124" /><path
         d="m 19646.4,21235.9 c 1849.2,-3044 6097.2,-3357 7732.3,-256 1112.5,2109.6 -128.6,4827.1 -2257,5765.3 -1549,682.8 -3359.5,682.5 -5074.7,-1393.8 0,0 -614.6,-1035.8 -642.9,-1895.4 -28.2,-859.6 91.4,-1701.3 91.4,-1701.3 l 150.9,-518.8"
         style="fill:#371a45;fill-opacity:1;fill-rule:nonzero;stroke:none"
         id="path126" /><path
         d="m 27378.6,20979.9 c -1635,-3100.9 -5883.1,-2787.8 -7732.3,255.9 l -30.5,105.2 c 2719.3,-1836.8 6451,-1409.4 8163.4,1695.1 62,-696.3 -57.4,-1405.1 -400.6,-2056.2"
         style="fill:#220f2d;fill-opacity:1;fill-rule:nonzero;stroke:none"
         id="path128" /><path
         d="m 21365.2,19056.6 c 1184.2,-651.8 2552.9,-819.5 3757.2,-459.9 1129.8,337.5 2033.8,1097.6 2614.3,2198.3 530,1004.9 598,2200.9 191.7,3367.5 -454.6,1305 -1452.1,2404.1 -2668.4,2940.2 -672.2,296.3 -1328.1,446.6 -1949.8,446.6 -1.2,0 -2.4,-0.1 -3.6,-0.1 -838.6,-180.1 -1616.2,-579.7 -2249.7,-1156 -1100.5,-1000.6 -1665,-2423.5 -1548.8,-3903.7 64.4,-820.6 342.3,-1616.5 803.8,-2301.7 97.9,-145.3 203.9,-285.9 315,-417.9 51.5,-61.5 107.8,-125.3 172.6,-195.4 174.6,-186.7 365,-361.2 565.7,-517.9 m 2463.3,-895.4 c -880,0 -1778.7,231.3 -2592.8,681.3 l -16.3,10.7 c -213.9,166.4 -416.8,351.8 -602.9,551.1 -68.1,73.6 -127.2,140.4 -181.1,204.9 -116.6,138.5 -227.9,286.2 -330.9,438.9 -485.5,720.9 -777.8,1558.3 -845.6,2421.8 -122.3,1557.9 471.7,3055.3 1629.8,4108.3 669.4,608.9 1491.9,1030.2 2378.6,1218.3 l 12.5,2.7 h 12.9 c 5.8,0 11.6,0 17.5,0 656.6,0 1346.5,-157.3 2050.7,-467.7 1278.6,-563.6 2326.7,-1717.5 2803.6,-3086.7 429.4,-1232.9 356,-2499.5 -206.7,-3566.4 -612.5,-1161.4 -1568.3,-1964.1 -2763.9,-2321.2 -439.6,-131.3 -899.9,-196 -1365.4,-196"
         style="fill:#371a45;fill-opacity:1;fill-rule:nonzero;stroke:none"
         id="path130" /><path
         d="m 19793.9,21301 c 915.8,-1493.9 2496.9,-2391 4132.2,-2340.6 1425.4,43.2 2632.3,806.5 3311.2,2094 465.1,882 524.6,1932.3 167.5,2957.3 -400,1148.4 -1277.6,2115.6 -2347.6,2587.2 -1831.3,807.3 -3472.7,356.8 -4878.6,-1339.3 -62.3,-108.1 -589.6,-1045.2 -614.7,-1808.9 -25.7,-782.9 74.8,-1562 88.4,-1662.7 l 141.6,-487 M 23797,18638.7 c -1706.6,0 -3339.2,953.6 -4287.3,2514.2 l -11,18.1 -161.5,561.2 c -5,35 -121.2,865.4 -92.8,1729 29.2,890.4 639.2,1928 665.1,1971.8 l 14.3,20.2 c 1509.9,1827.9 3280.4,2311.9 5262.4,1438.3 1149.6,-506.8 2091.9,-1544 2520.6,-2774.7 386.5,-1109.6 320.3,-2250.2 -186.7,-3211.5 -734.1,-1392.3 -2040.6,-2217.7 -3584.4,-2264.5 -46.1,-1.4 -92.6,-2.1 -138.7,-2.1"
         style="fill:#371a45;fill-opacity:1;fill-rule:nonzero;stroke:none"
         id="path132" /><path
         d="m 29500.8,20271.7 c -346.6,-912.6 -1184.4,-1472.2 -1871.5,-1249.6 -687,222.6 -962.9,1142.9 -616.2,2055.5 2,5.7 4.5,11.8 6.9,17.4 350.4,902.4 1182.3,1453.3 1864.5,1232.2 530.7,-171.9 816.1,-760.2 758.8,-1439.7 -17,-200 -63.7,-408.2 -142.5,-615.8"
         style="fill:#ffffff;fill-opacity:1;fill-rule:nonzero;stroke:none"
         id="path134" /><path
         d="m 29500.8,20271.7 c -346.6,-912.6 -1184.4,-1472.2 -1871.5,-1249.6 -687,222.6 -962.9,1142.9 -616.2,2055.5 2,5.7 4.5,11.8 6.9,17.4 39.9,-118.1 122.5,-248.4 293.5,-268.9 299.7,-35.8 1023.2,388.9 1023.2,388.9 0,0 567.5,-138.3 1306.6,-327.5 -17,-200 -63.7,-408.2 -142.5,-615.8"
         style="fill:#dddddd;fill-opacity:1;fill-rule:nonzero;stroke:none"
         id="path136" /><path
         d="m 28567.8,22216.7 c -544.6,0 -1134.2,-482.2 -1405.2,-1195.8 -183,-481.6 -184.9,-992.7 -5.3,-1367.1 115.4,-240.6 295.7,-406.4 521.3,-479.5 605.8,-196.4 1356.6,321.3 1672.8,1154.1 183,481.6 185,992.7 5.4,1367.1 -115.4,240.6 -295.7,406.5 -521.4,479.6 -86.8,28.1 -176.6,41.6 -267.6,41.6 z M 27938,18814.3 c -121.4,0 -241.5,18.1 -357.9,55.8 -311,100.8 -556.9,323.9 -711.1,645.4 -220,458.6 -221.9,1048.7 -5.3,1619 375.9,989.6 1304.4,1592.9 2070.2,1344.8 311.1,-100.8 557,-324 711.2,-645.5 219.9,-458.6 221.8,-1048.7 5.2,-1618.9 -318.7,-839.2 -1035,-1400.6 -1712.3,-1400.6"
         style="fill:#371a45;fill-opacity:1;fill-rule:nonzero;stroke:none"
         id="path138" /><path
         d="m 29330.8,19575.3 c -480.7,-591.4 -1198.5,-706.6 -1603.1,-257.3 -404.7,449.4 -342.9,1293.1 137.8,1884.5 480.8,591.4 1198.6,706.6 1603.2,257.3 404.7,-449.3 342.9,-1293.1 -137.9,-1884.5"
         style="fill:#ffffff;fill-opacity:1;fill-rule:nonzero;stroke:none"
         id="path140" /><path
         d="m 28849.6,21717.2 c -7.8,0 -15.7,-0.1 -23.6,-0.3 -337.9,-8.6 -683.3,-199.9 -947.5,-524.9 -475,-584.4 -537.1,-1420 -138.5,-1862.8 163.7,-181.7 379.9,-274.8 630.4,-268.3 337.9,8.6 683.3,199.9 947.5,524.9 475,584.4 537.1,1420.1 138.4,1862.8 -158.5,176 -367.9,268.6 -606.7,268.6 z m -502.9,-2689.9 c -248.6,0 -466.5,96.3 -631.5,279.5 -409.2,454.5 -347.6,1309.7 137.3,1906.3 270.5,332.6 625,528.4 972.7,537.2 259.9,6.4 485.5,-90.1 655.9,-279.3 409.3,-454.5 347.7,-1309.6 -137.2,-1906.2 -270.5,-332.7 -625,-528.5 -972.7,-537.3 -8.2,-0.1 -16.4,-0.2 -24.5,-0.2"
         style="fill:#371a45;fill-opacity:1;fill-rule:nonzero;stroke:none"
         id="path142" /><path
         d="m 27447.1,20185.7 c 30,264.4 133.7,521.2 285.3,741.9 -17,-609 397.1,-1015.5 967.6,-923.1 368.8,59.5 718,314 952.4,655.7 -0.8,-38.4 -3.8,-78 -8.3,-118.1 -76.8,-673.3 -630.9,-1298.9 -1237.6,-1397.3 -606.8,-98.3 -1036.1,368 -959.4,1040.9"
         style="fill:#dddddd;fill-opacity:1;fill-rule:nonzero;stroke:none"
         id="path144" /><path
         d="m 28918.7,21639 c -404.3,0 -875,-405.9 -1094.9,-978.1 -155.1,-403.7 -163.3,-819.8 -21.9,-1113.1 54.5,-113.3 158.7,-260.5 345.5,-319.5 432.8,-136.4 1010.6,300.1 1261.5,953.2 155.2,403.7 163.4,819.8 22,1113.1 -54.6,113.2 -158.8,260.5 -345.6,319.4 -53.6,16.9 -109.5,25 -166.6,25 z m -599.5,-2756.4 c -90.7,0 -180.5,13.3 -268,40.8 -234,73.8 -419.8,241.7 -537.4,485.5 -178.9,371.3 -174.6,882.2 11.5,1366.7 320.2,833 1047.4,1335.2 1656.2,1143.3 234,-73.8 419.9,-241.6 537.4,-485.4 179,-371.3 174.7,-882.2 -11.5,-1366.7 -274.2,-713.3 -847.1,-1184.2 -1388.2,-1184.2"
         style="fill:#371a45;fill-opacity:1;fill-rule:nonzero;stroke:none"
         id="path146" /><path
         d="m 20201.6,22570.3 c -304.1,666.4 -364.1,1302.7 -64.3,2024.9 29.7,71.2 63.1,143.4 99.7,216.5 8.4,16.8 17.1,33.3 26.1,49.9 l 0.6,0.9 c 84.7,142.7 203.3,326.2 354.6,521.9 455.9,590.6 1217.4,1171.7 2234.2,1217.1 67.1,3 133.4,4.4 198.8,4.4 1786.8,0 2915.1,-1080.1 2808.3,-1137.7 0,0 -1100.3,552.8 -2353.7,552.8 -426.1,0 -869.9,-63.9 -1294.2,-235.1 -1.8,-0.7 -3.5,-1.4 -5.3,-2.1 -351.9,-142.3 -822.7,-581.9 -1052.3,-880.8 -303.6,-395.2 -453.8,-711.8 -575.2,-995.6 -368.6,-863.4 -377.3,-1337.1 -377.3,-1337.1"
         style="fill:#9b8da2;fill-opacity:1;fill-rule:nonzero;stroke:none"
         id="path148" /><path
         d="m 26489,21915.7 c -27.5,0 -55.2,1.9 -83.1,5.8 -366.9,52.2 -616.8,436.2 -558,857.8 54.2,389.6 352.9,675 687.5,675 27.5,0 55.3,-2 83.1,-5.9 366.9,-52.1 616.8,-436.2 558.1,-857.8 -54.3,-389.6 -353,-675 -687.6,-674.9"
         style="fill:#9b8da2;fill-opacity:1;fill-rule:nonzero;stroke:none"
         id="path150" /><path
         d="m 26075.9,21142.5 c -24.2,50.5 -36.6,109.3 -33.4,171.4 9,170.2 132.6,302.4 279.2,302.4 4.7,0 9.4,-0.2 14.1,-0.4 83,-4.8 155.3,-51.2 202.5,-120.7 -148.8,-127.5 -303.4,-245.2 -462.4,-352.7"
         style="fill:#9b8da2;fill-opacity:1;fill-rule:nonzero;stroke:none"
         id="path152" /><path
         d="m 26316.5,20979.6 c -4.7,0 -9.5,0.1 -14.2,0.4 -98.7,5.7 -182.2,70.2 -226.4,162.5 159,107.5 313.6,225.2 462.4,352.7 39.6,-58.4 61.5,-133.1 57.3,-213.3 -9,-170.1 -132.5,-302.3 -279.1,-302.3"
         style="fill:#918796;fill-opacity:1;fill-rule:nonzero;stroke:none"
         id="path154" /><path
         d="m 23695.4,16439.9 c 1.6,-91.9 -336.5,-660.2 -574.7,-1254.5 -104.3,-261 -199,-507.6 -284.2,-726.2 -190.2,-490 -333.7,-841.7 -439.6,-910.1 -205,-132.7 -994.8,137.5 -995.6,489.2 0,127.5 185.9,637.5 428.9,1187.8 322.5,729.8 746.1,1530.7 969.6,1600.3 256.5,80.3 894.4,-336.5 895.6,-386.5"
         style="fill:#ffffff;fill-opacity:1;fill-rule:nonzero;stroke:none"
         id="path156" /><path
         d="m 22836.5,14459.2 c -190.2,-490 -333.7,-841.7 -439.6,-910.1 -205,-132.7 -994.8,137.5 -995.6,489.2 0,127.5 185.9,637.5 428.9,1187.8 142.7,-257.8 388.4,-477.2 723.4,43.2 314.1,488.4 332.1,-138.3 282.9,-810.1"
         style="fill:#dddddd;fill-opacity:1;fill-rule:nonzero;stroke:none"
         id="path158" /><path
         d="m 23571.1,16450.3 z m -0.7,-12.7 h 0.5 z m 21.8,-64.5 z m -712,339.8 c -16.2,0 -30.7,-1.8 -43.1,-5.7 -73.6,-23 -329.3,-316.5 -770.4,-1262.7 -330.2,-707.9 -540.5,-1305.6 -540.2,-1406 0.2,-80.3 94.9,-181.6 247.3,-264.3 246,-133.5 503,-153.9 555.4,-120 85.3,60.9 278.6,560 449.2,1000.4 67.8,175.2 144.7,373.8 226.3,577.3 127.5,318.1 285,632.3 399.9,861.8 57.7,115 121.3,242.1 150.7,312.1 -130.9,101.8 -502,307.1 -675.1,307.1 z m -642,-3323 c -183.8,0 -409.4,70 -583.7,164.6 -243.4,132.1 -377.6,303.8 -378,483.4 -0.8,308.2 1006.4,2758 1486,2907.9 323.1,101.4 910.5,-317.9 916.4,-322.1 92.7,-66.8 140.1,-113.1 141.4,-181.3 1.4,-70.9 -45.1,-167.1 -192.2,-460.7 -113,-225.5 -267.7,-534.4 -391.3,-842.8 -81,-202.1 -154.4,-391.5 -225.3,-574.6 -274.7,-709.2 -402.2,-1026.7 -546.6,-1120.1 -58.7,-37.9 -137.8,-54.3 -226.7,-54.3"
         style="fill:#371a45;fill-opacity:1;fill-rule:nonzero;stroke:none"
         id="path160" /><path
         d="m 23178.8,14045.9 c -2440.9,527.1 -7029.4,-40.9 -7029.4,-40.9 0,0 -926.4,2355.8 -2104.1,921.6 -956.9,-1165.3 21.1,-4119 1116.7,-4177.8 306.5,-16.5 8624.4,0 8624.4,0 0,0 3468.9,20.9 3828.7,2512 l -4436.3,785.1"
         style="fill:#ffffff;fill-opacity:1;fill-rule:nonzero;stroke:none"
         id="path162" /><path
         d="m 27615,13260.6 c -359.8,-2490.8 -3828.5,-2512 -3828.5,-2512 0,0 -8317.8,-16.3 -8624.4,0 -1027.5,55.6 -1951.6,2656.2 -1273.3,3940.4 -129.5,-1340.9 664.2,-3017.7 1757.5,-3159.1 1222.5,-158 1986.6,490.6 3693.3,499.7 2307.6,12.4 3837.8,-539.7 4355.7,-187.5 321.1,218.3 498.3,705.9 562.2,1507.4 16.9,211.1 -39.5,498 -358,588.1 -227.3,64.4 491.2,389.8 523.9,635.4 22.1,165.1 45.2,331.4 70.4,497 136.7,900 2667.2,-2634.9 3094.4,-1804.6 l 26.8,-4.8"
         style="fill:#dddddd;fill-opacity:1;fill-rule:nonzero;stroke:none"
         id="path164" /><path
         d="m 23162,13967.7 c -1884.8,219.7 -3794.2,139.3 -5682.2,-5.7 -424.6,-32.8 -896.1,-72.8 -1316.4,-116.3 -72.3,-7.2 -138.2,35.9 -162.8,100.9 -38.2,93.4 -85.6,193.9 -134.4,288.3 -211.9,390.9 -556.5,967.9 -1039.8,993.1 -168,6.3 -332.1,-89.8 -459.5,-197 -101.4,-92.2 -197.4,-197.1 -274.2,-310.2 -150.9,-239 -228.1,-510 -258.8,-796.3 -78.4,-836.4 149.2,-1739.5 600.1,-2446.9 180.4,-258.9 403.1,-524.8 719.6,-566.5 969.1,-18.4 1941.3,-5.7 2912.3,-9.7 338.8,7.1 5863.5,-10.9 6006.9,23.2 1045,100.3 2187.8,405.6 2888,1229.2 271.9,322.5 434.8,718.8 497,1135.2 36.4,204.6 343.7,160.6 315.5,-51.1 -133.8,-982.9 -806.6,-1723.7 -1683.6,-2125.3 -628.8,-296.4 -1304.5,-444.9 -1990.2,-506.6 -195,-41.4 -5656.3,-12.4 -6033.5,-24.3 -979.6,4.8 -1960.2,-10.5 -2940.7,10.9 -420.9,41.2 -740.2,386.8 -957.1,707.4 -585,912.4 -904.7,2323.9 -473.7,3352.2 122.8,281.9 328.4,525.9 575.2,707.7 270.8,202.2 647.5,250.7 950.8,91.6 529,-282.7 844.3,-857.7 1077.7,-1388 l -168.4,100.1 c 294.6,40.9 586.8,72.4 880.7,102.4 1027.3,102.6 2061,166 3094.2,170.3 1034.1,-1.6 2087.6,-29.2 3091,-312.3 89.8,-28.3 69.2,-167.5 -33.7,-156.3"
         style="fill:#371a45;fill-opacity:1;fill-rule:nonzero;stroke:none"
         id="path166" /><path
         d="m 22856.6,14501.7 c 0,0 -387.3,240.7 -286.3,707 111.4,514.2 661.2,469.4 661.2,469.4 0,0 1983.5,-558.8 3912,-192 0,0 645.9,-723.2 -206.6,-1100.3 -1584.1,-700.6 -4080.3,115.9 -4080.3,115.9"
         style="fill:#ffffff;fill-opacity:1;fill-rule:nonzero;stroke:none"
         id="path168" /><path
         d="m 26936.7,14386 c -1583.9,-700.6 -4080.2,115.5 -4080.2,115.5 0,0 -387.3,241 -286.1,707 15.9,74 41.1,136.3 72.3,188.7 85.5,-207.5 255.8,-313.4 255.8,-313.4 0,0 2496.3,-816.5 4080.6,-115.9 160.2,70.8 267.8,153.9 336.1,242.2 105.1,-244.6 135.1,-597.1 -378.5,-824.1"
         style="fill:#dddddd;fill-opacity:1;fill-rule:nonzero;stroke:none"
         id="path170" /><path
         d="m 22927.6,14646.9 c 244.2,-75.7 2511.3,-748.8 3944.7,-114.9 195.8,86.7 309.5,196.6 338.1,326.7 35.1,160.6 -59.4,344.7 -133.7,452.7 -1837.1,-321 -3660.6,150.7 -3871.1,208 -77.9,2.2 -405.9,-7.3 -479.1,-344.6 -66.2,-305.5 142.6,-484.6 201.1,-527.9 z m 2421.2,-706.4 c -1269.8,0 -2469.8,385.7 -2541.9,409.2 -12.2,4 -23.8,9.4 -34.7,16.2 -19.7,12.2 -481.7,306.8 -358.2,876.6 111.6,515 591.6,614.8 830.4,595 10.2,-0.9 20.4,-2.7 30.4,-5.5 19.4,-5.5 1971.6,-543.9 3838.8,-188.9 55.4,10.5 111.7,-8.7 149.1,-50.5 14.3,-16 347.9,-395.2 260.4,-800.5 -51,-236.1 -226.5,-422 -521.5,-552.4 -501.5,-221.9 -1084.2,-299.2 -1652.8,-299.2"
         style="fill:#371a45;fill-opacity:1;fill-rule:nonzero;stroke:none"
         id="path172" /><path
         d="m 27563,11042.4 c 55.9,-120.3 65.9,-254.6 -16,-394.5 -185.8,-318.1 -1734.9,-272.9 -2158.2,-122.3 -124.7,44 -308.5,145.1 -481.2,317 -303.7,-158.7 -1158.6,-350.1 -1272.5,7.2 -31.2,97.9 -21.6,174.6 15.6,241.4 84.3,154.2 312.9,255.3 510.7,441.6 207.5,195.8 283.8,432 316.6,661.4 20.3,145.1 23.5,287.8 31.5,415.7 5.6,59.1 12,119.5 18.8,181.4 v 1.2 c 173.1,1557.1 677.1,3864.4 677.1,3864.4 l -394.9,930.9 c 0,0 846.1,1974.7 2308.5,1373.2 1687.8,-695 294.5,-5713.6 -119.5,-7406.2 0,0 424.4,-212.6 563.5,-512.4"
         style="fill:#ffffff;fill-opacity:1;fill-rule:nonzero;stroke:none"
         id="path174" /><path
         d="m 27547,10647.9 c -185.8,-318.1 -1734.9,-272.9 -2158.2,-122.3 -124.7,44 -308.5,145.1 -481.2,317 -303.7,-158.7 -1158.6,-350.1 -1272.5,7.2 -31.2,97.9 -21.6,174.6 15.6,241.4 171.8,-104.4 412.4,-192.7 669.4,-108.3 494,162.2 527.2,293.7 804.1,169 650.3,-291.7 2086.7,-594.7 2438.8,-109.5 55.9,-120.3 65.9,-254.6 -16,-394.5"
         style="fill:#dddddd;fill-opacity:1;fill-rule:nonzero;stroke:none"
         id="path176" /><path
         d="m 24737,17619.2 c 314.7,865.9 1112.9,1796 2130.5,1587.7 855.6,-156.4 1116.2,-906.9 1205.9,-1669.2 74.5,-685.6 20.6,-1378.2 -66.7,-2055.4 -175.8,-1341.8 -510.4,-2664.1 -851.9,-3965.5 l -83.7,180.9 c 289.1,-161.5 587.4,-373.1 680.1,-711.9 59.4,-231.5 -54.9,-513.5 -285.3,-594.1 -211.1,-88.8 -447.5,-112.6 -662.7,-129.7 -344,-22.2 -682.7,-13.7 -1024.9,24.5 -177.1,22.2 -366.4,48.4 -531.5,124.4 -172.3,79.8 -320.9,189 -451.7,318.1 -1.8,0.8 186.9,-28.3 186.5,-28.1 -370.1,-188 -1303.6,-430.3 -1505.2,82 -88.9,242.5 17.7,449.4 196.8,588.3 134.6,108 256.1,182.1 354.2,274.1 302.1,259.4 290.6,676.7 321.8,1047.5 32.9,313.5 94.1,730.8 153,1096.6 163.5,971 369.4,1933.8 625.1,2884.6 27.5,93.9 170.4,66.4 156.1,-34.1 L 24968.8,14706 c -106.8,-674.3 -226.5,-1430.9 -284.9,-2043.4 -26.4,-474 -31.6,-925.4 -422.9,-1273.1 -154,-152.7 -368.5,-241 -464.1,-392 -11.8,-27.3 -8,-54.9 -0.1,-84.2 3.4,-17.9 6.5,-24.4 20.1,-37.3 55.2,-42.7 129.1,-53.1 213.1,-58.5 301.7,-8.7 638.8,75.4 907.9,218 l 82.5,-79.6 c 105.3,-104.5 229.3,-194.3 359,-254 138.1,-61.9 285.4,-77.6 436.1,-97.9 318.1,-35.7 646.4,-43.9 965.5,-23 178.5,13.8 350.9,32.3 509.7,85.3 40,13.3 79.1,29.9 110.2,55.2 26.5,26.9 40.2,79.4 45.2,117.3 2.6,282 -401.7,521 -631.8,628.5 l 29.9,125.5 c 305.7,1394.5 1749,6440.5 241.9,7202.4 -963.8,447.8 -1762,-466.1 -2202.1,-1238.9 -46.1,-89.9 -180,-29 -147,62.9"
         style="fill:#371a45;fill-opacity:1;fill-rule:nonzero;stroke:none"
         id="path178" /><path
         d="m 24509.5,12609.9 c -8,-127.9 -11.2,-270.6 -31.5,-415.7 6,127.9 16.7,267.4 31.5,415.7"
         style="fill:#ffffff;fill-opacity:1;fill-rule:nonzero;stroke:none"
         id="path180" /><path
         d="m 24636.3,12172 -318,29.7 c 5.9,126.7 16.7,269.4 32.1,424.1 l 318.7,-25.9 c -2,-31 -3.6,-62.9 -5.3,-95.5 -5.3,-101.4 -11.2,-216.2 -27.5,-332.4"
         style="fill:#371a45;fill-opacity:1;fill-rule:nonzero;stroke:none"
         id="path182" /><path
         d="m 27420,27625.7 c -39.6,0 -79.3,14.7 -110.3,44.2 -63.9,60.9 -66.3,162.1 -5.4,226 l 2172.3,2279.3 c 60.9,63.9 162.1,66.3 226,5.4 63.9,-60.9 66.4,-162.1 5.4,-226 l -2172.3,-2279.3 c -31.3,-33 -73.5,-49.6 -115.7,-49.6"
         style="fill:#371a45;fill-opacity:1;fill-rule:nonzero;stroke:none"
         id="path184" /><path
         d="m 12580,27625.7 c -42.2,0 -84.3,16.6 -115.7,49.6 l -2172.4,2279.3 c -60.9,63.9 -58.4,165.1 5.5,226 63.9,60.9 165.1,58.5 226,-5.4 l 2172.3,-2279.3 c 60.9,-63.9 58.5,-165.1 -5.4,-226 -31,-29.5 -70.7,-44.2 -110.3,-44.2"
         style="fill:#371a45;fill-opacity:1;fill-rule:nonzero;stroke:none"
         id="path186" /><path
         d="m 10407.7,9775.2 c -39.7,0 -79.4,14.7 -110.3,44.1 -63.9,60.9 -66.4,162.2 -5.5,226.1 l 2172.4,2279.3 c 60.9,63.9 162.1,66.2 226,5.4 63.9,-60.9 66.3,-162.1 5.4,-226 L 10523.4,9824.8 c -31.4,-33 -73.5,-49.6 -115.7,-49.6"
         style="fill:#371a45;fill-opacity:1;fill-rule:nonzero;stroke:none"
         id="path188" /><path
         d="m 26800.3,14277.9 c -1023.2,0 -1964.9,328.7 -2015.7,346.7 -65,23.1 -99,94.5 -76,159.5 23,65.1 94.4,99.3 159.6,76.1 15.3,-5.4 1552.5,-541.2 2773.7,-238.5 66.8,16.6 134.7,-24.3 151.4,-91.3 16.6,-67 -24.3,-134.8 -91.3,-151.4 -293.8,-72.8 -601.4,-101.1 -901.7,-101.1"
         style="fill:#371a45;fill-opacity:1;fill-rule:nonzero;stroke:none"
         id="path190" /><path
         d="m 24528.3,12791.3 c -6.8,-61.9 -13.2,-122.3 -18.8,-181.4 4,64.7 9.2,125.9 18.8,181.4"
         style="fill:#ffffff;fill-opacity:1;fill-rule:nonzero;stroke:none"
         id="path192" /><path
         d="m 24668.7,12594.8 -318.7,25 c 3.7,60.4 9.1,131.2 20.8,198.8 l 316.5,-44.6 c -6.8,-61.2 -13.1,-120.8 -18.6,-179.2"
         style="fill:#371a45;fill-opacity:1;fill-rule:nonzero;stroke:none"
         id="path194" /><path
         d="m 18854.5,17660.3 -339.2,-22.4 -25.4,-298.5 -25.4,298.5 -339.2,22.4 339.2,22.3 25.4,298.6 25.4,-298.6 339.2,-22.3"
         style="fill:#ffce31;fill-opacity:1;fill-rule:nonzero;stroke:none"
         id="path196" /><path
         d="m 14009.6,18798.6 -225.9,-14.9 -16.9,-198.8 -16.9,198.8 -225.9,14.9 225.9,14.9 16.9,198.8 16.9,-198.8 225.9,-14.9"
         style="fill:#ffce31;fill-opacity:1;fill-rule:nonzero;stroke:none"
         id="path198" /><path
         d="m 17631.2,23836.5 -225.9,-14.9 -16.9,-198.8 -16.9,198.8 -225.9,14.9 225.9,14.9 16.9,198.7 16.9,-198.7 225.9,-14.9"
         style="fill:#ffce31;fill-opacity:1;fill-rule:nonzero;stroke:none"
         id="path200" /><path
         d="m 13529.5,27152.1 -225.8,-14.9 -17,-198.8 -16.9,198.8 -225.9,14.9 225.9,14.9 16.9,198.8 17,-198.8 225.8,-14.9"
         style="fill:#ffce31;fill-opacity:1;fill-rule:nonzero;stroke:none"
         id="path202" /><path
         d="m 15359.2,17339.4 -225.8,-14.9 -17,-198.8 -16.9,198.8 -225.9,14.9 225.9,14.9 16.9,198.8 17,-198.8 225.8,-14.9"
         style="fill:#ffffff;fill-opacity:1;fill-rule:nonzero;stroke:none"
         id="path204" /><path
         d="m 16180.3,19384.2 -154,-10.1 -11.5,-135.5 -11.5,135.5 -153.9,10.1 153.9,10.2 11.5,135.4 11.5,-135.4 154,-10.2"
         style="fill:#ffffff;fill-opacity:1;fill-rule:nonzero;stroke:none"
         id="path206" /><path
         d="m 18904.8,22424.7 -153.9,-10.2 -11.5,-135.4 -11.5,135.4 -153.9,10.2 153.9,10.1 11.5,135.5 11.5,-135.5 153.9,-10.1"
         style="fill:#ffffff;fill-opacity:1;fill-rule:nonzero;stroke:none"
         id="path208" /><path
         d="m 17311.1,16444.2 -153.9,-10.2 -11.6,-135.4 -11.5,135.4 -153.9,10.2 153.9,10.2 11.5,135.4 11.6,-135.4 153.9,-10.2"
         style="fill:#ffffff;fill-opacity:1;fill-rule:nonzero;stroke:none"
         id="path210" /><path
         d="m 20487.7,17721.2 -153.9,-10.1 -11.6,-135.5 -11.5,135.5 -153.9,10.1 153.9,10.2 11.5,135.4 11.6,-135.4 153.9,-10.2"
         style="fill:#ffffff;fill-opacity:1;fill-rule:nonzero;stroke:none"
         id="path212" /><path
         d="m 13452.2,13065.5 -153.9,-10.1 -11.6,-135.5 -11.5,135.5 -153.9,10.1 153.9,10.2 11.5,135.4 11.6,-135.4 153.9,-10.2"
         style="fill:#ffffff;fill-opacity:1;fill-rule:nonzero;stroke:none"
         id="path214" /><path
         d="m 18045.5,25893.7 -153.9,-10.1 -11.6,-135.5 -11.5,135.5 -153.9,10.1 153.9,10.2 11.5,135.5 11.6,-135.5 153.9,-10.2"
         style="fill:#ffffff;fill-opacity:1;fill-rule:nonzero;stroke:none"
         id="path216" /><path
         d="m 20487.7,27152.1 -153.9,-10.1 -11.6,-135.5 -11.5,135.5 -153.9,10.1 153.9,10.2 11.5,135.5 11.6,-135.5 153.9,-10.2"
         style="fill:#ffffff;fill-opacity:1;fill-rule:nonzero;stroke:none"
         id="path218" /><path
         d="m 17008.6,26938.4 -153.9,-10.1 -11.5,-135.5 -11.6,135.5 -153.9,10.1 153.9,10.2 11.6,135.5 11.5,-135.5 153.9,-10.2"
         style="fill:#ffffff;fill-opacity:1;fill-rule:nonzero;stroke:none"
         id="path220" /><path
         d="m 13987.5,24287.7 -153.9,-10.1 -11.6,-135.5 -11.5,135.5 -153.9,10.1 153.9,10.2 11.5,135.4 11.6,-135.4 153.9,-10.2"
         style="fill:#ffffff;fill-opacity:1;fill-rule:nonzero;stroke:none"
         id="path222" /><path
         d="m 20011.8,19238.6 -153.9,-10.2 -11.5,-135.4 -11.6,135.4 -153.9,10.2 153.9,10.2 11.6,135.4 11.5,-135.4 153.9,-10.2"
         style="fill:#ffffff;fill-opacity:1;fill-rule:nonzero;stroke:none"
         id="path224" /><path
         d="m 16479.4,21443.5 -153.9,-10.1 -11.5,-135.5 -11.6,135.5 -153.9,10.1 153.9,10.2 11.6,135.5 11.5,-135.5 153.9,-10.2"
         style="fill:#ffffff;fill-opacity:1;fill-rule:nonzero;stroke:none"
         id="path226" /><path
         d="m 13286.7,15935.2 -153.9,-10.2 -11.5,-135.4 -11.6,135.4 -153.9,10.2 153.9,10.1 11.6,135.5 11.5,-135.5 153.9,-10.1"
         style="fill:#ffffff;fill-opacity:1;fill-rule:nonzero;stroke:none"
         id="path228" /><path
         d="m 14664.4,22570.3 -154,-10.2 -11.5,-135.4 -11.5,135.4 -153.9,10.2 153.9,10.1 11.5,135.5 11.5,-135.5 154,-10.1"
         style="fill:#ffce31;fill-opacity:1;fill-rule:nonzero;stroke:none"
         id="path230" /><path
         d="m 13822,21297.9 -153.9,-10.1 -11.5,-135.5 -11.6,135.5 -153.9,10.1 153.9,10.2 11.6,135.4 11.5,-135.4 153.9,-10.2"
         style="fill:#ffce31;fill-opacity:1;fill-rule:nonzero;stroke:none"
         id="path232" /><path
         d="m 18456.2,20000 -153.9,-10.2 -11.5,-135.4 -11.6,135.4 -153.9,10.2 153.9,10.2 11.6,135.4 11.5,-135.4 153.9,-10.2"
         style="fill:#ffce31;fill-opacity:1;fill-rule:nonzero;stroke:none"
         id="path234" /><path
         d="m 20605.8,15813.7 -153.9,-10.1 -11.6,-135.5 -11.5,135.5 -153.9,10.1 153.9,10.2 11.5,135.5 11.6,-135.5 153.9,-10.2"
         style="fill:#ffce31;fill-opacity:1;fill-rule:nonzero;stroke:none"
         id="path236" /><path
         d="m 16345.7,25199.2 -153.9,-10.1 -11.5,-135.5 -11.6,135.5 -153.9,10.1 153.9,10.2 11.6,135.5 11.5,-135.5 153.9,-10.2"
         style="fill:#ffce31;fill-opacity:1;fill-rule:nonzero;stroke:none"
         id="path238" /><path
         d="m 15062.7,25802.1 -339.2,-22.4 -25.4,-298.5 -25.5,298.5 -339.1,22.4 339.1,22.4 25.5,298.5 25.4,-298.5 339.2,-22.4"
         style="fill:#ffffff;fill-opacity:1;fill-rule:nonzero;stroke:none"
         id="path240" /><path
         d="m 19083.4,10616.4 c -13.4,0 -27,2.2 -40.5,6.8 -65.3,22.4 -100.1,93.4 -77.8,158.7 584.8,1708.6 10.9,3399.5 5,3416.4 -22.6,65.1 11.8,136.4 77,159.1 64.8,22.6 136.4,-11.6 159.1,-76.9 25.2,-72.1 609,-1786.9 -4.5,-3579.5 -17.8,-51.9 -66.3,-84.6 -118.3,-84.6"
         style="fill:#371a45;fill-opacity:1;fill-rule:nonzero;stroke:none"
         id="path242" /><path
         d="m 21334.5,15745.1 c -106.2,-263.2 -246.7,-454.7 -313.8,-427.6 -29.7,12 -207.5,83.7 -349.6,141.1 -54.1,123.5 133.1,329.8 192.3,476.6 66.3,164.5 58.6,430.9 192.3,476.6 140,-56.5 324.4,-130.9 349.6,-141.1 67.1,-27.1 35.4,-262.4 -70.8,-525.6"
         style="fill:#22a7f0;fill-opacity:1;fill-rule:nonzero;stroke:none"
         id="path244" /><path
         d="m 21337.8,15753.3 c -0.8,-2.8 -2,-5.6 -3.2,-8.4 -106.3,-263 -246.6,-454.4 -313.8,-427.3 -29.9,12 -207.8,83.6 -349.7,141.1 -53.9,123.5 133.1,329.7 192.3,476.4 66.3,164.7 58.7,430.9 192.2,476.8 30.4,-12.4 62.8,-25.2 95.1,-38.3 -0.4,-1.2 -0.8,-2 -1.2,-3.2 -59.1,-146.7 -246.2,-353.3 -192.2,-476.8 142.3,-57.2 320.1,-129.1 349.7,-141.1 8.8,-3.6 19.2,-3.2 30.8,0.8"
         style="fill:#1b88ea;fill-opacity:1;fill-rule:nonzero;stroke:none"
         id="path246" /><path
         d="m 20741.3,15516.5 292.6,-118.1 c 40.3,27.5 135.8,151.8 226.5,376.6 90.7,224.8 108.2,380.5 98.3,428.3 l -296.1,119.5 c -33.8,-36.8 -54.1,-134.4 -70.8,-215.1 -14.4,-69 -29.2,-140.3 -54.3,-202.4 -21.6,-53.7 -55.5,-109.4 -91.3,-168.4 -41,-67.7 -99.9,-164.8 -104.9,-220.4 z m 293.5,-281.8 c -14.3,0 -29.1,2.7 -44.1,8.7 l -349.6,141.1 c -19.4,7.8 -34.9,22.9 -43.3,42 -53.1,121.5 30.7,259.6 111.8,393.3 32.3,53.3 62.9,103.6 79.7,145.3 19.6,48.8 33,113 45.9,175.1 30.9,148.6 62.9,302.2 194.6,347.2 18.2,6.3 37.9,5.7 55.8,-1.5 l 349.6,-141.1 c 181.5,-73.3 25.6,-500.5 -26.6,-629.6 -53.7,-133.4 -118.1,-254.1 -181.2,-340.1 -27.4,-37.3 -103.1,-140.4 -192.6,-140.4"
         style="fill:#371a45;fill-opacity:1;fill-rule:nonzero;stroke:none"
         id="path248" /><path
         d="m 20984.9,15886.1 c -106.2,-263.2 -246.7,-454.6 -313.8,-427.5 -67.2,27.1 -35.5,262.4 70.7,525.6 106.2,263.2 246.7,454.7 313.9,427.6 67.1,-27.1 35.4,-262.4 -70.8,-525.7"
         style="fill:#22a7f0;fill-opacity:1;fill-rule:nonzero;stroke:none"
         id="path250" /><path
         d="m 21073.6,16171.3 c -17.2,-83.5 -47.2,-182.2 -88.7,-285.3 -106.3,-263 -246.6,-454.5 -313.8,-427.3 -67.1,26.8 -35.5,262.2 70.8,525.6 20.8,51.9 43.1,100.7 65.9,145.9 -26.8,-129.5 -22.4,-222.7 18.4,-239 54,-21.6 154.7,96.7 247.4,280.1"
         style="fill:#1b88ea;fill-opacity:1;fill-rule:nonzero;stroke:none"
         id="path252" /><path
         d="m 21011.3,16301.9 c -48,-53.5 -123.2,-168.7 -195.4,-347.5 -72.1,-179 -97.9,-314.1 -100.5,-385.9 48,53.5 123.2,168.7 195.4,347.5 72.2,178.9 97.9,314 100.5,385.9 z m -326.1,-926.1 c -14.3,0 -29.1,2.6 -44.1,8.7 -107.9,43.5 -86.1,205.7 -78.9,259 14.2,105.7 51.7,237.3 105.5,370.6 53.7,133.4 118.1,254.1 181.2,340.1 31.9,43.3 128.2,175.5 236.7,131.7 181.5,-73.3 25.6,-500.5 -26.6,-629.6 -53.7,-133.4 -118.1,-254.1 -181.2,-340.1 -27.5,-37.3 -103.1,-140.4 -192.6,-140.4"
         style="fill:#371a45;fill-opacity:1;fill-rule:nonzero;stroke:none"
         id="path254" /><path
         d="m 20748.4,14323.7 c -8,0 -16.1,1.2 -24.2,3.8 -42.1,13.3 -65.3,58.3 -51.9,100.3 147.2,463 307.1,791.7 415.3,985.9 58.7,105.5 145.5,192.5 250.9,251.4 83.6,46.8 151.2,116.3 195.4,200.9 186.9,357.6 530.1,992.6 729.4,1226.4 28.6,33.6 79.1,37.7 112.7,9 33.6,-28.6 37.6,-79.1 9,-112.7 -196.3,-230.2 -561.5,-913.6 -709.4,-1196.7 -58.7,-112.4 -148.3,-204.4 -259,-266.4 -79.6,-44.5 -145.1,-110.1 -189.4,-189.7 -104.6,-187.7 -259.3,-506.2 -402.6,-956.5 -10.8,-34 -42.3,-55.7 -76.2,-55.7"
         style="fill:#371a45;fill-opacity:1;fill-rule:nonzero;stroke:none"
         id="path256" /><path
         d="m 15590.2,12617 c 24.4,388.5 85.5,770.5 232.8,1134.1 52.7,123.1 116.7,245.5 206.9,360.1 54.7,69.5 155.4,81.4 224.9,26.7 75.2,-58.4 81.8,-172.3 14.1,-239.1 -236.7,-251 -355.8,-607 -444.5,-939.1 -30.1,-118.3 -56.7,-240.4 -75.3,-359.2 -16.6,-98.2 -162.7,-83.2 -158.9,16.5"
         style="fill:#371a45;fill-opacity:1;fill-rule:nonzero;stroke:none"
         id="path258" /><path
         d="m 10806.8,7137.4 472.5,1024.2 -204.5,-1024.2 z"
         style="fill:#371a45;fill-opacity:1;fill-rule:nonzero;stroke:none"
         id="path260" /><path
         d="m 16947.9,8455.8 c -2644.2,0 -4787.7,122.1 -4787.7,272.7 0,150.6 2143.5,272.7 4787.7,272.7 2644.1,0 4787.6,-122.1 4787.6,-272.7 0,-150.6 -2143.5,-272.7 -4787.6,-272.7"
         style="fill:#ffefd9;fill-opacity:1;fill-rule:nonzero;stroke:none"
         id="path262" /><path
         d="m 8509.33,18711.9 c -137.93,0 -249.75,1147.2 -249.75,2562.3 0,1415.1 111.82,2562.3 249.75,2562.3 137.95,0 249.77,-1147.2 249.77,-2562.3 0,-1415.1 -111.82,-2562.3 -249.77,-2562.3"
         style="fill:#ffefd9;fill-opacity:1;fill-rule:nonzero;stroke:none"
         id="path264" /><path
         d="m 8509.33,15862.5 c -137.93,0 -249.75,402.4 -249.75,898.9 0,496.4 111.82,898.9 249.75,898.9 137.95,0 249.77,-402.5 249.77,-898.9 0,-496.5 -111.82,-898.9 -249.77,-898.9"
         style="fill:#ffefd9;fill-opacity:1;fill-rule:nonzero;stroke:none"
         id="path266" /><path
         d="M 32390,7936.7 V 31962.5 L 29592.3,29964.2 V 9935 L 32390,7936.7"
         style="fill:#ffcb80;fill-opacity:1;fill-rule:nonzero;stroke:none"
         id="path268" /><path
         d="M 29592.3,29964.2 V 9934.9 L 32390,7936.6 v 1033.5 c -739.4,1036.3 -2248.2,2124.2 -2248.2,10627.8 0,8503.6 1607.8,10805.3 2248.2,11703.2 v 661.5 l -2797.7,-1998.4"
         style="fill:#f9b480;fill-opacity:1;fill-rule:nonzero;stroke:none"
         id="path270" /><path
         d="m 29752.2,10017.3 2477.9,-1769.9 v 23404.5 l -2477.9,-1770 z M 32390,7776.9 c -32.7,0 -65.3,10 -92.9,29.8 L 29499.4,9805 c -42,30 -67,78.5 -67,130.1 v 20029.1 c 0,51.6 25,100 67,130.1 l 2797.7,1998.3 c 48.7,34.8 112.8,39.5 166,12.1 53.3,-27.4 86.8,-82.3 86.8,-142.2 V 7936.7 c 0,-59.8 -33.5,-114.7 -86.8,-142.1 -23,-11.9 -48.1,-17.7 -73.1,-17.7"
         style="fill:#371a45;fill-opacity:1;fill-rule:nonzero;stroke:none"
         id="path272" /><path
         d="m 31490.7,15862.5 c -138,0 -249.8,1147.2 -249.8,2562.3 0,1415.1 111.8,2562.3 249.8,2562.3 137.9,0 249.7,-1147.2 249.7,-2562.3 0,-1415.1 -111.8,-2562.3 -249.7,-2562.3"
         style="fill:#ffefd9;fill-opacity:1;fill-rule:nonzero;stroke:none"
         id="path274" /><path
         d="m 31490.7,22038.7 c -138,0 -249.8,402.4 -249.8,898.9 0,496.4 111.8,898.9 249.8,898.9 137.9,0 249.7,-402.5 249.7,-898.9 0,-496.5 -111.8,-898.9 -249.7,-898.9"
         style="fill:#ffefd9;fill-opacity:1;fill-rule:nonzero;stroke:none"
         id="path276" /><path
         d="m 24409.7,8455.8 c -1181.1,0 -2138.6,122.1 -2138.6,272.7 0,150.6 957.5,272.7 2138.6,272.7 1181.1,0 2138.5,-122.1 2138.5,-272.7 0,-150.6 -957.4,-272.7 -2138.5,-272.7"
         style="fill:#ffefd9;fill-opacity:1;fill-rule:nonzero;stroke:none"
         id="path278" /><path
         d="M 31191.2,32862.6 29592.5,30065 H 10407.7 L 8809.02,32862.6 H 31191.2"
         style="fill:#ffcb80;fill-opacity:1;fill-rule:nonzero;stroke:none"
         id="path280" /><path
         d="M 31191.2,32862.6 29592.5,30065 H 10407.7 l -1598.68,2797.6 h 378.87 c 675.85,-669.4 1530.31,-1579.4 2838.01,-2015.1 1073.9,-358.1 14832.9,-358.1 15907.2,0 1307.7,435.7 2162.2,1345.7 2838,2015.1 h 420.1"
         style="fill:#f9b480;fill-opacity:1;fill-rule:nonzero;stroke:none"
         id="path282" /><path
         d="M 31191.2,32862.6 H 8809.02 c 0.15,0.1 0,0.1 0,0.1 H 31191.2 c 0,0 -0.2,0 -0.6,-0.1"
         style="fill:#fffce2;fill-opacity:1;fill-rule:nonzero;stroke:none"
         id="path284" /><path
         d="m 19802.3,32350.4 c -6665.6,0 -9531.7,291.8 -10536.65,435 -26.18,26 -52.1,51.8 -77.76,77.2 h -378.4 v 0 H 31191.2 c -0.6,0 -0.6,0 -0.6,0 h -419.5 c -24.7,-24.5 -49.7,-49.3 -75,-74.5 -1097.1,-142.1 -4185.2,-437.7 -10893.8,-437.7"
         style="fill:#ffefd9;fill-opacity:1;fill-rule:nonzero;stroke:none"
         id="path286" /><path
         d="m 9265.65,32785.4 c -315.35,44.9 -447.4,75.2 -456.16,77.2 h 378.4 c 25.66,-25.4 51.58,-51.2 77.76,-77.2 m 21430.45,2.7 c 25.3,25.2 50.3,50 75,74.5 h 419.5 c -10.1,-2 -159.5,-31.1 -494.5,-74.5"
         style="fill:#fde8d9;fill-opacity:1;fill-rule:nonzero;stroke:none"
         id="path288" /><path
         d="m 19802.3,32350.4 v 0.4 c 58.7,-0.4 117.5,-0.4 176.2,0 -58.7,-0.4 -117.5,-0.4 -176.2,-0.4"
         style="fill:#f9b480;fill-opacity:1;fill-rule:nonzero;stroke:none"
         id="path290" /><path
         d="m 19978.5,32350.8 c 58.4,-0.4 117.1,-0.4 175.9,0 v -0.4 c -58.8,0 -117.1,0 -175.9,0.4"
         style="fill:#f9b480;fill-opacity:1;fill-rule:nonzero;stroke:none"
         id="path292" /><path
         d="m 10500.6,30224.8 h 18999.1 l 1416,2478 H 9084.67 Z m 19091.9,-319.7 H 10407.9 c -57.4,0 -110.4,30.7 -138.9,80.5 l -1598.63,2797.7 c -28.28,49.5 -28.08,110.3 0.53,159.6 28.62,49.3 81.3,79.6 138.28,79.6 H 31191.2 c 56.9,0 109.6,-30.3 138.2,-79.6 28.7,-49.3 28.9,-110.1 0.6,-159.6 l -1598.7,-2797.7 c -28.5,-49.8 -81.4,-80.5 -138.8,-80.5"
         style="fill:#371a45;fill-opacity:1;fill-rule:nonzero;stroke:none"
         id="path294" /><path
         d="m 29193.4,32862.6 -472.6,-1024.2 204.6,1024.2 z"
         style="fill:#371a45;fill-opacity:1;fill-rule:nonzero;stroke:none"
         id="path296" /></g></g></svg>
